<?xml version="1.0" encoding="UTF-8"?>
<svg width="2531px" height="557px" viewBox="0 0 2531 557" version="1.1" xmlns="http://www.w3.org/2000/svg" xmlns:xlink="http://www.w3.org/1999/xlink">
    <title>Green Imaging - Easy, Affordable Medical Imaging</title>
    <g id="Page-1" stroke="none" stroke-width="1" fill="none" fill-rule="evenodd">
        <g id="logo" fill-rule="nonzero">
            <path d="M726.305,458 L726.305,452.22 L695.28,452.22 L695.28,430.46 L724.605,430.46 L724.605,424.68 L695.28,424.68 L695.28,403.855 L726.305,403.855 L726.305,398.075 L688.395,398.075 L688.395,458 L726.305,458 Z M750.02,458.595 C752.91,458.595 755.46,457.929167 757.67,456.5975 C759.88,455.265833 761.523333,453.381667 762.6,450.945 L762.6,450.945 L762.6,458 L769.315,458 L769.315,431.905 C769.315,426.408333 768.025833,422.314167 765.4475,419.6225 C762.869167,416.930833 758.945,415.585 753.675,415.585 C750.841667,415.585 747.909167,416.0525 744.8775,416.9875 C741.845833,417.9225 739.253333,419.155 737.1,420.685 L737.1,420.685 L739.395,425.7 C744.098333,422.753333 748.83,421.28 753.59,421.28 C756.763333,421.28 759.058333,422.059167 760.475,423.6175 C761.891667,425.175833 762.6,427.683333 762.6,431.14 L762.6,431.14 L762.6,433.945 L760.73,433.945 C754.27,433.945 749.226667,434.3275 745.6,435.0925 C741.973333,435.8575 739.366667,437.104167 737.78,438.8325 C736.193333,440.560833 735.4,442.983333 735.4,446.1 C735.4,448.423333 736.051667,450.548333 737.355,452.475 C738.658333,454.401667 740.429167,455.903333 742.6675,456.98 C744.905833,458.056667 747.356667,458.595 750.02,458.595 Z M750.955,453.155 C748.518333,453.155 746.4925,452.4325 744.8775,450.9875 C743.2625,449.5425 742.455,447.715 742.455,445.505 C742.455,443.578333 743.0075,442.119167 744.1125,441.1275 C745.2175,440.135833 747.073333,439.4275 749.68,439.0025 C752.286667,438.5775 756.083333,438.365 761.07,438.365 L761.07,438.365 L762.6,438.365 L762.6,440.83 C762.6,444.456667 761.509167,447.4175 759.3275,449.7125 C757.145833,452.0075 754.355,453.155 750.955,453.155 Z M795.92,458.595 C800.963333,458.595 804.944167,457.518333 807.8625,455.365 C810.780833,453.211667 812.24,450.321667 812.24,446.695 C812.24,443.748333 811.305,441.354167 809.435,439.5125 C807.565,437.670833 804.703333,436.296667 800.85,435.39 L800.85,435.39 L793.795,433.69 C791.585,433.18 789.984167,432.429167 788.9925,431.4375 C788.000833,430.445833 787.505,429.128333 787.505,427.485 C787.505,425.501667 788.3125,423.9575 789.9275,422.8525 C791.5425,421.7475 793.795,421.195 796.685,421.195 C801.218333,421.195 805.383333,422.81 809.18,426.04 L809.18,426.04 L811.475,421.025 C809.718333,419.268333 807.536667,417.9225 804.93,416.9875 C802.323333,416.0525 799.575,415.585 796.685,415.585 C791.868333,415.585 788.015,416.718333 785.125,418.985 C782.235,421.251667 780.79,424.226667 780.79,427.91 C780.79,430.743333 781.725,433.123333 783.595,435.05 C785.465,436.976667 788.156667,438.336667 791.67,439.13 L791.67,439.13 L798.64,440.745 C801.133333,441.311667 802.918333,442.076667 803.995,443.04 C805.071667,444.003333 805.61,445.306667 805.61,446.95 C805.61,448.933333 804.8025,450.449167 803.1875,451.4975 C801.5725,452.545833 799.235,453.07 796.175,453.07 C793.285,453.07 790.6925,452.6875 788.3975,451.9225 C786.1025,451.1575 783.85,449.896667 781.64,448.14 L781.64,448.14 L779.345,453.24 C783.425,456.81 788.95,458.595 795.92,458.595 Z M834,473.3 L858.48,416.69 L851.595,416.69 L837.57,450.52 L823.715,416.69 L816.405,416.69 L833.915,457.49 L826.945,473.3 L834,473.3 Z M889.845,458 L896.475,442.615 L927.755,442.615 L934.385,458 L941.44,458 L915.09,398.075 L909.055,398.075 L882.705,458 L889.845,458 Z M925.29,436.835 L898.94,436.835 L912.115,406.15 L925.29,436.835 Z M958.015,458 L958.015,422.045 L969.745,422.045 L969.745,416.605 L958.015,416.605 L958.015,414.31 C958.015,410.74 958.808333,408.090833 960.395,406.3625 C961.981667,404.634167 964.503333,403.656667 967.96,403.43 L967.96,403.43 L971.87,403.175 L971.36,397.82 L967.96,397.99 C962.236667,398.33 958.000833,399.916667 955.2525,402.75 C952.504167,405.583333 951.13,409.748333 951.13,415.245 L951.13,415.245 L951.13,416.605 L943.055,416.605 L943.055,422.045 L951.13,422.045 L951.13,458 L958.015,458 Z M985.895,458 L985.895,422.045 L997.625,422.045 L997.625,416.605 L985.895,416.605 L985.895,414.31 C985.895,410.74 986.688333,408.090833 988.275,406.3625 C989.861667,404.634167 992.383333,403.656667 995.84,403.43 L995.84,403.43 L999.75,403.175 L999.24,397.82 L995.84,397.99 C990.116667,398.33 985.880833,399.916667 983.1325,402.75 C980.384167,405.583333 979.01,409.748333 979.01,415.245 L979.01,415.245 L979.01,416.605 L970.935,416.605 L970.935,422.045 L979.01,422.045 L979.01,458 L985.895,458 Z M1021.34,458.595 C1025.25,458.595 1028.70667,457.716667 1031.71,455.96 C1034.71333,454.203333 1037.0225,451.695833 1038.6375,448.4375 C1040.2525,445.179167 1041.06,441.396667 1041.06,437.09 C1041.06,432.783333 1040.2525,429.000833 1038.6375,425.7425 C1037.0225,422.484167 1034.71333,419.976667 1031.71,418.22 C1028.70667,416.463333 1025.25,415.585 1021.34,415.585 C1017.43,415.585 1013.9875,416.463333 1011.0125,418.22 C1008.0375,419.976667 1005.7425,422.484167 1004.1275,425.7425 C1002.5125,429.000833 1001.705,432.783333 1001.705,437.09 C1001.705,441.396667 1002.5125,445.179167 1004.1275,448.4375 C1005.7425,451.695833 1008.0375,454.203333 1011.0125,455.96 C1013.9875,457.716667 1017.43,458.595 1021.34,458.595 Z M1021.34,452.9 C1017.26,452.9 1014.12917,451.54 1011.9475,448.82 C1009.76583,446.1 1008.675,442.19 1008.675,437.09 C1008.675,432.046667 1009.78,428.150833 1011.99,425.4025 C1014.2,422.654167 1017.31667,421.28 1021.34,421.28 C1025.36333,421.28 1028.48,422.654167 1030.69,425.4025 C1032.9,428.150833 1034.005,432.046667 1034.005,437.09 C1034.005,442.246667 1032.91417,446.170833 1030.7325,448.8625 C1028.55083,451.554167 1025.42,452.9 1021.34,452.9 Z M1058.23,458 L1058.23,434.37 C1058.23,431.026667 1059.17917,428.221667 1061.0775,425.955 C1062.97583,423.688333 1066.05,422.356667 1070.3,421.96 L1070.3,421.96 L1074.805,421.535 L1074.21,415.585 L1071.745,415.755 C1064.945,416.321667 1060.38333,419.013333 1058.06,423.83 L1058.06,423.83 L1058.06,416.605 L1051.345,416.605 L1051.345,458 L1058.23,458 Z M1096.395,458.595 C1099.625,458.595 1102.44417,457.886667 1104.8525,456.47 C1107.26083,455.053333 1109.08833,453.041667 1110.335,450.435 L1110.335,450.435 L1110.335,458 L1117.22,458 L1117.22,398.075 L1110.335,398.075 L1110.335,423.745 C1109.08833,421.138333 1107.26083,419.126667 1104.8525,417.71 C1102.44417,416.293333 1099.625,415.585 1096.395,415.585 C1092.76833,415.585 1089.56667,416.463333 1086.79,418.22 C1084.01333,419.976667 1081.86,422.47 1080.33,425.7 C1078.8,428.93 1078.035,432.67 1078.035,436.92 C1078.035,441.226667 1078.8,445.009167 1080.33,448.2675 C1081.86,451.525833 1084.01333,454.061667 1086.79,455.875 C1089.56667,457.688333 1092.76833,458.595 1096.395,458.595 Z M1097.755,452.9 C1093.73167,452.9 1090.60083,451.4975 1088.3625,448.6925 C1086.12417,445.8875 1085.005,441.963333 1085.005,436.92 C1085.005,431.99 1086.12417,428.165 1088.3625,425.445 C1090.60083,422.725 1093.73167,421.365 1097.755,421.365 C1101.77833,421.365 1104.88083,422.725 1107.0625,425.445 C1109.24417,428.165 1110.335,432.046667 1110.335,437.09 C1110.335,442.133333 1109.24417,446.029167 1107.0625,448.7775 C1104.88083,451.525833 1101.77833,452.9 1097.755,452.9 Z M1143.145,458.595 C1146.035,458.595 1148.585,457.929167 1150.795,456.5975 C1153.005,455.265833 1154.64833,453.381667 1155.725,450.945 L1155.725,450.945 L1155.725,458 L1162.44,458 L1162.44,431.905 C1162.44,426.408333 1161.15083,422.314167 1158.5725,419.6225 C1155.99417,416.930833 1152.07,415.585 1146.8,415.585 C1143.96667,415.585 1141.03417,416.0525 1138.0025,416.9875 C1134.97083,417.9225 1132.37833,419.155 1130.225,420.685 L1130.225,420.685 L1132.52,425.7 C1137.22333,422.753333 1141.955,421.28 1146.715,421.28 C1149.88833,421.28 1152.18333,422.059167 1153.6,423.6175 C1155.01667,425.175833 1155.725,427.683333 1155.725,431.14 L1155.725,431.14 L1155.725,433.945 L1153.855,433.945 C1147.395,433.945 1142.35167,434.3275 1138.725,435.0925 C1135.09833,435.8575 1132.49167,437.104167 1130.905,438.8325 C1129.31833,440.560833 1128.525,442.983333 1128.525,446.1 C1128.525,448.423333 1129.17667,450.548333 1130.48,452.475 C1131.78333,454.401667 1133.55417,455.903333 1135.7925,456.98 C1138.03083,458.056667 1140.48167,458.595 1143.145,458.595 Z M1144.08,453.155 C1141.64333,453.155 1139.6175,452.4325 1138.0025,450.9875 C1136.3875,449.5425 1135.58,447.715 1135.58,445.505 C1135.58,443.578333 1136.1325,442.119167 1137.2375,441.1275 C1138.3425,440.135833 1140.19833,439.4275 1142.805,439.0025 C1145.41167,438.5775 1149.20833,438.365 1154.195,438.365 L1154.195,438.365 L1155.725,438.365 L1155.725,440.83 C1155.725,444.456667 1154.63417,447.4175 1152.4525,449.7125 C1150.27083,452.0075 1147.48,453.155 1144.08,453.155 Z M1195.845,458.595 C1199.47167,458.595 1202.67333,457.688333 1205.45,455.875 C1208.22667,454.061667 1210.38,451.525833 1211.91,448.2675 C1213.44,445.009167 1214.205,441.226667 1214.205,436.92 C1214.205,432.67 1213.44,428.93 1211.91,425.7 C1210.38,422.47 1208.22667,419.976667 1205.45,418.22 C1202.67333,416.463333 1199.47167,415.585 1195.845,415.585 C1192.615,415.585 1189.79583,416.293333 1187.3875,417.71 C1184.97917,419.126667 1183.15167,421.138333 1181.905,423.745 L1181.905,423.745 L1181.905,398.075 L1175.02,398.075 L1175.02,458 L1181.905,458 L1181.905,450.435 C1183.15167,453.041667 1184.97917,455.053333 1187.3875,456.47 C1189.79583,457.886667 1192.615,458.595 1195.845,458.595 Z M1194.485,452.9 C1190.46167,452.9 1187.35917,451.525833 1185.1775,448.7775 C1182.99583,446.029167 1181.905,442.133333 1181.905,437.09 C1181.905,432.046667 1182.99583,428.165 1185.1775,425.445 C1187.35917,422.725 1190.46167,421.365 1194.485,421.365 C1198.50833,421.365 1201.625,422.725 1203.835,425.445 C1206.045,428.165 1207.15,431.99 1207.15,436.92 C1207.15,441.963333 1206.045,445.8875 1203.835,448.6925 C1201.625,451.4975 1198.50833,452.9 1194.485,452.9 Z M1231.375,458 L1231.375,398.075 L1224.49,398.075 L1224.49,458 L1231.375,458 Z M1262.57,458.595 C1265.51667,458.595 1268.40667,458.099167 1271.24,457.1075 C1274.07333,456.115833 1276.39667,454.77 1278.21,453.07 L1278.21,453.07 L1275.915,448.055 C1271.89167,451.341667 1267.47167,452.985 1262.655,452.985 C1258.29167,452.985 1254.92,451.7525 1252.54,449.2875 C1250.16,446.8225 1248.85667,443.181667 1248.63,438.365 L1248.63,438.365 L1278.89,438.365 L1278.89,435.815 C1278.89,429.525 1277.33167,424.580833 1274.215,420.9825 C1271.09833,417.384167 1266.79167,415.585 1261.295,415.585 C1257.49833,415.585 1254.1125,416.491667 1251.1375,418.305 C1248.1625,420.118333 1245.85333,422.654167 1244.21,425.9125 C1242.56667,429.170833 1241.745,432.925 1241.745,437.175 C1241.745,443.861667 1243.60083,449.103333 1247.3125,452.9 C1251.02417,456.696667 1256.11,458.595 1262.57,458.595 Z M1272.855,433.945 L1248.8,433.945 C1249.19667,429.808333 1250.48583,426.606667 1252.6675,424.34 C1254.84917,422.073333 1257.75333,420.94 1261.38,420.94 C1264.95,420.94 1267.72667,422.059167 1269.71,424.2975 C1271.69333,426.535833 1272.74167,429.751667 1272.855,433.945 L1272.855,433.945 Z M1318.415,458 L1318.33,411.93 L1337.88,448.48 L1342.81,448.48 L1362.275,411.59 L1362.19,458 L1368.565,458 L1368.565,398.075 L1362.87,398.075 L1340.43,441.51 L1317.735,398.075 L1311.955,398.075 L1311.955,458 L1318.415,458 Z M1400.78,458.595 C1403.72667,458.595 1406.61667,458.099167 1409.45,457.1075 C1412.28333,456.115833 1414.60667,454.77 1416.42,453.07 L1416.42,453.07 L1414.125,448.055 C1410.10167,451.341667 1405.68167,452.985 1400.865,452.985 C1396.50167,452.985 1393.13,451.7525 1390.75,449.2875 C1388.37,446.8225 1387.06667,443.181667 1386.84,438.365 L1386.84,438.365 L1417.1,438.365 L1417.1,435.815 C1417.1,429.525 1415.54167,424.580833 1412.425,420.9825 C1409.30833,417.384167 1405.00167,415.585 1399.505,415.585 C1395.70833,415.585 1392.3225,416.491667 1389.3475,418.305 C1386.3725,420.118333 1384.06333,422.654167 1382.42,425.9125 C1380.77667,429.170833 1379.955,432.925 1379.955,437.175 C1379.955,443.861667 1381.81083,449.103333 1385.5225,452.9 C1389.23417,456.696667 1394.32,458.595 1400.78,458.595 Z M1411.065,433.945 L1387.01,433.945 C1387.40667,429.808333 1388.69583,426.606667 1390.8775,424.34 C1393.05917,422.073333 1395.96333,420.94 1399.59,420.94 C1403.16,420.94 1405.93667,422.059167 1407.92,424.2975 C1409.90333,426.535833 1410.95167,429.751667 1411.065,433.945 L1411.065,433.945 Z M1443.11,458.595 C1446.34,458.595 1449.15917,457.886667 1451.5675,456.47 C1453.97583,455.053333 1455.80333,453.041667 1457.05,450.435 L1457.05,450.435 L1457.05,458 L1463.935,458 L1463.935,398.075 L1457.05,398.075 L1457.05,423.745 C1455.80333,421.138333 1453.97583,419.126667 1451.5675,417.71 C1449.15917,416.293333 1446.34,415.585 1443.11,415.585 C1439.48333,415.585 1436.28167,416.463333 1433.505,418.22 C1430.72833,419.976667 1428.575,422.47 1427.045,425.7 C1425.515,428.93 1424.75,432.67 1424.75,436.92 C1424.75,441.226667 1425.515,445.009167 1427.045,448.2675 C1428.575,451.525833 1430.72833,454.061667 1433.505,455.875 C1436.28167,457.688333 1439.48333,458.595 1443.11,458.595 Z M1444.47,452.9 C1440.44667,452.9 1437.31583,451.4975 1435.0775,448.6925 C1432.83917,445.8875 1431.72,441.963333 1431.72,436.92 C1431.72,431.99 1432.83917,428.165 1435.0775,425.445 C1437.31583,422.725 1440.44667,421.365 1444.47,421.365 C1448.49333,421.365 1451.59583,422.725 1453.7775,425.445 C1455.95917,428.165 1457.05,432.046667 1457.05,437.09 C1457.05,442.133333 1455.95917,446.029167 1453.7775,448.7775 C1451.59583,451.525833 1448.49333,452.9 1444.47,452.9 Z M1484.335,406.405 L1484.335,398.67 L1476.005,398.67 L1476.005,406.405 L1484.335,406.405 Z M1483.57,458 L1483.57,416.605 L1476.685,416.605 L1476.685,458 L1483.57,458 Z M1513.915,458.595 C1516.74833,458.595 1519.49667,458.113333 1522.16,457.15 C1524.82333,456.186667 1527.03333,454.883333 1528.79,453.24 L1528.79,453.24 L1526.495,448.14 C1522.585,451.313333 1518.61833,452.9 1514.595,452.9 C1510.345,452.9 1507.03,451.54 1504.65,448.82 C1502.27,446.1 1501.08,442.246667 1501.08,437.26 C1501.08,432.216667 1502.27,428.306667 1504.65,425.53 C1507.03,422.753333 1510.345,421.365 1514.595,421.365 C1518.61833,421.365 1522.585,422.951667 1526.495,426.125 L1526.495,426.125 L1528.79,421.025 C1527.14667,419.381667 1524.99333,418.064167 1522.33,417.0725 C1519.66667,416.080833 1516.94667,415.585 1514.17,415.585 C1510.09,415.585 1506.53417,416.491667 1503.5025,418.305 C1500.47083,420.118333 1498.11917,422.654167 1496.4475,425.9125 C1494.77583,429.170833 1493.94,432.953333 1493.94,437.26 C1493.94,441.566667 1494.7475,445.320833 1496.3625,448.5225 C1497.9775,451.724167 1500.28667,454.203333 1503.29,455.96 C1506.29333,457.716667 1509.835,458.595 1513.915,458.595 Z M1550.295,458.595 C1553.185,458.595 1555.735,457.929167 1557.945,456.5975 C1560.155,455.265833 1561.79833,453.381667 1562.875,450.945 L1562.875,450.945 L1562.875,458 L1569.59,458 L1569.59,431.905 C1569.59,426.408333 1568.30083,422.314167 1565.7225,419.6225 C1563.14417,416.930833 1559.22,415.585 1553.95,415.585 C1551.11667,415.585 1548.18417,416.0525 1545.1525,416.9875 C1542.12083,417.9225 1539.52833,419.155 1537.375,420.685 L1537.375,420.685 L1539.67,425.7 C1544.37333,422.753333 1549.105,421.28 1553.865,421.28 C1557.03833,421.28 1559.33333,422.059167 1560.75,423.6175 C1562.16667,425.175833 1562.875,427.683333 1562.875,431.14 L1562.875,431.14 L1562.875,433.945 L1561.005,433.945 C1554.545,433.945 1549.50167,434.3275 1545.875,435.0925 C1542.24833,435.8575 1539.64167,437.104167 1538.055,438.8325 C1536.46833,440.560833 1535.675,442.983333 1535.675,446.1 C1535.675,448.423333 1536.32667,450.548333 1537.63,452.475 C1538.93333,454.401667 1540.70417,455.903333 1542.9425,456.98 C1545.18083,458.056667 1547.63167,458.595 1550.295,458.595 Z M1551.23,453.155 C1548.79333,453.155 1546.7675,452.4325 1545.1525,450.9875 C1543.5375,449.5425 1542.73,447.715 1542.73,445.505 C1542.73,443.578333 1543.2825,442.119167 1544.3875,441.1275 C1545.4925,440.135833 1547.34833,439.4275 1549.955,439.0025 C1552.56167,438.5775 1556.35833,438.365 1561.345,438.365 L1561.345,438.365 L1562.875,438.365 L1562.875,440.83 C1562.875,444.456667 1561.78417,447.4175 1559.6025,449.7125 C1557.42083,452.0075 1554.63,453.155 1551.23,453.155 Z M1589.055,458 L1589.055,398.075 L1582.17,398.075 L1582.17,458 L1589.055,458 Z M1631.81,458 L1631.81,398.075 L1624.84,398.075 L1624.84,458 L1631.81,458 Z M1652.465,458 L1652.465,434.37 C1652.465,430.346667 1653.45667,427.173333 1655.44,424.85 C1657.42333,422.526667 1660.14333,421.365 1663.6,421.365 C1666.54667,421.365 1668.7,422.229167 1670.06,423.9575 C1671.42,425.685833 1672.1,428.476667 1672.1,432.33 L1672.1,432.33 L1672.1,458 L1678.985,458 L1678.985,434.37 C1678.985,430.346667 1679.97667,427.173333 1681.96,424.85 C1683.94333,422.526667 1686.66333,421.365 1690.12,421.365 C1693.06667,421.365 1695.20583,422.243333 1696.5375,424 C1697.86917,425.756667 1698.535,428.533333 1698.535,432.33 L1698.535,432.33 L1698.535,458 L1705.42,458 L1705.42,431.99 C1705.42,421.053333 1700.83,415.585 1691.65,415.585 C1688.53333,415.585 1685.75667,416.3075 1683.32,417.7525 C1680.88333,419.1975 1679.07,421.195 1677.88,423.745 C1675.84,418.305 1671.61833,415.585 1665.215,415.585 C1662.325,415.585 1659.775,416.236667 1657.565,417.54 C1655.355,418.843333 1653.62667,420.713333 1652.38,423.15 L1652.38,423.15 L1652.38,416.605 L1645.58,416.605 L1645.58,458 L1652.465,458 Z M1731.175,458.595 C1734.065,458.595 1736.615,457.929167 1738.825,456.5975 C1741.035,455.265833 1742.67833,453.381667 1743.755,450.945 L1743.755,450.945 L1743.755,458 L1750.47,458 L1750.47,431.905 C1750.47,426.408333 1749.18083,422.314167 1746.6025,419.6225 C1744.02417,416.930833 1740.1,415.585 1734.83,415.585 C1731.99667,415.585 1729.06417,416.0525 1726.0325,416.9875 C1723.00083,417.9225 1720.40833,419.155 1718.255,420.685 L1718.255,420.685 L1720.55,425.7 C1725.25333,422.753333 1729.985,421.28 1734.745,421.28 C1737.91833,421.28 1740.21333,422.059167 1741.63,423.6175 C1743.04667,425.175833 1743.755,427.683333 1743.755,431.14 L1743.755,431.14 L1743.755,433.945 L1741.885,433.945 C1735.425,433.945 1730.38167,434.3275 1726.755,435.0925 C1723.12833,435.8575 1720.52167,437.104167 1718.935,438.8325 C1717.34833,440.560833 1716.555,442.983333 1716.555,446.1 C1716.555,448.423333 1717.20667,450.548333 1718.51,452.475 C1719.81333,454.401667 1721.58417,455.903333 1723.8225,456.98 C1726.06083,458.056667 1728.51167,458.595 1731.175,458.595 Z M1732.11,453.155 C1729.67333,453.155 1727.6475,452.4325 1726.0325,450.9875 C1724.4175,449.5425 1723.61,447.715 1723.61,445.505 C1723.61,443.578333 1724.1625,442.119167 1725.2675,441.1275 C1726.3725,440.135833 1728.22833,439.4275 1730.835,439.0025 C1733.44167,438.5775 1737.23833,438.365 1742.225,438.365 L1742.225,438.365 L1743.755,438.365 L1743.755,440.83 C1743.755,444.456667 1742.66417,447.4175 1740.4825,449.7125 C1738.30083,452.0075 1735.51,453.155 1732.11,453.155 Z M1781.24,473.895 C1787.47333,473.895 1792.17667,472.3225 1795.35,469.1775 C1798.52333,466.0325 1800.11,461.371667 1800.11,455.195 L1800.11,455.195 L1800.11,416.605 L1793.225,416.605 L1793.225,423.745 C1791.97833,421.138333 1790.13667,419.126667 1787.7,417.71 C1785.26333,416.293333 1782.40167,415.585 1779.115,415.585 C1775.48833,415.585 1772.2725,416.435 1769.4675,418.135 C1766.6625,419.835 1764.48083,422.243333 1762.9225,425.36 C1761.36417,428.476667 1760.585,432.075 1760.585,436.155 C1760.585,440.235 1761.36417,443.833333 1762.9225,446.95 C1764.48083,450.066667 1766.6625,452.475 1769.4675,454.175 C1772.2725,455.875 1775.48833,456.725 1779.115,456.725 C1782.45833,456.725 1785.3625,456.016667 1787.8275,454.6 C1790.2925,453.183333 1792.12,451.143333 1793.31,448.48 L1793.31,448.48 L1793.31,455.79 C1793.31,459.87 1792.29,462.9725 1790.25,465.0975 C1788.21,467.2225 1785.20667,468.285 1781.24,468.285 C1778.23667,468.285 1775.51667,467.888333 1773.08,467.095 C1770.64333,466.301667 1768.03667,464.998333 1765.26,463.185 L1765.26,463.185 L1762.965,468.285 C1767.895,472.025 1773.98667,473.895 1781.24,473.895 Z M1780.475,451.03 C1776.45167,451.03 1773.2925,449.7125 1770.9975,447.0775 C1768.7025,444.4425 1767.555,440.801667 1767.555,436.155 C1767.555,431.565 1768.7025,427.9525 1770.9975,425.3175 C1773.2925,422.6825 1776.45167,421.365 1780.475,421.365 C1784.49833,421.365 1787.62917,422.6825 1789.8675,425.3175 C1792.10583,427.9525 1793.225,431.565 1793.225,436.155 C1793.225,440.801667 1792.09167,444.4425 1789.825,447.0775 C1787.55833,449.7125 1784.44167,451.03 1780.475,451.03 Z M1820.51,406.405 L1820.51,398.67 L1812.18,398.67 L1812.18,406.405 L1820.51,406.405 Z M1819.745,458 L1819.745,416.605 L1812.86,416.605 L1812.86,458 L1819.745,458 Z M1839.465,458 L1839.465,434.285 C1839.465,430.318333 1840.59833,427.173333 1842.865,424.85 C1845.13167,422.526667 1848.16333,421.365 1851.96,421.365 C1855.24667,421.365 1857.64083,422.243333 1859.1425,424 C1860.64417,425.756667 1861.395,428.561667 1861.395,432.415 L1861.395,432.415 L1861.395,458 L1868.28,458 L1868.28,431.99 C1868.28,421.053333 1863.32167,415.585 1853.405,415.585 C1850.28833,415.585 1847.51167,416.250833 1845.075,417.5825 C1842.63833,418.914167 1840.74,420.855 1839.38,423.405 L1839.38,423.405 L1839.38,416.605 L1832.58,416.605 L1832.58,458 L1839.465,458 Z M1899.05,473.895 C1905.28333,473.895 1909.98667,472.3225 1913.16,469.1775 C1916.33333,466.0325 1917.92,461.371667 1917.92,455.195 L1917.92,455.195 L1917.92,416.605 L1911.035,416.605 L1911.035,423.745 C1909.78833,421.138333 1907.94667,419.126667 1905.51,417.71 C1903.07333,416.293333 1900.21167,415.585 1896.925,415.585 C1893.29833,415.585 1890.0825,416.435 1887.2775,418.135 C1884.4725,419.835 1882.29083,422.243333 1880.7325,425.36 C1879.17417,428.476667 1878.395,432.075 1878.395,436.155 C1878.395,440.235 1879.17417,443.833333 1880.7325,446.95 C1882.29083,450.066667 1884.4725,452.475 1887.2775,454.175 C1890.0825,455.875 1893.29833,456.725 1896.925,456.725 C1900.26833,456.725 1903.1725,456.016667 1905.6375,454.6 C1908.1025,453.183333 1909.93,451.143333 1911.12,448.48 L1911.12,448.48 L1911.12,455.79 C1911.12,459.87 1910.1,462.9725 1908.06,465.0975 C1906.02,467.2225 1903.01667,468.285 1899.05,468.285 C1896.04667,468.285 1893.32667,467.888333 1890.89,467.095 C1888.45333,466.301667 1885.84667,464.998333 1883.07,463.185 L1883.07,463.185 L1880.775,468.285 C1885.705,472.025 1891.79667,473.895 1899.05,473.895 Z M1898.285,451.03 C1894.26167,451.03 1891.1025,449.7125 1888.8075,447.0775 C1886.5125,444.4425 1885.365,440.801667 1885.365,436.155 C1885.365,431.565 1886.5125,427.9525 1888.8075,425.3175 C1891.1025,422.6825 1894.26167,421.365 1898.285,421.365 C1902.30833,421.365 1905.43917,422.6825 1907.6775,425.3175 C1909.91583,427.9525 1911.035,431.565 1911.035,436.155 C1911.035,440.801667 1909.90167,444.4425 1907.635,447.0775 C1905.36833,449.7125 1902.25167,451.03 1898.285,451.03 Z" id="biline" fill="#005295"></path>
            <g id="lettering" transform="translate(666.000000, 77.000000)">
                <path d="M1553.13492,66.8123077 C1553.17585,93.8856344 1536.92771,118.315996 1511.97126,128.704989 C1487.01481,139.093981 1458.26832,133.394207 1439.14395,114.264993 C1420.01958,95.1357799 1414.28625,66.3469921 1424.61894,41.3305334 C1434.95163,16.3140747 1459.31403,-3.60737081e-14 1486.33946,-3.60737081e-14 C1523.18998,-3.60737081e-14 1553.07892,29.8964704 1553.13492,66.8123077 Z M1486.33946,13.8092308 C1457.23045,13.8092308 1433.63294,37.448596 1433.63294,66.6092308 C1433.63294,95.7698656 1457.23045,119.409231 1486.33946,119.409231 C1515.44847,119.409231 1539.04598,95.7698656 1539.04598,66.6092308 C1539.04598,37.448596 1515.44847,13.8092308 1486.33946,13.8092308 Z" id="Shape" fill="#49A942"></path>
                <path d="M1525.86935,66.8123077 C1525.86935,88.6827838 1508.17122,106.412308 1486.33946,106.412308 C1464.5077,106.412308 1446.80957,88.6827838 1446.80957,66.8123077 C1446.80957,44.9418316 1464.5077,27.2123077 1486.33946,27.2123077 C1508.17122,27.2123077 1525.86935,44.9418316 1525.86935,66.8123077 L1525.86935,66.8123077 Z M1486.33946,39.8030769 C1471.50506,39.8030769 1459.47941,51.8500611 1459.47941,66.7107692 C1459.47941,81.5714773 1471.50506,93.6184615 1486.33946,93.6184615 C1501.17386,93.6184615 1513.19952,81.5714773 1513.19952,66.7107692 C1513.19952,51.8500611 1501.17386,39.8030769 1486.33946,39.8030769 L1486.33946,39.8030769 Z" id="Shape" fill="#49A942"></path>
                <path d="M182.562559,271.513846 C182.562559,273.138462 182.562559,274.153846 181.143537,274.56 C175.974244,278.215385 171.007668,281.667692 166.345168,284.713846 C161.303464,287.927808 155.892139,290.51894 150.229135,292.430769 C143.399398,294.674058 136.374991,296.271801 129.247885,297.203077 C119.696097,298.348792 110.08182,298.891402 100.462015,298.827692 C85.8340224,299.081006 71.2789486,296.708173 57.4859285,291.821538 C45.6052051,287.537501 34.8581846,280.591642 26.0647329,271.513846 C17.2919392,262.272045 10.6489593,251.215436 6.60386329,239.123077 C2.09093242,225.155515 -0.133979409,210.547924 0.0155480762,195.867692 C-0.229266419,180.581712 2.41896815,165.387651 7.82016764,151.089231 C12.5849356,138.648214 19.9851014,127.389713 29.5109285,118.089231 C38.9630966,109.099893 50.182335,102.183502 62.4525046,97.7815385 C75.7839073,93.0088986 89.8531327,90.6369516 104.00957,90.7753846 C113.168537,90.7545694 122.282845,92.0540375 131.072342,94.6338462 C139.200975,97.1063014 147.129874,100.195231 154.790276,103.873846 C157.996654,105.503446 161.405169,106.698542 164.926146,107.427692 C167.662831,107.427692 169.791363,106.006154 171.109026,102.046154 C171.387085,101.062632 172.15442,100.293936 173.1362,100.015385 C174.175504,99.6418929 175.276179,99.4696074 176.379679,99.5076923 C177.353512,99.5798891 178.294055,99.8939596 179.116363,100.421538 C179.858701,100.746168 180.248112,101.569715 180.028592,102.350769 C178.213216,110.612934 177.564948,119.089538 178.102776,127.532308 C178.60957,136.772308 179.319081,146.316923 180.332668,155.963077 C180.262059,157.03168 179.700401,158.006948 178.812287,158.603077 C177.898332,159.41038 176.772884,159.93887 175.568809,160.126154 C174.362158,160.299607 173.131159,160.123438 172.021255,159.618462 C170.941195,159.196094 170.168331,158.228301 169.994081,157.08 C168.116907,141.533762 160.217887,127.348653 147.999244,117.581538 C134.718395,108.02431 118.624888,103.198419 102.286472,103.873846 C91.9439231,103.612191 81.7431823,106.325467 72.8924503,111.692308 C64.7332778,116.894029 57.8132234,123.826357 52.6207111,132 C47.2741059,140.686697 43.3716497,150.185799 41.0658198,160.126154 C38.7095582,170.11017 37.485509,180.328671 37.4169068,190.587692 C37.2784096,203.808776 38.7074344,216.999571 41.673972,229.883077 C44.035107,240.734056 48.3638567,251.058882 54.4451676,260.344615 C59.5792132,268.321861 66.5259935,274.967802 74.7169068,279.738462 C83.3233641,284.420048 93.0024069,286.76534 102.793265,286.541538 C109.820872,286.612343 116.841244,286.068743 123.774515,284.916923 C129.461229,284.016923 134.928256,282.053569 139.890548,279.129231 C144.274533,276.374724 147.789066,272.431466 150.026418,267.756923 C152.671643,261.968527 153.921565,255.638271 153.675331,249.276923 C153.766078,244.614404 153.392583,239.954436 152.560385,235.366154 C151.938448,232.381256 150.374904,229.6758 148.100602,227.649231 C145.529762,225.681151 142.48974,224.42098 139.282396,223.993846 C135.532124,223.283077 130.666907,222.572308 124.788102,222.064615 C123.594168,222.182257 122.442787,221.585659 121.8487,220.541538 C121.274825,219.665198 120.958701,218.644767 120.936472,217.596923 C120.895964,216.503759 121.140501,215.418888 121.645983,214.449231 C122.176294,213.567573 123.154907,213.057792 124.17995,213.129231 C131.072342,213.129231 138.16745,213.129231 145.566635,213.84 C152.96582,214.550769 159.554135,214.652308 165.230222,214.652308 C167.966907,214.652308 170.602233,214.652308 173.034842,214.652308 L180.738102,214.144615 L189.353592,214.144615 C192.394352,214.144615 195.840548,214.144615 199.489461,214.144615 C200.418043,214.142076 201.273635,214.64855 201.719352,215.464615 C202.224834,216.434272 202.469372,217.519144 202.428863,218.612308 C202.408861,219.614347 202.129453,220.59401 201.617994,221.455385 C200.956961,222.339099 199.972523,222.923504 198.881309,223.08 C195.421653,223.256099 192.006579,223.940325 188.745439,225.110769 C186.627189,225.917597 184.817848,227.374745 183.576146,229.273846 C182.396966,231.279463 181.7351,233.547758 181.650331,235.873846 C181.650331,238.615385 181.650331,241.763077 181.650331,245.52 L182.562559,271.513846 Z" id="Path" fill="#49A942"></path>
                <path d="M255.236744,259.430769 C255.236744,264.304615 255.236744,268.467692 255.236744,271.818462 C255.421492,274.830813 256.478113,277.724034 258.277505,280.144615 C260.527951,282.571944 263.404318,284.328937 266.588918,285.221538 C271.897117,286.623219 277.328196,287.507334 282.806309,287.861538 C283.909591,287.982776 284.907038,288.574904 285.542994,289.486154 C286.07103,290.41448 286.350368,291.463856 286.353863,292.532308 C286.333861,293.534347 286.054453,294.51401 285.542994,295.375385 C284.931168,296.272975 283.888286,296.775994 282.806309,296.695385 C275.326826,296.75696 267.849404,296.418015 260.406037,295.68 C254.212267,295.004014 247.986457,294.665054 241.756037,294.664615 C235.4914,294.645785 229.230787,294.984797 223.004679,295.68 C216.77857,296.375203 210.517957,296.714215 204.25332,296.695385 C203.294354,296.713152 202.401471,296.207584 201.92207,295.375385 C201.33456,294.543625 201.016137,293.551218 201.009842,292.532308 C201.00064,291.448047 201.318603,290.386289 201.92207,289.486154 C202.516465,288.579825 203.481884,287.984667 204.557396,287.861538 C208.932996,287.464495 213.250624,286.579004 217.42995,285.221538 C220.104516,284.318842 222.415729,282.573453 224.018265,280.246154 C225.505804,277.96978 226.378858,275.345974 226.552233,272.630769 C226.552233,269.483077 226.552233,265.726154 226.552233,261.156923 L226.552233,218.003077 C226.552233,208.356923 226.552233,200.741538 226.552233,195.055385 C226.374928,190.589801 225.414252,186.190352 223.714189,182.058462 C222.425911,178.984427 219.877096,176.616116 216.720439,175.56 C212.495412,174.352128 208.137982,173.670072 203.746526,173.529231 C202.755615,173.547992 201.861184,172.937071 201.516635,172.006154 C201.055441,171.092995 200.81254,170.084908 200.806073,169.061538 C200.787918,168.035319 201.032232,167.021367 201.516635,166.116923 C201.970964,165.13795 202.97453,164.534742 204.050602,164.593846 L220.470711,163.273846 C227.697472,162.72352 234.857319,161.499768 241.857396,159.618462 C244.068043,158.924289 246.437781,158.924289 248.648429,159.618462 C250.472885,159.618462 251.182396,161.852308 251.081037,164.593846 L250.472885,183.581538 C250.472885,183.581538 250.472885,184.190769 250.472885,184.292308 C250.472885,184.393846 250.472885,184.292308 251.283755,184.292308 C254.86126,176.495026 260.082771,169.566852 266.588918,163.984615 C273.487327,158.781063 281.98545,156.158855 290.610929,156.572308 C297.355788,155.996205 304.02675,158.322261 308.956852,162.969231 C312.874314,167.17501 314.985565,172.754223 314.835657,178.504615 C314.770923,181.963108 313.393692,185.267062 310.984026,187.744615 C308.085687,190.608923 304.098859,192.088145 300.037287,191.806154 C296.566397,192.206411 293.101099,191.011935 290.610929,188.556923 C288.916813,186.576955 287.982486,184.056997 287.975602,181.449231 C288.057161,179.173258 287.494977,176.920532 286.353863,174.950769 C284.513605,173.122516 281.92733,172.258896 279.360113,172.615385 C275.658536,172.607775 272.071609,173.901359 269.224244,176.270769 C266.179008,178.780868 263.515633,181.722618 261.318265,185.003077 C259.537256,188.448845 258.176049,192.096534 257.263918,195.867692 C256.227724,198.531289 255.612187,201.340372 255.439461,204.193846 L255.236744,259.430769 Z" id="Path" fill="#49A942"></path>
                <path d="M344.736472,219.729231 C343.722885,219.729231 343.216092,219.729231 343.114733,220.846154 C343.047043,221.657046 343.047043,222.472184 343.114733,223.283077 C342.898679,232.108311 344.061455,240.913117 346.560929,249.378462 C348.405328,255.753565 351.623044,261.645844 355.987287,266.64 C359.845041,271.240708 364.844057,274.742723 370.481581,276.793846 C376.3232,278.781604 382.455488,279.776865 388.624787,279.738462 C395.180183,279.765288 401.72552,279.221707 408.187015,278.113846 C414.129602,277.174458 419.721833,274.688505 424.404407,270.904615 C425.225677,270.151112 426.345481,269.814575 427.445168,269.990769 C428.505361,270.167315 429.472118,270.705355 430.181852,271.513846 C430.837654,272.26753 431.291116,273.176064 431.499515,274.153846 C431.720118,275.080697 431.495087,276.057562 430.891363,276.793846 C425.498205,284.358042 418.135515,290.293764 409.606037,293.953846 C400.260696,297.365351 390.357881,298.984302 380.414733,298.726154 C370.034914,298.932434 359.712122,297.139976 350.007124,293.446154 C341.62269,290.060052 334.15573,284.736931 328.215005,277.910769 C322.566657,271.366721 318.322948,263.728322 315.747885,255.470769 C313.045791,246.378266 311.713452,236.932681 311.794896,227.446154 C311.742753,218.054628 313.391163,208.731475 316.660113,199.929231 C322.776183,183.258042 335.294677,169.730176 351.426146,162.36 C359.851752,158.504693 369.023944,156.562981 378.2862,156.673846 C386.036109,156.601166 393.721904,158.085809 400.889189,161.04 C407.401891,163.697176 413.27562,167.712241 418.120168,172.818462 C422.967096,178.065101 426.753354,184.20282 429.269624,190.892308 C431.950004,198.136613 433.289567,205.809752 433.222613,213.535385 C433.222613,217.698462 431.803592,219.729231 428.762831,219.729231 L344.736472,219.729231 Z M398.760657,209.575385 C401.497342,209.575385 403.119081,208.56 403.524515,206.630769 C403.913485,204.281244 404.116833,201.904642 404.132668,199.523077 C404.110685,195.453695 403.461081,191.412156 402.206852,187.541538 C400.94678,183.880809 399.097955,180.450988 396.733483,177.387692 C394.371431,174.485368 391.438875,172.100601 388.117994,170.381538 C384.592477,168.513521 380.65214,167.570355 376.664461,167.64 C371.91532,167.545313 367.205246,168.516754 362.879679,170.483077 C359.009414,172.196888 355.55256,174.724866 352.743809,177.895385 C350.057648,181.067071 347.994243,184.718885 346.662287,188.658462 C345.25569,192.91738 344.271139,197.304701 343.722885,201.756923 C343.500459,203.645759 343.500459,205.554241 343.722885,207.443077 C343.722885,208.966154 343.722885,209.676923 345.040548,209.676923 L398.760657,209.575385 Z" id="Shape" fill="#49A942"></path>
                <path d="M476.806852,219.729231 C475.793265,219.729231 475.286472,219.729231 475.185113,220.846154 C475.117423,221.657046 475.117423,222.472184 475.185113,223.283077 C474.969059,232.108311 476.131835,240.913117 478.631309,249.378462 C480.475709,255.753565 483.693425,261.645844 488.057668,266.64 C491.915422,271.240708 496.914437,274.742723 502.551961,276.793846 C508.393581,278.781604 514.525869,279.776865 520.695168,279.738462 C527.217071,279.768165 533.728999,279.224542 540.156037,278.113846 C546.135577,277.196204 551.765958,274.708837 556.474787,270.904615 C557.319497,270.120304 558.484262,269.781546 559.616907,269.990769 C560.619309,270.170307 561.52102,270.712293 562.150874,271.513846 C562.873411,272.234408 563.367117,273.152918 563.569896,274.153846 C563.790499,275.080697 563.565468,276.057562 562.961744,276.793846 C557.568586,284.358042 550.205895,290.293764 541.676418,293.953846 C532.297985,297.37324 522.360495,298.992238 512.383755,298.726154 C502.003936,298.932434 491.681144,297.139976 481.976146,293.446154 C473.824976,290.137592 466.542276,284.995919 460.69082,278.418462 C455.042472,271.874413 450.798763,264.236014 448.2237,255.978462 C445.521606,246.885958 444.189267,237.440373 444.270711,227.953846 C444.218568,218.562321 445.866978,209.239167 449.135929,200.436923 C455.251998,183.765734 467.770492,170.237869 483.901961,162.867692 C492.327567,159.012386 501.499759,157.070673 510.762015,157.181538 C518.511924,157.108858 526.19772,158.593501 533.365005,161.547692 C539.898096,164.222047 545.801587,168.233857 550.697342,173.326154 C555.312367,178.461711 558.922608,184.420563 561.340005,190.892308 C564.020384,198.136613 565.359948,205.809752 565.292994,213.535385 C565.292994,217.698462 563.873972,219.729231 560.833211,219.729231 L476.806852,219.729231 Z M530.831037,209.575385 C533.567722,209.575385 535.189461,208.56 535.594896,206.630769 C536.034393,204.287876 536.238131,201.90672 536.203048,199.523077 C536.181066,195.453695 535.531462,191.412156 534.277233,187.541538 C533.01716,183.880809 531.168336,180.450988 528.803863,177.387692 C526.441811,174.485368 523.509256,172.100601 520.188374,170.381538 C516.662857,168.513521 512.72252,167.570355 508.734842,167.64 C503.9857,167.545313 499.275626,168.516754 494.950059,170.483077 C491.079794,172.196888 487.622941,174.724866 484.814189,177.895385 C482.128028,181.067071 480.064624,184.718885 478.732668,188.658462 C477.32607,192.91738 476.341519,197.304701 475.793265,201.756923 C475.57983,203.646278 475.57983,205.553722 475.793265,207.443077 C475.793265,208.966154 476.401418,209.676923 477.212287,209.676923 L530.831037,209.575385 Z" id="Shape" fill="#49A942"></path>
                <path d="M620.938918,259.430769 C620.938918,264.304615 620.938918,268.467692 620.938918,271.818462 C621.026151,274.663477 621.573855,277.475437 622.560657,280.144615 C623.424482,282.297715 624.998422,284.089455 627.020439,285.221538 C629.761942,286.574287 632.706851,287.466187 635.737287,287.861538 C636.803803,288.010238 637.759485,288.599393 638.372613,289.486154 C638.97608,290.386289 639.294043,291.448047 639.284842,292.532308 C639.278546,293.551218 638.960123,294.543625 638.372613,295.375385 C637.793611,296.256505 636.788337,296.760034 635.737287,296.695385 C632.004809,296.565462 628.282508,296.226471 624.587831,295.68 C618.973644,294.972409 613.319288,294.633224 607.660929,294.664615 C601.530902,294.637146 595.404702,294.97621 589.315005,295.68 C583.832969,296.347989 578.315971,296.687055 572.793537,296.695385 C571.804014,296.728594 570.873747,296.223806 570.360929,295.375385 C569.849469,294.51401 569.570061,293.534347 569.550059,292.532308 C569.553554,291.463856 569.832893,290.41448 570.360929,289.486154 C570.996884,288.574904 571.994331,287.982776 573.097613,287.861538 C576.961547,287.482288 580.77,286.664743 584.449787,285.424615 C586.847623,284.68054 588.921034,283.14063 590.328592,281.058462 C591.725766,278.722712 592.494095,276.063779 592.558483,273.341538 C592.558483,270.16 592.558483,266.098462 592.558483,261.156923 L592.558483,223.892308 C592.558483,213.738462 592.558483,206.224615 592.558483,199.726154 C592.515386,194.584694 591.83444,189.468542 590.531309,184.495385 C589.713211,181.255036 587.680412,178.454979 584.855222,176.676923 C581.498518,174.991498 577.758035,174.221063 574.009842,174.443077 C572.950732,174.47772 571.92416,174.073708 571.171798,173.326154 C570.497244,172.575269 570.134647,171.594521 570.158211,170.584615 C570.123209,169.511624 570.484051,168.463325 571.171798,167.64 C571.89299,166.845879 572.941927,166.433066 574.009842,166.523077 C579.488001,166.331759 584.943514,165.720744 590.328592,164.695385 C597.754861,163.489019 605.100267,161.827437 612.323429,159.72 C614.538805,158.712599 617.155564,159.389089 618.607668,161.344615 C619.965899,163.157576 620.679509,165.373689 620.634842,167.64 L620.634842,179.52 C620.5081,179.739913 620.5081,180.010856 620.634842,180.230769 C620.865697,180.437619 621.214856,180.437619 621.445711,180.230769 C623.084977,177.579738 625.023564,175.126653 627.223157,172.92 C632.826909,166.908793 639.774429,162.315298 647.494896,159.516923 C652.142883,157.846305 657.051436,157.021031 661.989189,157.08 C674.721404,156.351542 687.211858,160.778517 696.653863,169.366154 C706.019019,180.399159 710.549856,194.747852 709.222342,209.169231 L709.222342,259.938462 C709.222342,265.218462 709.222342,270.092308 709.222342,272.935385 C709.3996,275.744001 710.086558,278.496707 711.249515,281.058462 C712.324048,283.19826 714.11912,284.88862 716.31745,285.830769 C719.382244,287.154893 722.62811,288.010583 725.946526,288.369231 C727.013042,288.51793 727.968724,289.107085 728.581852,289.993846 C729.109888,290.922172 729.389227,291.971549 729.392722,293.04 C729.37272,294.04204 729.093311,295.021703 728.581852,295.883077 C728.00285,296.764198 726.997576,297.267726 725.946526,297.203077 C721.70786,297.097534 717.478195,296.758561 713.276689,296.187692 C707.457712,295.492437 701.601824,295.153346 695.741635,295.172308 C689.71264,295.14177 683.68743,295.480865 677.699787,296.187692 C672.994636,296.814018 668.255816,297.153106 663.50957,297.203077 C662.555991,297.200003 661.672766,296.699903 661.17832,295.883077 C660.59081,295.051317 660.272387,294.05891 660.266092,293.04 C660.25689,291.955739 660.574853,290.893981 661.17832,289.993846 C661.791448,289.107085 662.74713,288.51793 663.813646,288.369231 C667.30939,288.026183 670.729676,287.135332 673.949515,285.729231 C676.092628,284.644211 677.832993,282.90076 678.916092,280.753846 C680.139706,278.394476 680.831698,275.794903 680.943265,273.138462 C680.943265,269.990769 680.943265,266.233846 680.943265,261.664615 L680.943265,216.175385 C680.943265,211.301538 680.943265,206.021538 680.335113,201.452308 C680.016946,196.822124 678.884593,192.284679 676.990276,188.049231 C675.351606,184.076571 672.736548,180.583643 669.388374,177.895385 C665.297606,175.139547 660.425576,173.785784 655.502233,174.036923 C650.191863,173.894446 644.910177,174.862744 639.994352,176.88 C635.781742,178.608552 631.956533,181.163214 628.743537,184.393846 C625.67709,187.600764 623.297155,191.401592 621.749787,195.563077 C620.188447,199.857732 619.399161,204.395582 619.418537,208.966154 L620.938918,259.430769 Z" id="Path" fill="#49A942"></path>
                <path d="M819.804679,140.732308 C819.832666,135.502656 819.49397,130.277493 818.791092,125.095385 C818.231902,121.350817 816.846897,117.778106 814.736744,114.636923 C812.627791,111.716033 809.699431,109.489359 806.323972,108.24 C801.640025,106.522978 796.713248,105.563295 791.72832,105.396923 C790.59157,105.483412 789.528191,104.827864 789.092994,103.772308 C788.500264,102.755099 788.185621,101.599361 788.180765,100.421538 C788.155827,99.2717216 788.473411,98.1405316 789.092994,97.1723077 C789.582835,96.1771624 790.62315,95.5759163 791.72832,95.6492308 C798.012559,95.6492308 805.209026,95.9538462 813.317722,96.5630769 C821.325059,97.1723077 828.926961,97.4769231 836.02207,97.4769231 C840.177776,97.4769231 844.029407,97.4769231 847.67832,97.4769231 L858.320983,96.8676923 L868.456852,96.2584615 C872.004407,96.2584615 875.856037,96.2584615 879.910385,96.2584615 C880.986458,96.1993578 881.990023,96.802565 882.444352,97.7815385 C882.963818,98.7803778 883.175482,99.9112582 883.052505,101.030769 C882.965058,102.208833 882.618952,103.353008 882.038918,104.381538 C881.629732,105.365326 880.670192,106.006154 879.606309,106.006154 C874.617303,106.202251 869.675807,107.055744 864.909298,108.544615 C861.504836,109.580938 858.498425,111.63601 856.293809,114.433846 C854.241202,117.473405 852.922574,120.949634 852.442179,124.587692 C851.767138,130.077807 851.462371,135.60727 851.52995,141.138462 L851.52995,256.790769 C851.409114,261.896151 851.816725,267.000335 852.746255,272.021538 C853.311176,275.208922 854.831383,278.148478 857.104679,280.449231 C859.581208,282.620234 862.589717,284.092112 865.821526,284.713846 C870.564068,285.779204 875.372452,286.525487 880.214461,286.947692 C881.404197,287.124742 882.448744,287.834799 883.052505,288.876923 C883.710369,289.870435 884.062787,291.035478 884.066092,292.227692 C884.103401,293.394248 883.74623,294.539221 883.052505,295.476923 C882.344156,296.5014 881.151887,297.079328 879.910385,297 C872.359282,297.015885 864.813192,296.609097 857.307396,295.781538 C850.110929,295.070769 843.01582,294.664615 835.920711,294.664615 C828.825602,294.664615 820.716907,294.664615 812.70957,295.781538 C805.504199,296.550727 798.264851,296.957392 791.018809,297 C789.913639,297.073314 788.873325,296.472068 788.383483,295.476923 C787.7639,294.508699 787.446317,293.377509 787.471255,292.227692 C787.485364,291.051149 787.799374,289.897736 788.383483,288.876923 C788.851398,287.805654 789.857831,287.068879 791.018809,286.947692 C795.929442,286.539568 800.806194,285.793187 805.614461,284.713846 C808.794176,284.028 811.754403,282.562705 814.22995,280.449231 C816.439822,278.129666 817.889742,275.189258 818.385657,272.021538 C819.127589,266.979727 819.466528,261.886624 819.399244,256.790769 L819.804679,140.732308 Z" id="Path" fill="#005295"></path>
                <path d="M942.854135,259.430769 C942.854135,264.304615 942.854135,268.467692 942.854135,271.818462 C942.911691,274.709251 943.603794,277.551905 944.881309,280.144615 C946.225405,282.404164 948.247317,284.180917 950.658755,285.221538 C954.212767,286.57394 957.926128,287.461267 961.706852,287.861538 C962.792251,287.955349 963.769453,288.557772 964.342179,289.486154 C964.945645,290.386289 965.263609,291.448047 965.254407,292.532308 C965.248112,293.551218 964.929688,294.543625 964.342179,295.375385 C963.795316,296.291977 962.766946,296.807074 961.706852,296.695385 C956.825838,296.647234 951.952007,296.308173 947.1112,295.68 C941.292223,294.984745 935.436334,294.645654 929.576146,294.664615 C923.446119,294.637146 917.319919,294.97621 911.230222,295.68 C905.849409,296.341421 900.43398,296.680486 895.012831,296.695385 C894.023307,296.728594 893.093041,296.223806 892.580222,295.375385 C891.992712,294.543625 891.674289,293.551218 891.6678,292.532308 C891.658792,291.448047 891.976755,290.386289 892.580222,289.486154 C893.19335,288.599393 894.149032,288.010238 895.215548,287.861538 C899.130883,287.478909 902.980535,286.591577 906.669081,285.221538 C909.073316,284.219556 911.096799,282.476985 912.446526,280.246154 C913.67014,277.886784 914.362133,275.287211 914.4737,272.630769 C914.4737,269.483077 914.4737,265.726154 914.4737,261.156923 L914.4737,217.393846 C914.4737,208.187692 914.4737,200.775385 914.4737,195.156923 C914.456328,190.846668 913.772494,186.565124 912.446526,182.464615 C911.481538,179.765583 909.472131,177.569615 906.871798,176.372308 C903.425473,175.123928 899.792375,174.471557 896.127776,174.443077 C895.216752,174.467331 894.349522,174.051833 893.796526,173.326154 C893.189486,172.516131 892.773632,171.5788 892.580222,170.584615 C892.245214,169.701581 892.245214,168.726111 892.580222,167.843077 C893.03809,166.939034 894.006822,166.413374 895.012831,166.523077 C898.357668,166.523077 903.222885,165.304615 909.709842,164.086154 C916.196798,162.867692 922.987831,161.344615 930.488374,159.415385 C931.232397,159.119196 932.020002,158.947674 932.819624,158.907692 L936.367179,158.907692 C938.312413,158.92308 940.157666,159.773402 941.435113,161.243077 C942.759686,162.783595 943.38403,164.807113 943.158211,166.827692 L942.550059,181.347692 C942.550059,182.363077 942.955494,182.363077 943.766363,181.347692 C944.678592,180.027692 946.300331,177.895385 948.631581,175.153846 C951.251846,172.057724 954.209642,169.264971 957.449787,166.827692 C961.534161,163.840772 965.999962,161.416083 970.727776,159.618462 C976.460639,157.461207 982.544779,156.393733 988.668265,156.470769 C998.811056,155.953065 1008.87516,158.500085 1017.55549,163.781538 C1025.03194,169.323371 1030.70879,176.95303 1033.87424,185.713846 C1035.35676,182.76578 1037.23215,180.033107 1039.44897,177.590769 C1042.57326,173.994573 1046.15077,170.820307 1050.09164,168.147692 C1054.68497,164.94225 1059.65524,162.316292 1064.89,160.329231 C1070.59514,158.052072 1076.68953,156.913815 1082.83049,156.978462 C1090.76214,156.692514 1098.65745,158.184184 1105.94028,161.344615 C1111.53444,163.912836 1116.33216,167.947259 1119.82642,173.021538 C1123.3162,178.323987 1125.63181,184.313713 1126.61745,190.587692 C1127.83543,197.867511 1128.41202,205.240524 1128.34055,212.621538 L1128.34055,259.735385 C1128.34055,264.609231 1128.34055,268.772308 1128.34055,272.123077 C1128.43593,274.9868 1129.0543,277.808779 1130.165,280.449231 C1131.15126,282.588135 1132.78183,284.363639 1134.8275,285.526154 C1137.84845,286.893238 1141.06239,287.783775 1144.35522,288.166154 C1145.42174,288.314853 1146.37742,288.904008 1146.99055,289.790769 C1147.59401,290.690904 1147.91198,291.752662 1147.90297,292.836923 C1147.89648,293.855833 1147.57806,294.84824 1146.99055,295.68 C1146.41155,296.561121 1145.40627,297.064649 1144.35522,297 C1140.2843,296.904654 1136.22271,296.565587 1132.19218,295.984615 C1126.51005,295.27736 1120.78829,294.938193 1115.06256,294.969231 C1108.99987,294.93885 1102.94094,295.277938 1096.91935,295.984615 C1091.77512,296.634913 1086.59644,296.973989 1081.41147,297 C1080.44682,297.040859 1079.54281,296.528993 1079.08022,295.68 C1078.49271,294.84824 1078.17429,293.855833 1078.16799,292.836923 C1078.15879,291.752662 1078.47676,290.690904 1079.08022,289.790769 C1079.65295,288.862387 1080.63015,288.259965 1081.71555,288.166154 C1085.40317,287.797668 1089.02029,286.908877 1092.45957,285.526154 C1094.76261,284.488154 1096.67858,282.74651 1097.93294,280.550769 C1099.19993,278.208465 1099.89465,275.598662 1099.96011,272.935385 C1099.96011,269.787692 1099.96011,266.030769 1099.96011,261.461538 L1099.96011,222.978462 C1099.96011,217.698462 1099.96011,212.113846 1099.96011,206.427692 C1099.6397,201.061814 1098.58237,195.765804 1096.81799,190.689231 C1095.33588,186.257106 1092.75514,182.274312 1089.31745,179.113846 C1085.32721,175.779568 1080.21123,174.107565 1075.02587,174.443077 C1069.65055,174.430452 1064.35636,175.756347 1059.61935,178.301538 C1054.88696,180.950005 1050.63722,184.3833 1047.05087,188.455385 C1043.59136,192.287179 1040.75266,196.638431 1038.6381,201.350769 C1036.62682,205.571234 1035.55473,210.179011 1035.49598,214.855385 L1035.49598,259.836923 C1035.49598,265.523077 1035.49598,270.092308 1035.49598,273.544615 C1035.57797,276.36694 1036.16146,279.152033 1037.21908,281.769231 C1038.25622,283.708362 1039.94325,285.218595 1041.98294,286.033846 C1045.0594,287.153569 1048.25769,287.903432 1051.51066,288.267692 C1052.57717,288.416392 1053.53285,289.005547 1054.14598,289.892308 C1054.67402,290.820634 1054.95336,291.87001 1054.95685,292.938462 C1054.93685,293.940501 1054.65744,294.920164 1054.14598,295.781538 C1053.56698,296.662659 1052.56171,297.166187 1051.51066,297.101538 C1047.43973,297.006192 1043.37814,296.667126 1039.34761,296.086154 C1033.66521,295.381965 1027.94364,295.042811 1022.21799,295.070769 C1016.15522,295.037355 1010.09612,295.376453 1004.07479,296.086154 C999.200069,296.714771 994.292486,297.053825 989.377776,297.101538 C988.41881,297.119305 987.525927,296.613738 987.046526,295.781538 C986.459017,294.949779 986.140593,293.957371 986.134298,292.938462 C986.125096,291.8542 986.44306,290.792442 987.046526,289.892308 C987.640922,288.985978 988.606341,288.390821 989.681852,288.267692 C993.125607,287.858928 996.520684,287.110686 999.817722,286.033846 C1002.03415,285.358484 1003.91573,283.872305 1005.08837,281.870769 C1006.31546,279.55436 1006.97552,276.979008 1007.01419,274.356923 C1007.01419,271.243077 1007.01419,266.978462 1007.01419,261.563077 L1007.01419,222.978462 C1007.01419,217.698462 1007.01419,212.113846 1006.30468,206.427692 C1005.88627,201.047388 1004.72653,195.750985 1002.85848,190.689231 C1001.26547,186.211435 998.541669,182.223428 994.952505,179.113846 C990.758761,175.790944 985.491882,174.128573 980.154135,174.443077 C974.158465,174.273297 968.211106,175.562435 962.821798,178.2 C958.233015,180.495946 954.21556,183.791939 951.064189,187.846154 C947.994948,191.743405 945.690629,196.187947 944.273157,200.944615 C942.799646,205.608593 942.047637,210.471082 942.043265,215.363077 L942.854135,259.430769 Z" id="Path" fill="#005295"></path>
                <path d="M1255.44435,263.289231 C1255.12104,268.175915 1255.7758,273.078054 1257.37017,277.707692 C1258.70709,280.575661 1261.73453,282.255999 1264.87071,281.870769 C1266.68832,281.93351 1268.5037,281.693317 1270.24272,281.16 C1272.29764,280.300135 1274.26613,279.246144 1276.12153,278.012308 C1276.72676,277.704757 1277.44211,277.704757 1278.04734,278.012308 C1278.74175,278.453357 1279.33017,279.042822 1279.77044,279.738462 C1280.3273,280.401935 1280.67948,281.213365 1280.78403,282.073846 C1281.14476,282.774615 1281.14476,283.606923 1280.78403,284.307692 C1274.36233,292.901414 1264.33419,298.036831 1253.6199,298.218462 C1248.35012,298.374051 1243.1788,296.766313 1238.92289,293.649231 C1235.10732,290.78616 1232.0172,287.064479 1229.90196,282.784615 C1229.90196,281.769231 1228.98973,281.667692 1228.17886,282.784615 C1222.74709,287.376791 1216.62348,291.078039 1210.03566,293.750769 C1201.91146,296.95765 1193.22158,298.477622 1184.49327,298.218462 C1174.98191,298.830965 1165.62626,295.572646 1158.54544,289.181538 C1152.10443,282.276538 1148.77068,273.028259 1149.3218,263.593846 C1149.14425,249.669946 1157.0554,236.910409 1169.59354,230.898462 C1187.49858,222.233695 1207.31311,218.284729 1227.16528,219.424615 C1227.16528,219.424615 1227.87479,219.424615 1228.0775,218.003077 C1228.24816,215.738607 1228.24816,213.46447 1228.0775,211.2 L1228.0775,203.178462 C1228.10224,198.513841 1227.69506,193.856975 1226.8612,189.267692 C1226.17837,185.284538 1224.84268,181.441927 1222.90821,177.895385 C1221.06378,174.653642 1218.36343,171.983637 1215.10359,170.178462 C1211.2482,168.20791 1206.96342,167.230784 1202.63647,167.335385 C1196.43181,167.092269 1190.28433,168.605473 1184.8987,171.701538 C1180.79455,173.87933 1178.19408,178.11744 1178.10767,182.769231 C1178.17229,185.049601 1178.87466,187.265998 1180.13484,189.166154 C1181.47738,190.993496 1182.22106,193.193018 1182.26337,195.461538 C1182.06806,198.602473 1180.55911,201.515124 1178.10767,203.483077 C1175.36616,206.053098 1171.7252,207.43912 1167.9718,207.341538 C1163.73127,207.768609 1159.53423,206.191928 1156.61962,203.076923 C1154.36379,200.176818 1153.14969,196.599608 1153.17343,192.923077 C1153.20344,187.951916 1154.64479,183.091925 1157.32914,178.910769 C1160.21616,174.323354 1164.05294,170.410524 1168.57995,167.436923 C1173.71107,164.174019 1179.27194,161.644977 1185.10142,159.923077 C1191.68596,157.998769 1198.51425,157.041113 1205.37316,157.08 C1218.69575,156.326439 1231.87003,160.19966 1242.67316,168.046154 C1252.56057,177.454575 1257.5707,190.901046 1256.25522,204.498462 L1255.44435,263.289231 Z M1227.67207,233.944615 C1227.85008,232.630638 1227.85008,231.298593 1227.67207,229.984615 C1227.67207,229.476923 1226.96256,229.273846 1226.15169,229.273846 C1213.52888,229.579033 1201.18724,233.071553 1190.27071,239.427692 C1183.01131,243.887908 1178.59464,251.813546 1178.61446,260.344615 C1178.40765,265.677772 1179.97651,270.928481 1183.07424,275.270769 C1186.65644,279.62445 1192.16558,281.908141 1197.77125,281.363077 C1202.69142,281.293452 1207.56187,280.365738 1212.16419,278.621538 C1217.06837,276.961978 1221.60994,274.376964 1225.54354,271.006154 C1226.95362,269.801139 1227.82856,268.08468 1227.97615,266.233846 L1227.67207,233.944615 Z" id="Shape" fill="#005295"></path>
                <path d="M1401.70495,180.433846 C1404.40845,184.43824 1406.42933,188.86461 1407.68511,193.532308 C1408.9785,198.133007 1409.72695,202.8702 1409.915,207.646154 C1410.07422,215.568198 1408.40942,223.420493 1405.04979,230.593846 C1401.91004,237.061569 1397.37471,242.749453 1391.7718,247.246154 C1386.01542,251.82328 1379.44681,255.268442 1372.41229,257.4 C1364.8835,259.835789 1357.01105,261.035895 1349.09979,260.953846 L1339.87615,260.953846 C1336.24039,261.147781 1332.61908,261.55463 1329.03077,262.172308 C1325.89072,262.627785 1322.8446,263.587814 1320.00984,265.015385 C1317.73231,265.870123 1316.233,268.062189 1316.25957,270.498462 C1316.35037,272.388945 1317.48336,274.071881 1319.19897,274.864615 C1321.47926,276.165661 1323.93819,277.123607 1326.4968,277.707692 C1329.29636,278.411605 1332.1412,278.920514 1335.01093,279.230769 C1337.84897,279.230769 1340.18022,279.230769 1342.00468,279.230769 C1356.1949,280.246154 1368.86473,281.464615 1380.11555,282.886154 C1389.89628,284.019096 1399.47791,286.47853 1408.59734,290.196923 C1415.77291,293.038338 1421.97028,297.906258 1426.43647,304.209231 C1430.89022,311.231427 1433.08385,319.454403 1432.72071,327.766154 C1432.76457,335.927221 1431.03525,344.000117 1427.65278,351.424615 C1424.37421,359.172735 1419.26008,366.003676 1412.75305,371.326154 C1405.3471,376.979101 1396.96263,381.213192 1388.02153,383.815385 C1377.03717,387.076177 1365.62304,388.650971 1354.16772,388.486154 C1344.36405,388.581084 1334.57824,387.627998 1324.97642,385.643077 C1316.89847,384.065881 1309.15043,381.112285 1302.06935,376.910769 C1295.88759,373.267696 1290.78114,368.047077 1287.27098,361.781538 C1281.7096,350.851014 1280.58369,338.189333 1284.12886,326.446154 C1285.42426,322.573213 1287.34145,318.937813 1289.80495,315.683077 C1292.09948,312.539161 1294.791,309.706345 1297.81229,307.255385 C1300.57471,304.834634 1303.64152,302.786471 1306.93457,301.163077 C1302.45951,299.584921 1298.25433,297.32448 1294.46745,294.461538 C1290.53248,291.045021 1288.46138,285.952387 1288.89272,280.753846 C1288.75267,276.666453 1289.84783,272.631936 1292.03484,269.178462 C1294.1227,265.990977 1296.93665,263.346038 1300.2449,261.461538 C1303.71235,259.364762 1307.46914,257.790955 1311.39435,256.790769 C1315.53266,255.907048 1319.73615,255.3637 1323.96283,255.166154 C1314.79853,251.83015 1306.6593,246.16108 1300.34625,238.716923 C1294.23576,230.622779 1291.18357,220.62261 1291.73077,210.489231 C1291.63995,202.910816 1293.16022,195.399818 1296.19055,188.455385 C1299.0239,181.939657 1303.32591,176.170292 1308.75903,171.6 C1314.52589,166.702764 1321.21123,163.008948 1328.42261,160.735385 C1336.60757,158.09456 1345.16371,156.79172 1353.76229,156.876923 C1362.33203,156.531619 1370.87433,158.056023 1378.79789,161.344615 C1385.00756,164.296367 1390.71873,168.201928 1395.72479,172.92 C1399.63691,169.076247 1404.11511,165.857185 1409.00278,163.375385 C1414.34475,160.809828 1420.20901,159.523659 1426.1324,159.618462 C1428.5769,159.636034 1431.01653,159.839698 1433.43022,160.227692 C1435.99161,160.552016 1438.48752,161.271289 1440.82941,162.36 C1442.99121,163.377804 1444.89655,164.870079 1446.40414,166.726154 C1448.01961,168.726743 1448.81661,171.267152 1448.63403,173.833846 C1448.66343,177.00875 1447.74579,180.12013 1445.9987,182.769231 C1443.51172,185.737356 1439.70711,187.2619 1435.86283,186.830769 C1433.17366,187.179715 1430.46746,186.325563 1428.46365,184.495385 C1427.29227,182.972606 1426.39999,181.253639 1425.82832,179.418462 C1425.22369,177.68392 1424.51283,175.988393 1423.69979,174.341538 C1422.88892,172.818462 1421.06446,172.006154 1418.12506,172.006154 C1414.81549,172.06655 1411.56085,172.86431 1408.59734,174.341538 C1405.76462,175.668776 1403.37224,177.783445 1401.70495,180.433846 Z M1321.53022,304.412308 C1317.85293,307.587545 1315.08862,311.688786 1313.52289,316.292308 C1311.56253,321.164559 1310.56429,326.371511 1310.58348,331.624615 C1310.41717,338.277166 1311.98951,344.857729 1315.14462,350.713846 C1318.08794,356.072433 1322.17106,360.717413 1327.10495,364.32 C1332.21487,368.085949 1337.99387,370.842736 1344.13321,372.443077 C1350.52709,374.275598 1357.1464,375.198477 1363.7968,375.184769 C1374.8868,375.123316 1385.62013,371.252463 1394.20441,364.218462 C1398.10844,360.930262 1401.31387,356.890466 1403.63077,352.338462 C1406.00019,347.759859 1407.21797,342.670992 1407.17832,337.513846 C1407.4102,331.382068 1404.96855,325.452415 1400.48865,321.267692 C1395.32124,316.50211 1389.10552,313.02348 1382.34544,311.113846 C1373.47806,308.536489 1364.37986,306.836051 1355.18131,306.036923 C1344.84272,305.529231 1333.59191,304.818462 1321.53022,304.412308 Z M1349.91066,250.190769 C1358.52258,250.962457 1366.8962,247.096804 1371.90549,240.036923 C1376.82748,231.113143 1379.1126,220.970367 1378.49381,210.793846 C1378.54548,204.854907 1378.20688,198.919 1377.48022,193.024615 C1376.92363,188.236281 1375.58831,183.571519 1373.52723,179.215385 C1371.73859,175.639757 1369.04815,172.594517 1365.72261,170.381538 C1361.87231,168.175896 1357.48569,167.086083 1353.05278,167.233846 C1347.72076,166.993085 1342.4451,168.411882 1337.95033,171.295385 C1334.15713,173.887109 1331.05903,177.374296 1328.92941,181.449231 C1326.65744,185.967629 1325.18289,190.845711 1324.57098,195.867692 C1323.77158,200.871187 1323.3649,205.929757 1323.35468,210.996923 C1322.72144,221.296548 1325.08018,231.559406 1330.14571,240.544615 C1334.60287,247.048705 1342.15418,250.715268 1350.01202,250.190769 L1349.91066,250.190769 Z" id="Shape" fill="#005295"></path>
                <path d="M1504.48267,259.430769 C1504.48267,264.304615 1504.48267,268.467692 1504.48267,271.818462 C1504.58893,274.702682 1505.27859,277.53527 1506.50984,280.144615 C1507.78441,282.348796 1509.69153,284.117788 1511.98321,285.221538 C1515.23,286.54798 1518.63853,287.435769 1522.11908,287.861538 C1523.1856,288.010238 1524.14128,288.599393 1524.75441,289.486154 C1525.35787,290.386289 1525.67584,291.448047 1525.66683,292.532308 C1525.66034,293.551218 1525.34192,294.543625 1524.75441,295.375385 C1524.1754,296.256505 1523.17013,296.760034 1522.11908,296.695385 C1517.47419,296.637095 1512.83705,296.298017 1508.23294,295.68 C1502.44789,294.984837 1496.62573,294.645739 1490.79924,294.664615 C1484.63558,294.640038 1478.47583,294.979087 1472.35196,295.68 C1466.59905,296.354751 1460.81183,296.693785 1455.01962,296.695385 C1454.06066,296.713152 1453.16778,296.207584 1452.68837,295.375385 C1452.10086,294.543625 1451.78244,293.551218 1451.77615,292.532308 C1451.76694,291.448047 1452.08491,290.386289 1452.68837,289.486154 C1453.28277,288.579825 1454.24819,287.984667 1455.3237,287.861538 C1459.40235,287.469127 1463.41844,286.582655 1467.28403,285.221538 C1469.83437,284.288068 1472.00711,282.53965 1473.46691,280.246154 C1474.85157,277.942034 1475.61961,275.319094 1475.6968,272.630769 C1475.6968,269.483077 1475.6968,265.726154 1475.6968,261.156923 L1475.6968,213.535385 C1475.6968,205.006154 1475.49408,198.236923 1475.08865,193.227692 C1474.98987,189.199076 1474.09413,185.230133 1472.45332,181.550769 C1471.16058,179.004097 1468.95063,177.044281 1466.27044,176.067692 C1462.62718,174.840231 1458.84979,174.05614 1455.01962,173.732308 C1453.92079,173.779039 1452.89394,173.185572 1452.3843,172.209231 C1451.81042,171.332891 1451.4943,170.31246 1451.47207,169.264615 C1451.47693,168.214019 1451.79455,167.188761 1452.3843,166.32 C1452.89394,165.343659 1453.92079,164.750192 1455.01962,164.796923 L1462.21609,164.187692 C1465.15549,164.187692 1468.0949,164.187692 1471.23702,163.476923 L1480.86609,162.258462 C1484.10957,161.750769 1487.04897,161.243077 1489.58294,160.633846 C1491.34027,160.341437 1493.0696,159.899846 1494.75223,159.313846 C1495.74787,158.887856 1496.8126,158.647006 1497.89435,158.603077 C1499.67538,158.364062 1501.43912,159.149338 1502.45549,160.633846 C1503.09677,161.820189 1503.44437,163.143421 1503.46908,164.492308 L1504.48267,259.430769 Z" id="Path" fill="#005295"></path>
                <path d="M1583.03566,259.430769 C1583.03566,264.304615 1583.03566,268.467692 1583.03566,271.818462 C1583.17224,274.657713 1583.71848,277.462194 1584.6574,280.144615 C1585.56698,282.269125 1587.12929,284.047622 1589.11718,285.221538 C1591.85868,286.574287 1594.80359,287.466187 1597.83403,287.861538 C1598.91942,287.955349 1599.89663,288.557772 1600.46935,289.486154 C1601.07282,290.386289 1601.39078,291.448047 1601.38158,292.532308 C1601.37529,293.551218 1601.05686,294.543625 1600.46935,295.375385 C1599.92249,296.291977 1598.89412,296.807074 1597.83403,296.695385 C1594.13501,296.568353 1590.44627,296.229337 1586.78593,295.68 C1581.13749,294.975698 1575.44963,294.636535 1569.75767,294.664615 C1563.62771,294.64002 1557.50168,294.979075 1551.41174,295.68 C1545.92997,296.35091 1540.4128,296.689987 1534.89028,296.695385 C1533.93131,296.713152 1533.03843,296.207584 1532.55903,295.375385 C1531.97152,294.543625 1531.65309,293.551218 1531.6466,292.532308 C1531.6376,291.448047 1531.95556,290.386289 1532.55903,289.486154 C1533.15342,288.579825 1534.11884,287.984667 1535.19435,287.861538 C1539.06007,287.493855 1542.86984,286.676029 1546.54653,285.424615 C1548.97076,284.679193 1551.07605,283.142108 1552.52669,281.058462 C1553.83527,278.68498 1554.59718,276.048269 1554.75658,273.341538 C1554.75658,270.193846 1554.75658,266.132308 1554.75658,261.156923 L1554.75658,223.892308 C1554.75658,213.738462 1554.75658,206.224615 1554.75658,199.726154 C1554.69216,194.579541 1553.97695,189.461852 1552.62805,184.495385 C1551.80712,181.284451 1549.81906,178.496241 1547.05332,176.676923 C1543.66015,174.992089 1539.88727,174.222175 1536.10658,174.443077 C1535.04747,174.47772 1534.0209,174.073708 1533.26854,173.326154 C1532.59398,172.575269 1532.23139,171.594521 1532.25495,170.584615 C1532.21995,169.511624 1532.58079,168.463325 1533.26854,167.64 C1533.98973,166.845879 1535.03867,166.433066 1536.10658,166.523077 C1541.61875,166.338149 1547.10844,165.727102 1552.52669,164.695385 C1559.95083,163.478025 1567.29557,161.816592 1574.52153,159.72 C1576.70654,158.727093 1579.28717,159.405181 1580.70441,161.344615 C1582.06264,163.157576 1582.77625,165.373689 1582.73158,167.64 L1582.73158,179.52 C1582.60484,179.739913 1582.60484,180.010856 1582.73158,180.230769 C1582.73158,180.230769 1583.23837,180.230769 1583.44109,180.230769 C1585.1492,177.62886 1587.08247,175.182509 1589.21854,172.92 C1591.8618,170.086184 1594.8205,167.565125 1598.03674,165.406154 C1601.6841,162.940052 1605.63655,160.960325 1609.79435,159.516923 C1614.40531,157.838989 1619.28198,157.013301 1624.18729,157.08 C1636.94578,156.381142 1649.45661,160.802411 1658.95332,169.366154 C1668.27783,180.421655 1672.80315,194.752866 1671.5218,209.169231 L1671.5218,259.938462 C1671.5218,265.218462 1671.5218,270.092308 1671.5218,272.935385 C1671.67859,275.758951 1672.40255,278.521786 1673.65033,281.058462 C1674.69961,283.180801 1676.45646,284.868935 1678.61691,285.830769 C1681.8414,287.205171 1685.262,288.061836 1688.75278,288.369231 C1689.82829,288.492359 1690.79371,289.087517 1691.3881,289.993846 C1691.99157,290.893981 1692.30953,291.955739 1692.30052,293.04 C1692.29404,294.05891 1691.97561,295.051317 1691.3881,295.883077 C1690.82432,296.781189 1689.80826,297.290119 1688.75278,297.203077 C1684.54763,297.10025 1680.35155,296.761256 1676.1843,296.187692 C1664.36383,294.833835 1652.42786,294.833835 1640.6074,296.187692 C1635.90189,296.810568 1631.16328,297.149641 1626.41718,297.203077 C1625.42766,297.236286 1624.49739,296.731498 1623.98457,295.883077 C1623.42692,295.042366 1623.14358,294.048944 1623.1737,293.04 C1623.12802,291.965586 1623.41093,290.902816 1623.98457,289.993846 C1624.62053,289.082597 1625.61797,288.490469 1626.72125,288.369231 C1630.21671,288.024529 1633.63674,287.133744 1636.85712,285.729231 C1639.0296,284.650022 1640.8041,282.907929 1641.92506,280.753846 C1643.05568,278.365154 1643.70985,275.778297 1643.85087,273.138462 C1643.85087,269.990769 1643.85087,266.233846 1643.85087,261.664615 L1643.85087,216.175385 C1643.85087,211.301538 1643.85087,206.021538 1643.24272,201.452308 C1642.9092,196.835624 1641.81315,192.306399 1639.99924,188.049231 C1638.28431,184.093082 1635.64177,180.609892 1632.29598,177.895385 C1628.21147,175.125967 1623.33481,173.770919 1618.40984,174.036923 C1613.10084,173.912053 1607.82273,174.879696 1602.90196,176.88 C1598.68935,178.608552 1594.86414,181.163214 1591.65115,184.393846 C1588.64206,187.688459 1586.39286,191.605542 1585.06283,195.867692 C1583.42075,200.143212 1582.59555,204.689845 1582.63022,209.270769 L1583.03566,259.430769 Z" id="Path" fill="#005295"></path>
                <path d="M1812.6131,180.433846 C1815.30753,184.456823 1817.35934,188.876051 1818.69462,193.532308 C1819.93792,198.143865 1820.68546,202.875371 1820.92452,207.646154 C1821.08373,215.568198 1819.41893,223.420493 1816.0593,230.593846 C1812.91955,237.061569 1808.38422,242.749453 1802.78131,247.246154 C1796.99306,251.77398 1790.43403,255.21412 1783.4218,257.4 C1775.85988,259.843139 1767.9529,261.043292 1760.00794,260.953846 L1750.88566,260.953846 C1747.21632,261.147975 1743.56129,261.55481 1739.93892,262.172308 C1736.80234,262.642918 1733.75856,263.602208 1730.91799,265.015385 C1728.69924,265.92652 1727.25527,268.096312 1727.26908,270.498462 C1727.35988,272.388945 1728.49287,274.071881 1730.20848,274.864615 C1732.44432,276.183087 1734.8726,277.142417 1737.40495,277.707692 C1740.24053,278.403161 1743.11851,278.911941 1746.02044,279.230769 L1752.91283,279.230769 C1767.10305,280.246154 1779.87424,281.464615 1791.0237,282.886154 C1800.83459,284.033317 1810.44782,286.492113 1819.60685,290.196923 C1835.10719,295.920224 1844.92054,311.267813 1843.62886,327.766154 C1843.70778,335.920022 1842.01298,343.993276 1838.66229,351.424615 C1835.19134,358.857157 1830.01665,365.363088 1823.55984,370.412308 C1816.20328,376.08432 1807.84824,380.320916 1798.92968,382.901538 C1787.944,386.156224 1776.53081,387.730889 1765.07587,387.572308 C1755.23866,387.667518 1745.41922,386.714467 1735.78321,384.729231 C1727.71551,383.116231 1719.97333,380.16487 1712.87615,375.996923 C1706.74936,372.317217 1701.68428,367.103179 1698.17914,360.867692 C1692.61776,349.937167 1691.49184,337.275487 1695.03702,325.532308 C1696.33857,321.681705 1698.2184,318.052334 1700.61174,314.769231 C1702.96279,311.673076 1705.6482,308.84669 1708.61908,306.341538 C1711.38151,303.920787 1714.44831,301.872625 1717.74136,300.249231 C1713.30754,298.648686 1709.13905,296.389604 1705.3756,293.547692 C1701.39857,290.161523 1699.31827,285.046278 1699.80087,279.84 C1699.66727,275.76719 1700.72413,271.743977 1702.84164,268.264615 C1704.99505,265.096739 1707.83657,262.458464 1711.15305,260.547692 C1714.77,258.555035 1718.66502,257.117485 1722.70794,256.283077 C1726.81312,255.405694 1730.98242,254.862384 1735.17506,254.658462 C1726.02361,251.297654 1717.89026,245.632682 1711.55848,238.209231 C1705.53089,230.077718 1702.52024,220.096214 1703.04435,209.981538 C1702.9023,202.398371 1704.42477,194.876511 1707.50414,187.947692 C1710.33643,181.458482 1714.59871,175.695947 1719.97125,171.092308 C1725.76513,166.234451 1732.4423,162.545151 1739.63484,160.227692 C1747.85613,157.593245 1756.44458,156.290695 1765.07587,156.369231 C1773.61284,156.022445 1782.12243,157.547186 1790.01011,160.836923 C1796.23708,163.811926 1801.97828,167.714655 1807.03837,172.412308 C1810.9505,168.568555 1815.42869,165.349493 1820.31636,162.867692 C1825.65833,160.302136 1831.5226,159.015967 1837.44598,159.110769 C1839.89031,159.132175 1842.32966,159.335815 1844.74381,159.72 C1847.27259,160.044901 1849.73501,160.764381 1852.04164,161.852308 C1854.23284,162.869048 1856.17148,164.360286 1857.71772,166.218462 C1859.27405,168.250344 1860.06381,170.767687 1859.94761,173.326154 C1859.99274,176.518331 1859.03542,179.644011 1857.21093,182.261538 C1854.7465,185.260723 1850.92439,186.79228 1847.07506,186.323077 C1844.38589,186.672023 1841.67968,185.81787 1839.67587,183.987692 C1838.58087,182.417335 1837.69496,180.710638 1837.04055,178.910769 C1836.47038,177.178056 1835.79336,175.482485 1835.01337,173.833846 C1834.2025,172.310769 1832.37805,171.498462 1829.33729,171.498462 C1826.05891,171.549765 1822.83526,172.348425 1819.91093,173.833846 C1816.89011,175.277167 1814.35426,177.570539 1812.6131,180.433846 L1812.6131,180.433846 Z M1732.53973,304.412308 C1728.89585,307.596787 1726.16658,311.697961 1724.63375,316.292308 C1722.6734,321.164559 1721.67498,326.371511 1721.69435,331.624615 C1721.47952,338.282195 1723.05485,344.875249 1726.25549,350.713846 C1729.19881,356.072433 1733.28193,360.717413 1738.21582,364.32 C1743.2889,368.085097 1749.03462,370.84242 1755.14272,372.443077 C1761.5366,374.275598 1768.15591,375.198477 1774.80631,375.185214 C1780.52109,375.213733 1786.19169,374.180885 1791.53049,372.138462 C1796.53729,370.293744 1801.1976,367.616181 1805.31528,364.218462 C1809.1608,360.873694 1812.35653,356.846131 1814.74164,352.338462 C1816.99709,347.903612 1818.17773,342.998781 1818.18783,338.021538 C1818.41971,331.88976 1815.97806,325.960107 1811.49816,321.775385 C1806.31747,317.02821 1800.10635,313.552156 1793.35495,311.621538 C1784.48758,309.044181 1775.38937,307.343743 1766.19082,306.544615 C1755.75087,305.529231 1744.60142,304.818462 1732.53973,304.412308 L1732.53973,304.412308 Z M1760.92017,250.190769 C1769.53575,250.983695 1777.91945,247.113386 1782.915,240.036923 C1787.92057,231.142276 1790.24428,220.984473 1789.60468,210.793846 C1789.65635,204.854907 1789.31775,198.919 1788.59109,193.024615 C1788.05028,188.220629 1786.67833,183.547718 1784.53674,179.215385 C1782.78078,175.617736 1780.08345,172.564692 1776.73212,170.381538 C1772.92365,168.163796 1768.56586,167.072418 1764.16365,167.233846 C1758.8018,167.01154 1753.49925,168.42806 1748.95984,171.295385 C1745.16664,173.887109 1742.06854,177.374296 1739.93892,181.449231 C1737.73153,185.822435 1736.22644,190.517032 1735.47914,195.36 C1734.71201,200.365983 1734.33921,205.424667 1734.36419,210.489231 C1733.68346,220.792729 1736.0453,231.069032 1741.15522,240.036923 C1745.44315,246.733999 1752.98904,250.610549 1760.92017,250.190769 L1760.92017,250.190769 Z" id="Shape" fill="#005295"></path>
                <path d="M1500.93511,66.8123077 C1500.93511,74.8875604 1494.40042,81.4338462 1486.33946,81.4338462 C1478.27851,81.4338462 1471.74381,74.8875604 1471.74381,66.8123077 C1471.74381,58.737055 1478.27851,52.1907692 1486.33946,52.1907692 C1490.21875,52.1634969 1493.94705,53.6952167 1496.69019,56.4432212 C1499.43333,59.1912258 1500.96234,62.9261381 1500.93511,66.8123077 Z" id="Path" fill="#49A942"></path>
            </g>
            <g id="mark">
                <path d="M159.182182,379.266364 C106.388264,323.867614 95.7093808,240.680599 132.804,173.784 L133.615636,172.771273 L2.79340187e-13,172.771273 L2.79340187e-13,379.266364 L159.182182,379.266364 Z" id="Path" fill="#005295"></path>
                <path d="M379.541455,52.5605455 L242.476364,89.4238182 C216.642059,96.0371196 192.68566,108.513711 172.472727,125.882 L173.081455,-6.29637756e-14 L379.947273,-6.29637756e-14 L379.541455,52.5605455 Z" id="Path" fill="#005295"></path>
                <path d="M379.947273,421.395818 C354.029926,435.523182 324.965399,442.906901 295.435636,442.865636 L295.435636,442.865636 C249.878027,442.837483 206.155298,424.94329 173.690182,393.039455 L173.690182,552.037636 L379.947273,552.037636 L379.947273,421.395818 Z" id="Path" fill="#005295"></path>
                <path d="M502.301455,172.771273 L464.763273,311.717455 C458.390893,336.47548 446.650067,359.534763 430.370182,379.266364 L553.028727,379.266364 L553.028727,172.771273 L502.301455,172.771273 Z" id="Path" fill="#005295"></path>
                <path d="M210.315273,329.642727 L176.733818,363.062727 C138.952575,325.283549 124.380249,270.175475 138.561068,218.70508 C152.741887,167.234686 193.49566,127.315146 245.317091,114.134364 L475.111636,52.1554545 C478.863702,51.492007 482.726626,52.3286866 485.865818,54.4847273 L333.684,206.393818 L327.799636,141.781818 C327.405457,139.780974 326.415358,137.945514 324.958909,136.515636 C321.026565,132.721416 314.789071,132.721416 310.856727,136.515636 C308.604624,138.778374 307.552044,141.967982 308.016,145.123818 L315.219273,224.420364 L281.130545,258.448 L275.246182,194.241091 C274.852003,192.240247 273.861904,190.404787 272.405455,188.974909 C268.473111,185.180689 262.235617,185.180689 258.303273,188.974909 C256.05117,191.237647 254.998589,194.427255 255.462545,197.583091 L262.767273,276.879636 L228.678545,310.806 L223.2,247.105455 C222.805821,245.10461 221.815722,243.26915 220.359273,241.839273 C216.426929,238.045053 210.189435,238.045053 206.257091,241.839273 C204.004988,244.10201 202.952407,247.291618 203.416364,250.447455 L210.315273,329.642727 Z" id="Path" fill="#49A942"></path>
                <path d="M225.026182,344.327273 L191.444727,377.848545 C229.287694,415.61604 284.52915,430.197053 336.12751,416.037646 C387.725869,401.878239 427.737334,361.158317 440.921455,309.388182 L502.910182,80.0054545 C503.655064,76.2407555 502.850616,72.3352248 500.678182,69.1692727 L348.496364,221.078364 L412.92,226.952182 C414.888155,227.364603 416.689122,228.351597 418.094182,229.787818 C421.895214,233.713115 421.895214,239.939431 418.094182,243.864727 C415.850287,246.082229 412.700006,247.130441 409.572,246.700364 L330.031636,239.51 L295.841455,273.436364 L360.265091,279.411455 C362.209955,279.827725 364.001059,280.774257 365.439273,282.145818 C369.30614,286.083742 369.30614,292.386076 365.439273,296.324 C363.195378,298.541502 360.045097,299.589714 356.917091,299.159636 L277.478182,291.868 L243.490909,325.895636 L307.813091,331.972 C309.782362,332.319388 311.592408,333.27593 312.987273,334.706364 C316.85414,338.644288 316.85414,344.946621 312.987273,348.884545 C310.743378,351.102047 307.593097,352.150259 304.465091,351.720182 L225.026182,344.327273 Z" id="Path" fill="#49A942"></path>
            </g>
        </g>
    </g>
</svg>