<svg xmlns="http://www.w3.org/2000/svg" width="85.957" height="75" viewBox="0 0 85.957 75">
  <g id="_002-customer" data-name="002-customer" transform="translate(0 -32.631)">
    <circle id="Ellipse_2323" data-name="Ellipse 2323" cx="14.606" cy="14.606" r="14.606" transform="translate(28.372 32.631)" fill="#fff"/>
    <circle id="Ellipse_2324" data-name="Ellipse 2324" cx="9.234" cy="9.234" r="9.234" transform="translate(63.292 43.375)" fill="#fff"/>
    <circle id="Ellipse_2325" data-name="Ellipse 2325" cx="9.234" cy="9.234" r="9.234" transform="translate(4.197 43.375)" fill="#fff"/>
    <path id="Path_43133" data-name="Path 43133" d="M22.528,243.129c-3.635-2.978-6.926-2.584-11.129-2.584A11.378,11.378,0,0,0,0,251.876V270.21a4.933,4.933,0,0,0,4.937,4.919c11.756,0,10.34.213,10.34-.507C15.277,261.631,13.739,252.1,22.528,243.129Z" transform="translate(0 -172.995)" fill="#fff"/>
    <path id="Path_43134" data-name="Path 43134" d="M146.983,240.048c-7.341-.612-13.721.007-19.224,4.55-9.21,7.377-7.437,17.309-7.437,29.46a5.889,5.889,0,0,0,5.879,5.879c35.437,0,36.848,1.143,38.949-3.51.689-1.574.5-1.074.5-16.129C165.65,248.341,155.3,240.048,146.983,240.048Z" transform="translate(-100.008 -172.43)" fill="#fff"/>
    <path id="Path_43135" data-name="Path 43135" d="M388.939,240.546c-4.226,0-7.5-.39-11.129,2.584,8.724,8.907,7.251,17.785,7.251,31.493,0,.724-1.176.507,10.164.507a5.109,5.109,0,0,0,5.114-5.094v-18.16A11.378,11.378,0,0,0,388.939,240.546Z" transform="translate(-314.382 -172.996)" fill="#fff"/>
  </g>
</svg>
