<svg xmlns="http://www.w3.org/2000/svg" width="90.307" height="101" viewBox="0 0 90.307 101">
  <g id="_001-trophy" data-name="001-trophy" transform="translate(-27.103)">
    <g id="Group_20180" data-name="Group 20180" transform="translate(27.103)">
      <g id="Group_20179" data-name="Group 20179" transform="translate(0)">
        <path id="Path_45869" data-name="Path 45869" d="M117.335,17.562a4.906,4.906,0,0,0-4.912-4.493H99.665v-1.88h.248a3.308,3.308,0,0,0,3.3-3.3V3.3a3.308,3.308,0,0,0-3.3-3.3H62.361a1.479,1.479,0,1,0,0,2.959H99.913a.345.345,0,0,1,.345.345V7.884a.345.345,0,0,1-.345.345H44.6a.345.345,0,0,1-.345-.345V3.3a.345.345,0,0,1,.345-.345H55.424a1.479,1.479,0,0,0,0-2.959H44.6a3.308,3.308,0,0,0-3.3,3.3V7.884a3.308,3.308,0,0,0,3.3,3.3h.248v1.88H32.09a4.906,4.906,0,0,0-4.912,4.493,43.186,43.186,0,0,0,2.57,17.14c2.987,8.08,9.841,18.4,25.545,22.446a27.381,27.381,0,0,0,8.547,4.573l.745,1.229a15.307,15.307,0,0,1,2.151,7.943,15.828,15.828,0,0,1-.831,5.1l-1.034,3.047h-3.44a6.41,6.41,0,0,0-6.4,6.4v3.1H49.643a2.759,2.759,0,0,0-2.756,2.756v6.949A2.759,2.759,0,0,0,49.643,101H94.87a2.759,2.759,0,0,0,2.756-2.756V91.295a2.759,2.759,0,0,0-2.756-2.756H89.486v-3.1a6.41,6.41,0,0,0-6.4-6.4h-3.44l-1.034-3.047a15.821,15.821,0,0,1-.831-5.1,15.308,15.308,0,0,1,2.151-7.943l.745-1.229a27.379,27.379,0,0,0,8.547-4.573c15.7-4.049,22.558-14.366,25.545-22.446a43.185,43.185,0,0,0,2.57-17.14ZM45.4,41.1a25.123,25.123,0,0,1-6.317-9.6,33.2,33.2,0,0,1-1.954-8.564h7.723V35.637A27.421,27.421,0,0,0,45.4,41.1ZM32.524,33.676a39.9,39.9,0,0,1-2.4-15.851,1.962,1.962,0,0,1,1.965-1.8H44.849v3.945H37a2.848,2.848,0,0,0-2.835,3.114,36.219,36.219,0,0,0,2.144,9.456A27.452,27.452,0,0,0,46.923,46.093a27.416,27.416,0,0,0,3.741,6.4,31.8,31.8,0,0,1-18.14-18.82ZM94.667,91.5v6.543H49.846V91.5ZM83.083,82a3.448,3.448,0,0,1,3.444,3.444v3.1H57.987v-3.1A3.448,3.448,0,0,1,61.431,82ZM75.807,76.94l.711,2.1H68l.712-2.1a18.78,18.78,0,0,0,.988-6.046,18.458,18.458,0,0,0-1.887-8.212,27.445,27.445,0,0,0,8.9,0,18.458,18.458,0,0,0-1.887,8.212A18.78,18.78,0,0,0,75.807,76.94Zm-3.55-16.854A24.477,24.477,0,0,1,47.808,35.637V11.188h48.9V35.637A24.476,24.476,0,0,1,72.257,60.086Zm39.733-26.41A31.8,31.8,0,0,1,93.849,52.5,27.424,27.424,0,0,0,97.6,46.082,27.067,27.067,0,0,0,107.2,34.9a1.479,1.479,0,1,0-2.674-1.266,24.45,24.45,0,0,1-5.412,7.477,27.42,27.42,0,0,0,.549-5.471V22.932h7.723a35.148,35.148,0,0,1-.727,4.489,1.479,1.479,0,0,0,2.884.664,38.212,38.212,0,0,0,.8-5,2.848,2.848,0,0,0-2.835-3.114H99.665V16.028h12.759a1.962,1.962,0,0,1,1.965,1.8,39.917,39.917,0,0,1-2.4,15.851Z" transform="translate(-27.103)" fill="#ff6164"/>
        <path id="Path_45870" data-name="Path 45870" d="M213.852,118.249l-4.242-.616a.568.568,0,0,1-.427-.31l-1.9-3.844a3.526,3.526,0,0,0-6.324,0l-1.9,3.844a.567.567,0,0,1-.427.31l-4.242.616a3.526,3.526,0,0,0-1.954,6.014l3.07,2.992a.567.567,0,0,1,.163.5l-.725,4.225a3.526,3.526,0,0,0,5.116,3.717l3.794-1.995a.566.566,0,0,1,.528,0l3.794,1.995a3.526,3.526,0,0,0,5.116-3.717l-.725-4.225a.567.567,0,0,1,.163-.5l3.07-2.992a3.526,3.526,0,0,0-1.954-6.014Zm-.111,3.9-3.07,2.992a3.526,3.526,0,0,0-1.014,3.121l.725,4.225a.567.567,0,0,1-.823.6l-3.794-1.995a3.525,3.525,0,0,0-3.282,0l-3.794,1.995a.567.567,0,0,1-.823-.6l.725-4.225a3.525,3.525,0,0,0-1.014-3.121l-3.07-2.992a.567.567,0,0,1,.314-.968l4.242-.616a3.526,3.526,0,0,0,2.655-1.929l1.9-3.844a.567.567,0,0,1,1.017,0l1.9,3.844a3.525,3.525,0,0,0,2.655,1.929l4.242.616a.567.567,0,0,1,.315.967Z" transform="translate(-158.97 -89.516)" fill="#ff6164"/>
      </g>
    </g>
  </g>
</svg>
