<svg xmlns="http://www.w3.org/2000/svg" width="76.893" height="80" viewBox="0 0 76.893 80">
  <g id="solid" transform="translate(-53.036 -35.738)">
    <path id="Path_43126" data-name="Path 43126" d="M196.253,410.206a1.441,1.441,0,0,0-2.033.154l-1.879,2.187a1.441,1.441,0,1,0,2.186,1.879l1.879-2.186A1.443,1.443,0,0,0,196.253,410.206Z" transform="translate(-113.92 -306.71)" fill="#fff"/>
    <path id="Path_43127" data-name="Path 43127" d="M78.619,85.774h8.409A5.056,5.056,0,0,1,88.522,86l.45-.45a5.013,5.013,0,0,1,3.568-1.478h10.049l20.054-18.8a21.2,21.2,0,0,0,2.779-16.64,17.023,17.023,0,0,0-30.133-6.086l-4.6,6.128a1.441,1.441,0,0,1-2.306,0l-4.6-6.128a17.024,17.024,0,0,0-30.134,6.085,21.253,21.253,0,0,0,5.493,20.009ZM105.94,72.047l5.766-5.189A1.441,1.441,0,1,1,113.634,69l-5.766,5.189a1.441,1.441,0,1,1-1.928-2.143Zm-5.766,5.189,1.6-1.441a1.441,1.441,0,1,1,1.928,2.143l-1.6,1.441a1.441,1.441,0,1,1-1.928-2.143Z" transform="translate(0)" fill="#fff"/>
    <path id="Path_43128" data-name="Path 43128" d="M171.984,389.352a1.443,1.443,0,0,0-2.033.154l-1.879,2.186a1.442,1.442,0,0,0,2.187,1.879l1.879-2.186a1.443,1.443,0,0,0-.154-2.033Z" transform="translate(-94.024 -289.614)" fill="#fff"/>
    <path id="Path_43129" data-name="Path 43129" d="M220.517,431.066a1.443,1.443,0,0,0-2.033.154l-1.879,2.187a1.441,1.441,0,1,0,2.187,1.879l1.879-2.186A1.443,1.443,0,0,0,220.517,431.066Z" transform="translate(-133.812 -323.812)" fill="#fff"/>
    <path id="Path_43130" data-name="Path 43130" d="M244.788,451.919a1.443,1.443,0,0,0-2.033.154l-1.879,2.186a1.441,1.441,0,1,0,2.186,1.879l1.879-2.186a1.441,1.441,0,0,0-.154-2.033Z" transform="translate(-153.709 -340.908)" fill="#fff"/>
    <path id="Path_43131" data-name="Path 43131" d="M277.241,206.986l-.836-.836-.831.779-.016.015-20.618,19.33a1.44,1.44,0,0,1-.986.39H243.335a2.148,2.148,0,0,0-1.529.633l-4.623,4.623a.722.722,0,0,0,0,1.019l.242.242a2.148,2.148,0,0,0,1.529.633h0a2.148,2.148,0,0,0,1.53-.637l3.218-3.232a1.441,1.441,0,0,1,1.021-.425h0a1.442,1.442,0,0,1,1.022.427,5.78,5.78,0,0,0,5.482,1.532l1.793-.448a1.441,1.441,0,1,1,.7,2.8l-1.793.448a8.685,8.685,0,0,1-7.12-1.356l-.244.245,5.353,5.005,2.436-2.436a1.441,1.441,0,0,1,2.039,2.039l-2.367,2.367,3.8,3.551L277,224.039a11.892,11.892,0,0,0,.242-17.053Z" transform="translate(-150.794 -139.707)" fill="#fff"/>
    <path id="Path_43132" data-name="Path 43132" d="M99.894,259.15a5.013,5.013,0,0,1-3.57,1.486h-.006a5.011,5.011,0,0,1-3.568-1.477l-.242-.242a3.607,3.607,0,0,1,0-5.1l1.517-1.517H86.234a1.441,1.441,0,0,1-.952-.359L66.425,235.35l-.5.553a11.892,11.892,0,0,0,1.232,16.862L80.062,263.8l1.838-2.138a4.321,4.321,0,0,1,7.564,2.254,4.323,4.323,0,0,1,4.375,3.758,4.319,4.319,0,0,1,4.371,3.761,4.322,4.322,0,0,1,3.367,7.139l-.7.813a3.242,3.242,0,0,0,1.757-.941l8.494-8.79L99.9,259.148Z" transform="translate(-8.159 -163.646)" fill="#fff"/>
  </g>
</svg>
