<svg xmlns="http://www.w3.org/2000/svg" width="111.209" height="101" viewBox="0 0 111.209 101">
  <g id="_003-data-management" data-name="003-data-management" transform="translate(0 -23.501)">
    <g id="Group_20185" data-name="Group 20185" transform="translate(0 23.501)">
      <path id="Path_45873" data-name="Path 45873" d="M108.711,110.383h-5.435a5.933,5.933,0,0,0,.657-2.717l0-44.2a1.629,1.629,0,1,0-3.258,0l0,44.2a2.718,2.718,0,0,1-2.715,2.715l-84.708,0a2.718,2.718,0,0,1-2.715-2.715l0-56.471a2.718,2.718,0,0,1,2.715-2.715l43.226,0a3.729,3.729,0,0,0-.2,3.258H47.526l-32.1,0a1.629,1.629,0,0,0-1.629,1.629l0,34.4a1.629,1.629,0,1,0,3.258,0l0-32.774H43.8c-.222.888-.471,1.974-.589,2.811a.469.469,0,0,1-.233.336l-2.724,1.569a.472.472,0,0,1-.41.034c-.925-.373-2.247-.764-3.194-1.027a3.741,3.741,0,0,0-4.237,1.729l-1.472,2.544a3.733,3.733,0,0,0,.621,4.539c.7.685,1.7,1.63,2.484,2.242a.466.466,0,0,1,.174.367v3.134a.467.467,0,0,1-.174.368,33.377,33.377,0,0,0-2.484,2.242,3.733,3.733,0,0,0-.621,4.539l1.472,2.544A3.739,3.739,0,0,0,36.653,84.7c.946-.262,2.269-.654,3.194-1.027a.473.473,0,0,1,.409.034l2.724,1.569a.47.47,0,0,1,.233.336,33.3,33.3,0,0,0,.7,3.264,3.74,3.74,0,0,0,3.62,2.806h2.949a3.74,3.74,0,0,0,3.62-2.805,33.269,33.269,0,0,0,.7-3.264.471.471,0,0,1,.233-.336L57.769,83.7a.472.472,0,0,1,.41-.033c.925.373,2.247.764,3.194,1.027a3.742,3.742,0,0,0,4.237-1.729l1.472-2.544a3.733,3.733,0,0,0-.621-4.539,33.375,33.375,0,0,0-2.484-2.242.468.468,0,0,1-.174-.368V70.141a.466.466,0,0,1,.174-.368,33.383,33.383,0,0,0,2.484-2.242,3.733,3.733,0,0,0,.621-4.539L65.61,60.448a3.739,3.739,0,0,0-4.237-1.729c-.946.262-2.269.654-3.194,1.027a.475.475,0,0,1-.409-.034l-2.725-1.57a.469.469,0,0,1-.233-.336c-.118-.837-.367-1.924-.589-2.811H58.13A3.74,3.74,0,0,0,62.2,56.46c.947-.263,2.27-.654,3.194-1.027a.474.474,0,0,1,.409.034l2.724,1.569a.47.47,0,0,1,.233.336,33.365,33.365,0,0,0,.7,3.264,3.74,3.74,0,0,0,3.62,2.806h2.949a3.74,3.74,0,0,0,3.62-2.805,33.209,33.209,0,0,0,.7-3.264.471.471,0,0,1,.233-.336l2.724-1.569a.473.473,0,0,1,.41-.033c.925.373,2.247.764,3.194,1.027A3.742,3.742,0,0,0,90.988,55h3.168l0,48.869-77.105,0V94.8a1.629,1.629,0,1,0-3.258,0V105.5a1.629,1.629,0,0,0,1.629,1.629l80.364,0a1.629,1.629,0,0,0,1.629-1.629l0-52.127a1.629,1.629,0,0,0-1.629-1.629H92.847a3.729,3.729,0,0,0-.2-3.258h5.315a2.718,2.718,0,0,1,2.715,2.715v5.361a1.629,1.629,0,1,0,3.258,0V51.194a5.98,5.98,0,0,0-5.973-5.973H89.386a.481.481,0,0,1-.038-.183V41.9a.465.465,0,0,1,.174-.368c.786-.613,1.785-1.558,2.484-2.242a3.733,3.733,0,0,0,.621-4.539l-1.472-2.544a3.739,3.739,0,0,0-4.237-1.729c-.947.263-2.271.654-3.194,1.027a.475.475,0,0,1-.409-.034l-2.725-1.57a.469.469,0,0,1-.233-.336,33.345,33.345,0,0,0-.7-3.264,3.74,3.74,0,0,0-3.62-2.806H73.085a3.74,3.74,0,0,0-3.62,2.805,33.26,33.26,0,0,0-.7,3.264.469.469,0,0,1-.233.336L65.8,31.476a.472.472,0,0,1-.41.034c-.923-.372-2.247-.764-3.195-1.027a3.741,3.741,0,0,0-4.237,1.729L56.49,34.755a3.733,3.733,0,0,0,.621,4.539c.7.684,1.7,1.629,2.484,2.242a.466.466,0,0,1,.174.367v3.134a.481.481,0,0,1-.038.183l-46.482,0A5.98,5.98,0,0,0,7.276,51.2l0,56.471a5.935,5.935,0,0,0,.656,2.715H2.5a2.5,2.5,0,0,0-2.5,2.5v4.344A7.285,7.285,0,0,0,7.276,124.5h76.1a1.629,1.629,0,0,0,0-3.258H7.276a4.023,4.023,0,0,1-4.018-4.018v-3.584H43.984v.977a4.24,4.24,0,0,0,4.235,4.235h14.77a4.24,4.24,0,0,0,4.235-4.235v-.977h40.726v3.584a4.023,4.023,0,0,1-4.018,4.018H90.408a1.629,1.629,0,1,0,0,3.258h13.524a7.285,7.285,0,0,0,7.276-7.276v-4.344a2.5,2.5,0,0,0-2.5-2.5ZM50.953,55.359a29.462,29.462,0,0,1,.632,2.9,3.7,3.7,0,0,0,1.833,2.7l2.725,1.57a3.706,3.706,0,0,0,3.254.232,29.815,29.815,0,0,1,2.846-.909.481.481,0,0,1,.547.221l1.472,2.544a.476.476,0,0,1-.081.579,29.523,29.523,0,0,1-2.207,2,3.7,3.7,0,0,0-1.43,2.938v3.134a3.7,3.7,0,0,0,1.43,2.938,29.541,29.541,0,0,1,2.207,2,.476.476,0,0,1,.081.579L62.79,81.336a.484.484,0,0,1-.546.221,29.769,29.769,0,0,1-2.846-.909,3.7,3.7,0,0,0-3.255.232l-2.724,1.569a3.7,3.7,0,0,0-1.833,2.7h0a29.438,29.438,0,0,1-.632,2.9.482.482,0,0,1-.466.363H47.539a.483.483,0,0,1-.466-.363,29.462,29.462,0,0,1-.632-2.9,3.7,3.7,0,0,0-1.833-2.7L41.883,80.88a3.7,3.7,0,0,0-3.254-.232,29.811,29.811,0,0,1-2.846.909.481.481,0,0,1-.547-.221l-1.472-2.544a.476.476,0,0,1,.081-.579,29.593,29.593,0,0,1,2.208-2,3.7,3.7,0,0,0,1.429-2.937V70.141a3.7,3.7,0,0,0-1.43-2.937,29.544,29.544,0,0,1-2.207-2,.476.476,0,0,1-.081-.579l1.472-2.544a.483.483,0,0,1,.546-.221,29.774,29.774,0,0,1,2.846.909,3.706,3.706,0,0,0,3.255-.232l2.724-1.569a3.7,3.7,0,0,0,1.833-2.7,29.439,29.439,0,0,1,.632-2.9A.482.482,0,0,1,47.532,55h2.961a.482.482,0,0,1,.461.363Zm8.438-18.392a.476.476,0,0,1-.081-.579l1.472-2.544a.483.483,0,0,1,.546-.221,29.675,29.675,0,0,1,2.846.909,3.705,3.705,0,0,0,3.255-.232l2.724-1.569a3.7,3.7,0,0,0,1.833-2.7,29.389,29.389,0,0,1,.632-2.9.482.482,0,0,1,.466-.363h2.949a.483.483,0,0,1,.466.363,29.41,29.41,0,0,1,.632,2.9,3.7,3.7,0,0,0,1.833,2.7l2.725,1.57a3.7,3.7,0,0,0,3.254.232,29.78,29.78,0,0,1,2.846-.909.482.482,0,0,1,.547.221l1.472,2.544a.476.476,0,0,1-.081.579,29.571,29.571,0,0,1-2.207,2A3.7,3.7,0,0,0,86.09,41.9v3.134a3.7,3.7,0,0,0,1.43,2.938,29.5,29.5,0,0,1,2.207,2,.476.476,0,0,1,.081.579L88.336,53.1a.483.483,0,0,1-.546.221,29.776,29.776,0,0,1-2.846-.909,3.705,3.705,0,0,0-3.255.232l-2.724,1.569a3.7,3.7,0,0,0-1.833,2.7h0a29.44,29.44,0,0,1-.632,2.9.482.482,0,0,1-.466.363H73.085a.483.483,0,0,1-.466-.363,29.464,29.464,0,0,1-.632-2.9,3.7,3.7,0,0,0-1.833-2.7L67.43,52.644a3.7,3.7,0,0,0-3.254-.232,29.775,29.775,0,0,1-2.846.909.481.481,0,0,1-.547-.221l-.288-.5c-.009-.017-.019-.033-.029-.05l-1.155-2a.476.476,0,0,1,.081-.579,29.63,29.63,0,0,1,2.208-2,3.7,3.7,0,0,0,1.429-2.937V41.9A3.7,3.7,0,0,0,61.6,38.967a29.523,29.523,0,0,1-2.208-2Zm4.576,77.652a.979.979,0,0,1-.977.977H48.219a.979.979,0,0,1-.977-.977v-.977H63.967Z" transform="translate(0 -23.501)" fill="#ff6164"/>
      <path id="Path_45874" data-name="Path 45874" d="M311.232,92.345a8.871,8.871,0,1,0-8.889-8.871A8.89,8.89,0,0,0,311.232,92.345Zm-2.538-3.863h5.077a5.627,5.627,0,0,1-5.077,0Zm2.538-10.62a5.628,5.628,0,0,1,5.631,5.613,5.568,5.568,0,0,1-.282,1.75h-10.7a5.608,5.608,0,0,1,5.349-7.363Z" transform="translate(-236.673 -63.503)" fill="#ff6164"/>
      <path id="Path_45875" data-name="Path 45875" d="M184.73,213.474a8.889,8.889,0,1,0,8.889-8.871A8.89,8.89,0,0,0,184.73,213.474Zm14.52,0a5.631,5.631,0,1,1-5.631-5.613A5.628,5.628,0,0,1,199.25,213.474Z" transform="translate(-144.606 -165.267)" fill="#ff6164"/>
    </g>
  </g>
</svg>
