<svg xmlns="http://www.w3.org/2000/svg" width="106.087" height="101" viewBox="0 0 106.087 101">
  <g id="_002-stethoscope" data-name="002-stethoscope" transform="translate(0 -11.508)">
    <g id="Group_20182" data-name="Group 20182" transform="translate(0 11.508)">
      <g id="Group_20181" data-name="Group 20181" transform="translate(0 0)">
        <path id="Path_45871" data-name="Path 45871" d="M105.958,68.1A12.377,12.377,0,0,0,95.477,57.621V54.407c0-8.869-6.742-16.09-15.029-16.09-8.048,0-14.787,7-15.029,15.609h.1l-.1.018V88.787c0,11.139-8.328,20.184-18.565,20.184S28.289,99.914,28.289,88.787V85.769c2.564,0,5.3-1.858,5.3-7.072V74.25c11.348-2.9,19.449-12.645,19.449-23.692V46.871H49.506L49.432,23.86A8.849,8.849,0,0,0,42.158,15.2a5.276,5.276,0,1,0-.12,3.605,5.3,5.3,0,0,1,3.853,5.06l.08,23H42.434v3.738A14.06,14.06,0,0,1,32.257,63.8a16.077,16.077,0,0,1-9.724,0A14.052,14.052,0,0,1,12.377,50.609V46.871h-5.3V23.886A5.3,5.3,0,0,1,11,18.787a5.329,5.329,0,1,0-.11-3.591,8.841,8.841,0,0,0-7.352,8.69V46.871H0v3.678c0,11.059,8.107,20.807,19.449,23.7V78.7c0,5.214,2.741,7.072,5.3,7.072v3.018c0,13.084,9.914,23.721,22.1,23.721s22.1-10.649,22.1-23.721V54.029c.177-6.71,5.336-12.17,11.493-12.17,6.337,0,11.493,5.63,11.493,12.553v3.209A12.377,12.377,0,1,0,105.958,68.1ZM37.13,18.582A1.768,1.768,0,1,1,38.9,16.814,1.768,1.768,0,0,1,37.13,18.582ZM15.913,15.046a1.768,1.768,0,1,1-1.768,1.768A1.768,1.768,0,0,1,15.913,15.046ZM3.536,50.549v-.141h5.3v.2A17.568,17.568,0,0,0,21.461,67.164a19.674,19.674,0,0,0,11.878,0A17.571,17.571,0,0,0,45.97,50.609v-.2h3.536v.141c0,9.836-7.582,18.491-18.034,20.584a25.221,25.221,0,0,1-7.46.366,23.1,23.1,0,0,1-2.442-.37C11.118,69.04,3.536,60.385,3.536,50.549ZM24.753,82.233c-1.591,0-1.768-2.475-1.768-3.536V74.945c.141.018.286.025.43.039.177.019.354.034.53.05.836.074,1.68.124,2.53.126h.088c.849,0,1.69-.051,2.521-.126.177-.016.364-.03.546-.05.14-.016.285-.021.424-.039V78.7c0,1.061-.177,3.536-1.768,3.536ZM93.709,78.7a8.84,8.84,0,1,1,8.84-8.84A8.841,8.841,0,0,1,93.709,78.7Z" transform="translate(0 -11.508)" fill="#ff6164"/>
      </g>
    </g>
    <g id="Group_20184" data-name="Group 20184" transform="translate(88.404 64.552)">
      <g id="Group_20183" data-name="Group 20183">
        <path id="Path_45872" data-name="Path 45872" d="M405.3,251.515a5.3,5.3,0,1,0,5.3,5.3A5.3,5.3,0,0,0,405.3,251.515Zm0,7.072a1.768,1.768,0,1,1,1.768-1.768A1.768,1.768,0,0,1,405.3,258.587Z" transform="translate(-400 -251.515)" fill="#ff6164"/>
      </g>
    </g>
  </g>
</svg>
