<svg xmlns="http://www.w3.org/2000/svg" width="38.334" height="35.067" viewBox="0 0 38.334 35.067">
  <g id="Group_20164" data-name="Group 20164" transform="translate(-343.078 -1155.174)">
    <g id="Group_20159" data-name="Group 20159">
      <path id="Path_45831" data-name="Path 45831" d="M367.3,1172.851a3.24,3.24,0,0,0-1.379-1.3,28.8,28.8,0,0,0-2.978-.964l.015-3.859a2.413,2.413,0,0,1,2.141,1.845l2.294-.465a4.819,4.819,0,0,0-4.425-3.414l.008-1.592-1.527-.006-.008,1.592q-4.8.555-4.815,4.281a3.63,3.63,0,0,0,.892,2.475q.9,1.038,3.888,1.724l-.017,4.368a3.11,3.11,0,0,1-2.937-2.522l-2.431.542q1.161,3.641,5.359,4l-.008,2.045,1.524.006.009-2.045a5.954,5.954,0,0,0,3.713-1.411,4.045,4.045,0,0,0,1.288-3.047A4.094,4.094,0,0,0,367.3,1172.851Zm-5.881-2.413q-2.3-.306-2.3-1.855a1.6,1.6,0,0,1,.666-1.386,2.83,2.83,0,0,1,1.647-.474Zm3.278,6.506a2.744,2.744,0,0,1-1.783.6l.017-4.234q2.5.46,2.489,2.077A1.939,1.939,0,0,1,364.7,1176.944Z" fill="#4f546b"/>
      <path id="Path_45832" data-name="Path 45832" d="M363.061,1181.773l-1.85-.008.01-2.059a5.719,5.719,0,0,1-5.352-4.1l-.052-.164,2.753-.615.041.146a2.928,2.928,0,0,0,2.619,2.39l.017-4.067c-1.974-.464-3.234-1.038-3.851-1.747a3.8,3.8,0,0,1-.93-2.578c.011-2.53,1.632-4.015,4.817-4.422l.007-1.611,1.851.008-.008,1.611a4.95,4.95,0,0,1,4.419,3.506l.05.166-2.61.53-.044-.133a2.262,2.262,0,0,0-1.824-1.716l-.016,3.561a27.063,27.063,0,0,1,2.882.937,3.409,3.409,0,0,1,1.45,1.361,4.5,4.5,0,0,1-.708,5.5,6.033,6.033,0,0,1-3.662,1.44Zm-1.523-.325,1.2.005.008-2.032.149-.011a5.83,5.83,0,0,0,3.611-1.369,3.9,3.9,0,0,0,1.239-2.932,3.952,3.952,0,0,0-.581-2.173,3.1,3.1,0,0,0-1.307-1.24,28.551,28.551,0,0,0-2.957-.955l-.118-.033.018-4.153.176.017a2.532,2.532,0,0,1,2.23,1.818l1.981-.4a4.646,4.646,0,0,0-4.239-3.135l-.141-.018.008-1.573-1.2-.005-.007,1.573-.142.017c-3.136.363-4.666,1.712-4.676,4.124a3.481,3.481,0,0,0,.856,2.372c.573.662,1.852,1.225,3.8,1.673l.126.029-.019,4.666-.177-.014a3.24,3.24,0,0,1-3.037-2.491l-2.108.468c.784,2.278,2.475,3.5,5.165,3.73l.149.013Zm1.217-3.744.018-4.586.191.035c1.744.324,2.625,1.076,2.621,2.235a2.092,2.092,0,0,1-.781,1.677,2.915,2.915,0,0,1-1.885.637Zm.341-4.2-.017,3.876a2.541,2.541,0,0,0,1.516-.557,1.771,1.771,0,0,0,.666-1.436C365.264,1174.43,364.556,1173.812,363.1,1173.5Zm-1.511-2.882-.186-.025c-1.621-.217-2.44-.895-2.435-2.013a1.755,1.755,0,0,1,.733-1.514,2.988,2.988,0,0,1,1.738-.5h.166Zm-.312-3.734a2.6,2.6,0,0,0-1.385.439,1.432,1.432,0,0,0-.6,1.258c-.005.907.642,1.454,1.972,1.669Z" fill="#4f546b"/>
    </g>
    <g id="Group_20161" data-name="Group 20161">
      <path id="Path_45833" data-name="Path 45833" d="M362.053,1190.241a17.744,17.744,0,0,1-17.835-17.609,17.237,17.237,0,0,1,.6-4.433,2.443,2.443,0,0,1,2.979-1.693,2.38,2.38,0,0,1,1.727,2.916,12.577,12.577,0,0,0-.434,3.232,12.922,12.922,0,0,0,12.987,12.821,13.176,13.176,0,0,0,5.322-1.083,2.456,2.456,0,0,1,3.21,1.216,2.365,2.365,0,0,1-1.242,3.145A18.116,18.116,0,0,1,362.053,1190.241Z" fill="#4f546b"/>
      <g id="Group_20160" data-name="Group 20160">
        <path id="Path_45834" data-name="Path 45834" d="M350.609,1171.621l-.838-8.038-6.693,4.727Z" fill="#4f546b"/>
      </g>
    </g>
    <g id="Group_20163" data-name="Group 20163">
      <path id="Path_45835" data-name="Path 45835" d="M377.288,1178.116a2.5,2.5,0,0,1-.475-.047,2.387,2.387,0,0,1-1.9-2.809,12.553,12.553,0,0,0,.26-2.5,12.921,12.921,0,0,0-12.987-12.821,13.2,13.2,0,0,0-4.924.919,2.453,2.453,0,0,1-3.169-1.322,2.365,2.365,0,0,1,1.347-3.1,18.162,18.162,0,0,1,6.765-1.266,17.746,17.746,0,0,1,17.837,17.609,17.369,17.369,0,0,1-.356,3.424A2.423,2.423,0,0,1,377.288,1178.116Z" fill="#4f546b"/>
      <g id="Group_20162" data-name="Group 20162">
        <path id="Path_45836" data-name="Path 45836" d="M373.7,1173.125l1.317,7.977,6.4-5.1Z" fill="#4f546b"/>
      </g>
    </g>
  </g>
</svg>
