<svg xmlns="http://www.w3.org/2000/svg" width="31.152" height="40.45" viewBox="0 0 31.152 40.45">
  <g id="Group_20158" data-name="Group 20158" transform="translate(-767.823 -1246.027)">
    <g id="Group_20156" data-name="Group 20156">
      <path id="Path_45826" data-name="Path 45826" d="M787.479,1257.748l-7.93-.034c-.98,0-1.712-1.045-1.7-2.42s.746-2.412,1.724-2.407l7.932.033c.972.006,1.707,1.045,1.7,2.422S788.454,1257.751,787.479,1257.748Zm-.014-3.476-7.9-.028a1.477,1.477,0,0,0-.334,1.056,1.352,1.352,0,0,0,.354,1.064l7.883.029a1.4,1.4,0,0,0,.353-1.057A1.35,1.35,0,0,0,787.465,1254.272Z" fill="#4f546b"/>
    </g>
    <g id="Group_20157" data-name="Group 20157">
      <path id="Path_45827" data-name="Path 45827" d="M780.564,1268.837q-.006,1.353,2.01,1.624l.014-3.254a2.464,2.464,0,0,0-1.441.417A1.4,1.4,0,0,0,780.564,1268.837Z" fill="#4f546b"/>
      <path id="Path_45828" data-name="Path 45828" d="M783.9,1272.974l-.017,3.707a2.376,2.376,0,0,0,1.558-.526,1.686,1.686,0,0,0,.637-1.361Q786.083,1273.379,783.9,1272.974Z" fill="#4f546b"/>
      <path id="Path_45829" data-name="Path 45829" d="M787.495,1253.6a.531.531,0,0,1,.166.031,47.581,47.581,0,0,0,2.674-4.134c2.055-3.447-3.019-3.449-6.806-3.465s-8.7-.13-6.913,3.408a23.163,23.163,0,0,0,2.657,4.207.64.64,0,0,1,.293-.079Z" fill="#4f546b"/>
      <path id="Path_45830" data-name="Path 45830" d="M788.438,1255.963c-.152.648-.523,1.108-.956,1.106l-7.931-.032c-.493,0-.9-.6-1-1.4-5.878,3.457-10.7,12.354-10.731,19.375-.037,8.924,6.925,11.432,15.528,11.467s15.585-2.411,15.624-11.336C799,1268.3,793.9,1259.645,788.438,1255.963Zm-1.312,21.254a5.217,5.217,0,0,1-3.249,1.236l-.008,1.792-1.335-.006.006-1.793a4.881,4.881,0,0,1-4.69-3.5l2.127-.476a2.722,2.722,0,0,0,2.57,2.208l.018-3.824a6.637,6.637,0,0,1-3.405-1.508,3.194,3.194,0,0,1-.782-2.168q.016-3.261,4.216-3.748l.008-1.394,1.336.007-.006,1.392a4.214,4.214,0,0,1,3.874,2.989l-2.007.409a2.116,2.116,0,0,0-1.875-1.617l-.016,3.379a24.246,24.246,0,0,1,2.609.844,2.81,2.81,0,0,1,1.206,1.137,3.593,3.593,0,0,1,.531,1.976A3.539,3.539,0,0,1,787.126,1277.217Z" fill="#4f546b"/>
    </g>
  </g>
</svg>
