<svg xmlns="http://www.w3.org/2000/svg" width="31.724" height="46.999" viewBox="0 0 31.724 46.999">
  <path id="_001-man" data-name="001-man" d="M106.787,8.571c0,9.951,0,9.33,0,9.435a.44.44,0,0,1-.878-.029V14.22a7.058,7.058,0,0,0-7.05-7.05H88.868a7.058,7.058,0,0,0-7.05,7.05v3.757a.44.44,0,0,1-.878.029c0-.1,0,.535,0-9.683a3.433,3.433,0,0,1,2.9-3.386A8.526,8.526,0,0,1,91.6,0h6.62a8.571,8.571,0,0,1,8.571,8.571Zm-7.931.165H88.868a5.49,5.49,0,0,0-5.483,5.483c0,.023,0,6.5,0,6.519a10.477,10.477,0,0,0,20.953-.083V14.22a5.489,5.489,0,0,0-5.483-5.483Zm3.329,25.229v2.907a.781.781,0,0,0,.534.742,4.217,4.217,0,0,1,2.893,4v3.6a.8.8,0,0,1-.731.808.783.783,0,0,1-.835-.782V41.67a2.681,2.681,0,0,0-2.564-2.7,2.647,2.647,0,0,0-2.724,2.643v3.6a.8.8,0,0,1-.731.808.783.783,0,0,1-.835-.782V41.613a4.217,4.217,0,0,1,2.893-4,.78.78,0,0,0,.534-.742V33.5a.228.228,0,0,0-.364-.18c-6.407,4.884-6.026,4.673-6.391,4.67-.381,0,.056.245-6.393-4.671a.227.227,0,0,0-.363.18v4.447a.778.778,0,0,0,.448.707,2.938,2.938,0,1,1-2.468,0,.784.784,0,0,0,.454-.71V33.954a.39.39,0,0,0-.434-.39A8.08,8.08,0,0,0,78,41.588v4.627a.783.783,0,0,0,.783.783h30.158a.783.783,0,0,0,.783-.783V41.552a8.084,8.084,0,0,0-7.1-7.975A.39.39,0,0,0,102.185,33.966ZM94.337,35.86l4.179-3.185a.47.47,0,0,0-.435-.82,12.065,12.065,0,0,1-8.424,0,.47.47,0,0,0-.449.815l4.18,3.186a.784.784,0,0,0,.95,0ZM84.952,41.32a1.371,1.371,0,1,0,1.371-1.371A1.372,1.372,0,0,0,84.952,41.32Z" transform="translate(-78)" fill="#4f546b"/>
</svg>
