<svg xmlns="http://www.w3.org/2000/svg" width="40" height="40" viewBox="0 0 40 40">
  <g id="_002-selection" data-name="002-selection" transform="translate(-0.001)">
    <path id="Path_45844" data-name="Path 45844" d="M243.172,7.109a1.171,1.171,0,0,0,1.172-1.172V1.172a1.172,1.172,0,1,0-2.344,0V5.938A1.171,1.171,0,0,0,243.172,7.109Z" transform="translate(-223.093)" fill="#4f546b"/>
    <path id="Path_45845" data-name="Path 45845" d="M374.84,71.642a1.171,1.171,0,0,0-1.657,0l-3.314,3.314a1.172,1.172,0,0,0,1.657,1.657L374.84,73.3A1.171,1.171,0,0,0,374.84,71.642Z" transform="translate(-340.656 -65.729)" fill="#4f546b"/>
    <path id="Path_45846" data-name="Path 45846" d="M426.938,241h-4.766a1.172,1.172,0,0,0,0,2.344h4.766a1.172,1.172,0,0,0,0-2.344Z" transform="translate(-388.109 -222.172)" fill="#4f546b"/>
    <path id="Path_45847" data-name="Path 45847" d="M371.526,368.624a1.172,1.172,0,0,0-1.657,1.657l3.314,3.314a1.172,1.172,0,0,0,1.657-1.657Z" transform="translate(-340.656 -339.509)" fill="#4f546b"/>
    <path id="Path_45848" data-name="Path 45848" d="M72.886,71.641a1.172,1.172,0,0,0,0,1.657L76.2,76.613a1.172,1.172,0,0,0,1.657-1.657l-3.314-3.314a1.171,1.171,0,0,0-1.657,0Z" transform="translate(-66.875 -65.728)" fill="#4f546b"/>
    <path id="Path_45849" data-name="Path 45849" d="M2,297.635a1.172,1.172,0,0,0,1.657,0l3.971-3.97,2.886,2.885a1.185,1.185,0,0,0,1.076.317,1.17,1.17,0,0,0,.849-.734L18,281.424a1.172,1.172,0,0,0-1.508-1.509L1.786,285.479a1.173,1.173,0,0,0-.417,1.926l2.943,2.945-3.968,3.97a1.172,1.172,0,0,0,0,1.657Z" transform="translate(0 -257.978)" fill="#4f546b"/>
    <path id="Path_45850" data-name="Path 45850" d="M218.561,214.516a3.507,3.507,0,0,0-6.986-.445,3.465,3.465,0,0,1,3.842,3.923A3.508,3.508,0,0,0,218.561,214.516Z" transform="translate(-195.045 -194.516)" fill="#4f546b"/>
    <path id="Path_45851" data-name="Path 45851" d="M131.547,142.094a10.61,10.61,0,1,0-10.345-8.549l4.516-1.693c-.005-.1-.031-.2-.031-.3a5.859,5.859,0,1,1,5.859,5.859c-.131,0-.254-.03-.383-.039l-1.693,4.516A10.547,10.547,0,0,0,131.547,142.094Z" transform="translate(-111.546 -111.547)" fill="#4f546b"/>
  </g>
</svg>
