<svg xmlns="http://www.w3.org/2000/svg" xmlns:xlink="http://www.w3.org/1999/xlink" width="501" height="695" viewBox="0 0 501 695">
  <defs>
    <clipPath id="clip-path">
      <rect id="Rectangle_6548" data-name="Rectangle 6548" width="501" height="695" transform="translate(939 205)" fill="#fff"/>
    </clipPath>
  </defs>
  <g id="Mask_Group_31" data-name="Mask Group 31" transform="translate(-939 -205)" clip-path="url(#clip-path)">
    <g id="Group_18782" data-name="Group 18782" transform="translate(939.393 414.399)">
      <g id="Background_Complete" data-name="Background Complete" transform="translate(31.785 -87.877)">
        <g id="Group_18636" data-name="Group 18636" transform="translate(43.746 154.615)">
          <g id="Group_18635" data-name="Group 18635" transform="translate(0 0)">
            <path id="Path_43254" data-name="Path 43254" d="M494.319,221.656c-16.507-24.009-54.99-28.655-76.736-9.263-.445-19.5-13.36-38.155-31.457-45.436s-40.332-2.768-54.158,10.992c3.116-10.912-8.34-21.553-19.674-22.143s-21.807,5.506-31.53,11.359-20.27,11.873-31.593,11.108c-12.258-.828-22.452-9.378-33.911-13.809-28.037-10.841-63.525,8.4-69.738,37.81-31.034-12.529-70.851,7.985-78.666,40.528l454.415,5.305A36.255,36.255,0,0,0,494.319,221.656Z" transform="translate(-66.855 -155.766)" fill="#f5f5f5"/>
          </g>
        </g>
        <g id="Group_18639" data-name="Group 18639" transform="translate(350.12 -71.925)">
          <g id="Group_18638" data-name="Group 18638">
            <g id="Group_18637" data-name="Group 18637">
              <path id="Path_43255" data-name="Path 43255" d="M415.264,96.233c.787-5.709-7.271-10.406-13.326-10.894-2.888-.233-5.886.208-8.622-.745-5.928-2.066-8.294-9.723-14.078-12.162-4.323-1.824-9.3-.2-13.492,1.91s-8.333,4.764-13.017,5.063c-4.073.261-8.5-1.25-12.06.74-2.656,1.483-4.047,4.543-6.494,6.348-2.4,1.766-5.518,2.141-8.489,2.3s-6.047.191-8.753,1.43-4.943,4.1-4.382,7.022Z" transform="translate(-312.465 -71.642)" fill="#fafafa"/>
            </g>
          </g>
        </g>
        <g id="Group_18642" data-name="Group 18642" transform="translate(0 -54.764)">
          <g id="Group_18641" data-name="Group 18641">
            <g id="Group_18640" data-name="Group 18640">
              <path id="Path_43256" data-name="Path 43256" d="M89.145,56.419c.439-3.186-4.058-5.807-7.436-6.079-1.612-.13-3.284.116-4.811-.415-3.307-1.153-4.628-5.425-7.855-6.786-2.412-1.018-5.19-.112-7.528,1.065s-4.65,2.658-7.264,2.825c-2.273.146-4.741-.7-6.73.413-1.482.827-2.258,2.535-3.624,3.543a8.638,8.638,0,0,1-4.736,1.284,13.363,13.363,0,0,0-4.884.8c-1.509.691-2.758,2.288-2.445,3.918Z" transform="translate(-31.785 -42.698)" fill="#fafafa"/>
            </g>
          </g>
        </g>
        <g id="Group_18645" data-name="Group 18645" transform="translate(407.571 -17.359)">
          <g id="Group_18644" data-name="Group 18644">
            <g id="Group_18643" data-name="Group 18643">
              <path id="Path_43257" data-name="Path 43257" d="M476.694,143.656c.9-6.564-8.359-11.964-15.319-12.524-3.319-.268-6.767.24-9.912-.856-6.813-2.375-9.534-11.177-16.182-13.981-4.97-2.1-10.691-.231-15.51,2.194s-9.58,5.477-14.963,5.822c-4.683.3-9.767-1.437-13.864.851-3.052,1.7-4.652,5.222-7.466,7.3-2.752,2.03-6.343,2.46-9.758,2.646s-6.95.221-10.061,1.644-5.682,4.713-5.037,8.072Z" transform="translate(-358.522 -115.386)" fill="#ebebeb"/>
            </g>
          </g>
        </g>
        <g id="Group_18648" data-name="Group 18648" transform="translate(429.854 -121.604)">
          <g id="Group_18647" data-name="Group 18647">
            <g id="Group_18646" data-name="Group 18646">
              <path id="Path_43258" data-name="Path 43258" d="M459.563,51.713c.636-4.619-5.884-8.42-10.783-8.814-2.336-.188-4.764.168-6.977-.6-4.8-1.672-6.711-7.867-11.39-9.841-3.5-1.476-7.526-.162-10.917,1.546s-6.743,3.854-10.532,4.1c-3.3.211-6.874-1.01-9.758.6-2.148,1.2-3.274,3.676-5.254,5.137-1.938,1.428-4.466,1.731-6.869,1.862s-4.892.155-7.081,1.158-4,3.317-3.545,5.681Z" transform="translate(-376.386 -31.816)" fill="#ebebeb"/>
            </g>
          </g>
        </g>
        <g id="Group_18651" data-name="Group 18651" transform="translate(14.243 47.066)">
          <g id="Group_18650" data-name="Group 18650">
            <g id="Group_18649" data-name="Group 18649">
              <path id="Path_43259" data-name="Path 43259" d="M105.093,139.136c.473-3.437-4.378-6.264-8.023-6.559-1.739-.14-3.544.126-5.192-.448-3.568-1.244-4.993-5.854-8.475-7.322-2.6-1.1-5.6-.121-8.123,1.15s-5.017,2.868-7.836,3.049c-2.452.156-5.116-.753-7.261.445-1.6.892-2.436,2.734-3.909,3.821a9.32,9.32,0,0,1-5.111,1.386,14.389,14.389,0,0,0-5.269.862c-1.629.746-2.976,2.467-2.638,4.227Z" transform="translate(-43.203 -124.331)" fill="#ebebeb"/>
            </g>
          </g>
        </g>
        <g id="Group_18654" data-name="Group 18654" transform="translate(73.589 -22.143)">
          <g id="Group_18653" data-name="Group 18653">
            <g id="Group_18652" data-name="Group 18652">
              <path id="Path_43260" data-name="Path 43260" d="M221.554,100.132c1-7.264-9.251-13.239-16.953-13.859-3.674-.3-7.489.266-10.968-.948-7.541-2.627-10.552-12.368-17.909-15.47-5.5-2.32-11.832-.256-17.164,2.429s-10.6,6.06-16.558,6.442c-5.182.332-10.809-1.59-15.342.942-3.378,1.886-5.148,5.778-8.262,8.074-3.046,2.248-7.02,2.723-10.8,2.929s-7.693.243-11.134,1.819-6.288,5.215-5.573,8.933Z" transform="translate(-90.779 -68.849)" fill="#f5f5f5"/>
            </g>
          </g>
        </g>
      </g>
      <g id="Device" transform="translate(40.832 275.835)" opacity="0.639">
        <g id="Group_18656" data-name="Group 18656">
          <path id="Path_43261" data-name="Path 43261" d="M299.2,54.728H244.673C236.791,147.44,212.4,391.959,171.352,437.2H368.715C325.247,391.285,305.568,145.941,299.2,54.728Z" transform="translate(-6.304 -227.438)" fill="#f86f6f"/>
          <g id="Group_18655" data-name="Group 18655" transform="translate(0 136.127)">
            <path id="Path_43262" data-name="Path 43262" d="M231.957,409.206a32.452,32.452,0,0,0-42.839-38.379A52.749,52.749,0,0,0,89.008,386c-.528-.031-1.059-.052-1.594-.052a26.013,26.013,0,0,0-23.326,14.491,15.095,15.095,0,0,0-25.049,8.769Z" transform="translate(-39.038 -335.641)" fill="#f86f6f"/>
            <path id="Path_43263" data-name="Path 43263" d="M490.017,399.02c.036-.435.059-.876.059-1.32a16.221,16.221,0,1,0-32.441,0c0,.444.022.884.057,1.32Z" transform="translate(64.522 -325.456)" fill="#f86f6f"/>
            <path id="Path_43264" data-name="Path 43264" d="M487.88,410.131c.086-.949.136-1.907.136-2.879a31.67,31.67,0,0,0-42.667-29.686,44.233,44.233,0,1,0-87.949,9.161,32.463,32.463,0,0,0-41.068,23.4Z" transform="translate(29.564 -336.567)" fill="#f86f6f"/>
          </g>
        </g>
      </g>
      <g id="Rocket" transform="translate(210.446 -77.915)">
        <g id="Group_18757" data-name="Group 18757" transform="translate(22.5)">
          <g id="Group_18671" data-name="Group 18671" transform="translate(46.609 198.664)">
            <g id="Group_18666" data-name="Group 18666">
              <g id="Group_18660" data-name="Group 18660">
                <g id="Group_18659" data-name="Group 18659">
                  <g id="Group_18658" data-name="Group 18658">
                    <g id="Group_18657" data-name="Group 18657">
                      <path id="Path_43265" data-name="Path 43265" d="M235.457,206.526c-9.586,4.553-13.921,17.679-8.93,27.046,1.968,3.695,5.179,6.947,5.6,11.112.654,6.385-5.389,11.381-7.255,17.523-2.188,7.2,2.592,15.742,9.874,17.644,3.281.857,7.209.709,9.407,3.289,2.8,3.3.781,8.77,3.18,12.372,2.164,3.252,7.217,3.41,10.473,1.251s5.049-5.919,6.333-9.609,2.248-7.573,4.466-10.79c2.439-3.54,6.172-5.949,9.138-9.061,7.139-7.489,9.321-18.727,7.715-28.948s-6.561-19.61-12.16-28.311" transform="translate(-224.343 -206.526)" fill="#e8505b"/>
                    </g>
                  </g>
                </g>
              </g>
              <g id="Group_18665" data-name="Group 18665" opacity="0.3">
                <g id="Group_18664" data-name="Group 18664">
                  <g id="Group_18663" data-name="Group 18663">
                    <g id="Group_18662" data-name="Group 18662">
                      <g id="Group_18661" data-name="Group 18661">
                        <path id="Path_43266" data-name="Path 43266" d="M235.457,206.526c-9.586,4.553-13.921,17.679-8.93,27.046,1.968,3.695,5.179,6.947,5.6,11.112.654,6.385-5.389,11.381-7.255,17.523-2.188,7.2,2.592,15.742,9.874,17.644,3.281.857,7.209.709,9.407,3.289,2.8,3.3.781,8.77,3.18,12.372,2.164,3.252,7.217,3.41,10.473,1.251s5.049-5.919,6.333-9.609,2.248-7.573,4.466-10.79c2.439-3.54,6.172-5.949,9.138-9.061,7.139-7.489,9.321-18.727,7.715-28.948s-6.561-19.61-12.16-28.311" transform="translate(-224.343 -206.526)" fill="#fff"/>
                      </g>
                    </g>
                  </g>
                </g>
              </g>
            </g>
            <g id="Group_18670" data-name="Group 18670" transform="translate(10.415 5.396)">
              <g id="Group_18669" data-name="Group 18669">
                <g id="Group_18668" data-name="Group 18668">
                  <g id="Group_18667" data-name="Group 18667">
                    <path id="Path_43267" data-name="Path 43267" d="M241.808,210.852c-8.119,3.575-11.678,14.838-7.088,22.429,2.8,4.637,8.245,8.824,6.927,14.079-.894,3.564-4.718,5.749-5.815,9.256-1.462,4.668,2.961,9.62,7.816,10.21s9.564-2.011,13.239-5.239c12.742-11.193,15.843-33.185,7.9-48.172" transform="translate(-232.692 -210.852)" fill="#e8505b"/>
                  </g>
                </g>
              </g>
            </g>
          </g>
          <g id="Group_18675" data-name="Group 18675" transform="translate(106.812 132.656)">
            <g id="Group_18674" data-name="Group 18674">
              <g id="Group_18673" data-name="Group 18673">
                <g id="Group_18672" data-name="Group 18672">
                  <path id="Path_43268" data-name="Path 43268" d="M273.8,153.609s41.711,27.595,37.154,75.305l-38.35-17.21Z" transform="translate(-272.606 -153.609)" fill="#e8505b"/>
                </g>
              </g>
            </g>
          </g>
          <g id="Group_18677" data-name="Group 18677" transform="translate(38.698 189.81)">
            <g id="Group_18676" data-name="Group 18676">
              <path id="Path_43269" data-name="Path 43269" d="M218,199.428l9.473,15.7h49.168l9.473-14.8Z" transform="translate(-218.002 -199.428)" fill="#263238"/>
            </g>
          </g>
          <g id="Group_18679" data-name="Group 18679" transform="translate(36.193 31.274)">
            <g id="Group_18678" data-name="Group 18678">
              <path id="Path_43270" data-name="Path 43270" d="M250.01,72.417A36.449,36.449,0,0,0,216,109.536l2.5,122.234h68.113l2.275-122.306A36.45,36.45,0,0,0,250.01,72.417Z" transform="translate(-215.993 -72.334)" fill="#e8505b"/>
            </g>
          </g>
          <g id="Group_18681" data-name="Group 18681" transform="translate(36.193 31.274)" opacity="0.8">
            <g id="Group_18680" data-name="Group 18680">
              <path id="Path_43271" data-name="Path 43271" d="M250.01,72.417A36.449,36.449,0,0,0,216,109.536l2.5,122.234h68.113l2.275-122.306A36.45,36.45,0,0,0,250.01,72.417Z" transform="translate(-215.993 -72.334)" fill="#fff"/>
            </g>
          </g>
          <g id="Group_18685" data-name="Group 18685" transform="translate(0 132.656)">
            <g id="Group_18684" data-name="Group 18684">
              <g id="Group_18683" data-name="Group 18683">
                <g id="Group_18682" data-name="Group 18682">
                  <path id="Path_43272" data-name="Path 43272" d="M224.481,153.609S182.77,181.2,187.326,228.914l38.351-17.21Z" transform="translate(-186.978 -153.609)" fill="#e8505b"/>
                </g>
              </g>
            </g>
          </g>
          <g id="Group_18689" data-name="Group 18689" transform="translate(36.574)">
            <g id="Group_18688" data-name="Group 18688">
              <g id="Group_18687" data-name="Group 18687">
                <g id="Group_18686" data-name="Group 18686">
                  <path id="Path_43273" data-name="Path 43273" d="M216.307,111.686c14.4-12.61,59.616-12.334,71.758-2.073-3.123-45.38-37.772-62.35-37.772-62.35C214.837,71.794,216.307,111.686,216.307,111.686Z" transform="translate(-216.298 -47.263)" fill="#e8505b"/>
                </g>
              </g>
            </g>
          </g>
          <g id="Group_18694" data-name="Group 18694" transform="translate(70.568)">
            <g id="Group_18693" data-name="Group 18693">
              <g id="Group_18692" data-name="Group 18692">
                <g id="Group_18691" data-name="Group 18691">
                  <g id="Group_18690" data-name="Group 18690">
                    <path id="Path_43274" data-name="Path 43274" d="M243.55,47.263s.142.118.407.365l1.168,1.1,1.891,1.8,1.2,1.15,1.289,1.392c.9.99,1.923,2.077,3.007,3.294q1.534,1.91,3.324,4.139c.565.767,1.118,1.584,1.705,2.415.568.843,1.22,1.67,1.77,2.6,1.115,1.85,2.353,3.773,3.409,5.93a68.426,68.426,0,0,1,5.626,14.616,65.906,65.906,0,0,1,1.637,8.587c.2,1.487.324,3.014.53,4.528a43.261,43.261,0,0,1,.166,4.706c.022,12.669-.16,26.59-.322,41.2-.354,29.238-.761,55.7-1.077,74.856-.168,9.57-.3,17.316-.4,22.684-.056,2.669-.1,4.745-.13,6.166q-.028,1.046-.042,1.6c-.012.362-.027.546-.027.546s-.01-.186-.01-.548,0-.907.006-1.6c.014-1.421.034-3.5.06-6.167.067-5.368.163-13.114.282-22.685.248-19.164.59-45.625.968-74.858.163-14.612.355-28.537.352-41.2a43.178,43.178,0,0,0-.155-4.658c-.207-1.543-.323-3.054-.523-4.539a65.777,65.777,0,0,0-1.613-8.551,68.458,68.458,0,0,0-5.56-14.572c-1.047-2.153-2.271-4.075-3.377-5.924-.544-.931-1.191-1.758-1.754-2.6-.581-.831-1.129-1.648-1.688-2.416l-3.293-4.148c-1.074-1.224-2.086-2.315-2.979-3.312q-.675-.741-1.274-1.4l-1.191-1.161-1.865-1.824-1.141-1.126C243.675,47.4,243.55,47.263,243.55,47.263Z" transform="translate(-243.55 -47.263)" fill="#263238"/>
                  </g>
                </g>
              </g>
            </g>
          </g>
          <g id="Group_18704" data-name="Group 18704" transform="translate(49.971 70.564)">
            <g id="Group_18698" data-name="Group 18698">
              <g id="Group_18697" data-name="Group 18697">
                <g id="Group_18696" data-name="Group 18696">
                  <g id="Group_18695" data-name="Group 18695">
                    <ellipse id="Ellipse_2328" data-name="Ellipse 2328" cx="17.982" cy="16.715" rx="17.982" ry="16.715" transform="translate(0 35.118) rotate(-77.55)" fill="#fafafa"/>
                  </g>
                </g>
              </g>
            </g>
            <g id="Group_18703" data-name="Group 18703" transform="translate(3.263 3.175)">
              <g id="Group_18702" data-name="Group 18702">
                <g id="Group_18701" data-name="Group 18701">
                  <g id="Group_18700" data-name="Group 18700">
                    <g id="Group_18699" data-name="Group 18699">
                      <path id="Path_43275" data-name="Path 43275" d="M250.467,106.806a1.523,1.523,0,0,1-.281-.027l-.817-.115-.6-.09-.732-.031-.852-.039c-.3,0-.629.034-.97.051a16.1,16.1,0,0,0-2.262.294,17.129,17.129,0,0,0-8.124,4.327,18.158,18.158,0,0,0-4.454,6.571,16.784,16.784,0,0,0-.691,2.079c-.091.36-.2.718-.279,1.088s-.127.746-.191,1.124l-.1.569-.044.579q-.043.58-.087,1.17c.007.393.014.79.021,1.188l.011.6.069.6a17.724,17.724,0,0,0,3.686,9.282,15.542,15.542,0,0,0,19.531,4.314,17.72,17.72,0,0,0,7.254-6.868l.314-.515.263-.54.52-1.069.413-1.1.2-.544.152-.555.3-1.1c.086-.367.135-.738.2-1.1a16.391,16.391,0,0,0,.249-2.177,18.165,18.165,0,0,0-1.274-7.836,17.327,17.327,0,0,0-3.53-5.536,17.072,17.072,0,0,0-2.017-1.81,16.065,16.065,0,0,0-1.927-1.219c-.3-.16-.583-.326-.858-.454l-.79-.324-.677-.279-.581-.172-.79-.24a1.554,1.554,0,0,1-.267-.094,1.635,1.635,0,0,1,.276.057l.8.2.59.156.687.264.8.312c.281.124.565.287.874.443a15.749,15.749,0,0,1,1.963,1.2,17.14,17.14,0,0,1,2.061,1.809,17.4,17.4,0,0,1,3.624,5.581,18.348,18.348,0,0,1,1.336,7.948,16.715,16.715,0,0,1-.243,2.214c-.067.37-.116.75-.2,1.123s-.2.745-.3,1.12l-.153.566-.206.553q-.208.556-.417,1.119-.262.541-.525,1.09l-.267.549-.318.526a18.024,18.024,0,0,1-7.385,7.018,15.878,15.878,0,0,1-19.976-4.412,18.033,18.033,0,0,1-3.741-9.473l-.067-.611-.011-.611c-.005-.405-.011-.808-.016-1.209q.047-.6.092-1.19l.046-.589.1-.578c.066-.384.133-.765.2-1.143s.195-.738.289-1.1a16.845,16.845,0,0,1,.711-2.111,18.351,18.351,0,0,1,4.559-6.646,17.413,17.413,0,0,1,5.636-3.538,17.065,17.065,0,0,1,2.631-.772,15.853,15.853,0,0,1,2.289-.266c.347-.011.672-.039.979-.034l.859.055.735.05.6.107.813.152A1.6,1.6,0,0,1,250.467,106.806Z" transform="translate(-229.654 -106.378)" fill="#263238"/>
                    </g>
                  </g>
                </g>
              </g>
            </g>
          </g>
          <g id="Group_18706" data-name="Group 18706" transform="translate(38.699 189.81)">
            <g id="Group_18705" data-name="Group 18705">
              <path id="Path_43276" data-name="Path 43276" d="M218,199.428" transform="translate(-218.002 -199.428)" fill="#e0e0e0"/>
            </g>
          </g>
          <g id="Group_18709" data-name="Group 18709" transform="translate(36.198 88.782)">
            <g id="Group_18708" data-name="Group 18708">
              <g id="Group_18707" data-name="Group 18707">
                <path id="Path_43277" data-name="Path 43277" d="M232.741,118.693c0,.213-3.846.107-8.467.946-4.63.807-8.2,2.229-8.275,2.031a7.651,7.651,0,0,1,2.274-1.1,33.4,33.4,0,0,1,11.953-2.126A7.656,7.656,0,0,1,232.741,118.693Z" transform="translate(-215.997 -118.437)" fill="#263238"/>
              </g>
            </g>
          </g>
          <g id="Group_18712" data-name="Group 18712" transform="translate(87.172 87.137)">
            <g id="Group_18711" data-name="Group 18711">
              <g id="Group_18710" data-name="Group 18710">
                <path id="Path_43278" data-name="Path 43278" d="M277.7,118.994a15.793,15.793,0,0,1-3.059-.286c-1.876-.234-4.467-.53-7.34-.733s-5.48-.272-7.37-.3a15.759,15.759,0,0,1-3.069-.146,11.922,11.922,0,0,1,3.06-.346,65.546,65.546,0,0,1,14.794,1.042A11.881,11.881,0,0,1,277.7,118.994Z" transform="translate(-256.861 -117.118)" fill="#263238"/>
              </g>
            </g>
          </g>
          <g id="Group_18715" data-name="Group 18715" transform="translate(37.686 156.655)">
            <g id="Group_18714" data-name="Group 18714">
              <g id="Group_18713" data-name="Group 18713">
                <path id="Path_43279" data-name="Path 43279" d="M287.891,175.158a2.869,2.869,0,0,1-.723,0L285.108,175l-7.565-.58c-6.389-.452-15.231-.883-25-.878s-18.615.465-25,.931l-7.564.6-2.058.156a2.891,2.891,0,0,1-.723.007,2.829,2.829,0,0,1,.708-.146l2.046-.286c1.778-.24,4.358-.523,7.553-.817,6.387-.59,15.246-1.12,25.043-1.135s18.652.506,25.042,1.084c3.195.287,5.777.564,7.554.8l2.047.281A2.893,2.893,0,0,1,287.891,175.158Z" transform="translate(-217.19 -172.848)" fill="#263238"/>
              </g>
            </g>
          </g>
          <g id="Group_18718" data-name="Group 18718" transform="translate(53.249 106.466)">
            <g id="Group_18717" data-name="Group 18717">
              <g id="Group_18716" data-name="Group 18716">
                <path id="Path_43280" data-name="Path 43280" d="M231.169,132.705c0,.1-.423.142-.716.629a1.07,1.07,0,0,0-.135.853.941.941,0,0,0,1.629.127,1.066,1.066,0,0,0,0-.863c-.213-.526-.63-.631-.609-.733-.031-.085.575-.18,1.039.5a1.491,1.491,0,0,1,.155,1.362,1.534,1.534,0,0,1-2.83-.221,1.488,1.488,0,0,1,.364-1.321C230.628,132.437,231.213,132.625,231.169,132.705Z" transform="translate(-229.666 -132.613)" fill="#263238"/>
              </g>
            </g>
          </g>
          <g id="Group_18721" data-name="Group 18721" transform="translate(68.094 114.471)">
            <g id="Group_18720" data-name="Group 18720">
              <g id="Group_18719" data-name="Group 18719">
                <path id="Path_43281" data-name="Path 43281" d="M243.069,139.123c0,.1-.422.142-.715.629a1.07,1.07,0,0,0-.135.853.942.942,0,0,0,1.629.127,1.074,1.074,0,0,0,0-.864c-.215-.525-.63-.63-.609-.732-.032-.085.575-.18,1.039.5a1.489,1.489,0,0,1,.155,1.361,1.534,1.534,0,0,1-2.83-.22,1.5,1.5,0,0,1,.363-1.322C242.529,138.855,243.114,139.043,243.069,139.123Z" transform="translate(-241.567 -139.031)" fill="#263238"/>
              </g>
            </g>
          </g>
          <g id="Group_18724" data-name="Group 18724" transform="translate(84.476 107.646)">
            <g id="Group_18723" data-name="Group 18723">
              <g id="Group_18722" data-name="Group 18722">
                <path id="Path_43282" data-name="Path 43282" d="M256.2,133.651c.005.1-.422.143-.715.63a1.069,1.069,0,0,0-.135.853.941.941,0,0,0,1.629.126,1.072,1.072,0,0,0,0-.863c-.215-.526-.63-.631-.609-.732-.032-.085.575-.181,1.039.5a1.491,1.491,0,0,1,.155,1.362,1.534,1.534,0,0,1-2.83-.221,1.491,1.491,0,0,1,.363-1.321C255.662,133.384,256.247,133.573,256.2,133.651Z" transform="translate(-254.7 -133.56)" fill="#263238"/>
              </g>
            </g>
          </g>
          <g id="Group_18727" data-name="Group 18727" transform="translate(89.793 95.405)">
            <g id="Group_18726" data-name="Group 18726">
              <g id="Group_18725" data-name="Group 18725">
                <path id="Path_43283" data-name="Path 43283" d="M260.465,123.838c0,.1-.423.142-.716.629a1.07,1.07,0,0,0-.133.853.94.94,0,0,0,1.628.127,1.066,1.066,0,0,0,0-.863c-.215-.526-.63-.631-.61-.733-.031-.085.575-.18,1.04.5a1.487,1.487,0,0,1,.153,1.362,1.534,1.534,0,0,1-2.829-.221,1.484,1.484,0,0,1,.363-1.321C259.925,123.57,260.51,123.758,260.465,123.838Z" transform="translate(-258.963 -123.746)" fill="#263238"/>
              </g>
            </g>
          </g>
          <g id="Group_18730" data-name="Group 18730" transform="translate(47.836 94.221)">
            <g id="Group_18729" data-name="Group 18729">
              <g id="Group_18728" data-name="Group 18728">
                <path id="Path_43284" data-name="Path 43284" d="M226.829,122.888c.005.1-.423.143-.716.63a1.069,1.069,0,0,0-.135.853.942.942,0,0,0,1.629.126,1.067,1.067,0,0,0,0-.863c-.215-.525-.631-.63-.61-.732-.031-.085.575-.181,1.04.5a1.489,1.489,0,0,1,.153,1.361,1.533,1.533,0,0,1-2.829-.221,1.485,1.485,0,0,1,.363-1.321C226.289,122.621,226.873,122.81,226.829,122.888Z" transform="translate(-225.327 -122.797)" fill="#263238"/>
              </g>
            </g>
          </g>
          <g id="Group_18733" data-name="Group 18733" transform="translate(84.484 74.806)">
            <g id="Group_18732" data-name="Group 18732">
              <g id="Group_18731" data-name="Group 18731">
                <path id="Path_43285" data-name="Path 43285" d="M256.17,109.95c0-.1.422-.143.715-.63a1.069,1.069,0,0,0,.135-.853.941.941,0,0,0-1.629-.126,1.066,1.066,0,0,0,0,.863c.213.526.63.631.609.732.031.085-.575.181-1.039-.5a1.491,1.491,0,0,1-.155-1.362,1.534,1.534,0,0,1,2.83.221,1.491,1.491,0,0,1-.363,1.321C256.71,110.217,256.125,110.029,256.17,109.95Z" transform="translate(-254.707 -107.232)" fill="#263238"/>
              </g>
            </g>
          </g>
          <g id="Group_18736" data-name="Group 18736" transform="translate(68.102 67.548)">
            <g id="Group_18735" data-name="Group 18735" transform="translate(0 0)">
              <g id="Group_18734" data-name="Group 18734">
                <path id="Path_43286" data-name="Path 43286" d="M243.037,104.132c-.005-.1.422-.143.715-.63a1.069,1.069,0,0,0,.135-.853.941.941,0,0,0-1.629-.126,1.066,1.066,0,0,0,0,.863c.213.525.63.631.609.732.031.085-.575.181-1.039-.5a1.487,1.487,0,0,1-.155-1.362,1.534,1.534,0,0,1,2.83.221,1.488,1.488,0,0,1-.364,1.321C243.577,104.4,242.992,104.211,243.037,104.132Z" transform="translate(-241.573 -101.414)" fill="#263238"/>
              </g>
            </g>
          </g>
          <g id="Group_18739" data-name="Group 18739" transform="translate(51.911 74.806)">
            <g id="Group_18738" data-name="Group 18738">
              <g id="Group_18737" data-name="Group 18737">
                <path id="Path_43287" data-name="Path 43287" d="M230.057,109.95c-.005-.1.422-.143.715-.63a1.069,1.069,0,0,0,.135-.853.941.941,0,0,0-1.629-.126,1.071,1.071,0,0,0,0,.863c.215.526.63.631.609.732.032.085-.575.181-1.039-.5a1.491,1.491,0,0,1-.155-1.362,1.534,1.534,0,0,1,2.83.221,1.491,1.491,0,0,1-.363,1.321C230.6,110.217,230.012,110.029,230.057,109.95Z" transform="translate(-228.594 -107.232)" fill="#263238"/>
              </g>
            </g>
          </g>
          <g id="Group_18750" data-name="Group 18750" transform="translate(67.502 132.656)">
            <g id="Group_18744" data-name="Group 18744">
              <g id="Group_18743" data-name="Group 18743">
                <g id="Group_18742" data-name="Group 18742">
                  <g id="Group_18741" data-name="Group 18741">
                    <g id="Group_18740" data-name="Group 18740">
                      <path id="Path_43288" data-name="Path 43288" d="M241.093,158.629l1.454,72.984a3.84,3.84,0,0,0,3.9,3.762h0a3.831,3.831,0,0,0,3.775-3.786c.145-13.146.626-57.435.707-73.059a4.9,4.9,0,0,0-5.643-4.866h0A4.92,4.92,0,0,0,241.093,158.629Z" transform="translate(-241.092 -153.609)" fill="#e8505b"/>
                    </g>
                  </g>
                </g>
              </g>
            </g>
            <g id="Group_18749" data-name="Group 18749" opacity="0.3">
              <g id="Group_18748" data-name="Group 18748">
                <g id="Group_18747" data-name="Group 18747">
                  <g id="Group_18746" data-name="Group 18746">
                    <g id="Group_18745" data-name="Group 18745">
                      <path id="Path_43289" data-name="Path 43289" d="M241.093,158.629l1.454,72.984a3.84,3.84,0,0,0,3.9,3.762h0a3.831,3.831,0,0,0,3.775-3.786c.145-13.146.626-57.435.707-73.059a4.9,4.9,0,0,0-5.643-4.866h0A4.92,4.92,0,0,0,241.093,158.629Z" transform="translate(-241.092 -153.609)"/>
                    </g>
                  </g>
                </g>
              </g>
            </g>
          </g>
          <g id="Group_18753" data-name="Group 18753" transform="translate(41.643 4.149)">
            <g id="Group_18752" data-name="Group 18752">
              <g id="Group_18751" data-name="Group 18751">
                <path id="Path_43290" data-name="Path 43290" d="M248.473,50.6c.22.247-2.21,2.6-5.732,6.713-1.773,2.048-3.757,4.587-5.83,7.492a95.375,95.375,0,0,0-10.968,20.4c-1.281,3.332-2.3,6.388-3.035,8.995-1.489,5.207-2.112,8.531-2.44,8.484-.241-.029-.135-3.448,1.012-8.844a74.3,74.3,0,0,1,2.666-9.309,79.511,79.511,0,0,1,11.213-20.854,74.345,74.345,0,0,1,6.294-7.357C245.522,52.39,248.316,50.416,248.473,50.6Z" transform="translate(-220.362 -50.589)" fill="#fff"/>
              </g>
            </g>
          </g>
          <g id="Group_18756" data-name="Group 18756" transform="translate(2.662 139.897)">
            <g id="Group_18755" data-name="Group 18755">
              <g id="Group_18754" data-name="Group 18754">
                <path id="Path_43291" data-name="Path 43291" d="M222.359,159.433c.2.308-3.249,2.552-8.062,7.013l-1.865,1.773c-.645.619-1.251,1.327-1.917,2.022-1.356,1.368-2.631,2.985-4.017,4.643a75.9,75.9,0,0,0-13.06,24.725c-.588,2.079-1.2,4.044-1.57,5.935-.2.942-.443,1.842-.59,2.724s-.281,1.728-.413,2.538c-.973,6.489-.881,10.6-1.247,10.612-.143.005-.282-1.015-.409-2.881q-.041-.715-.092-1.554c-.012-.569.016-1.185.029-1.85a43.362,43.362,0,0,1,.258-4.509q.138-1.254.288-2.616c.11-.909.317-1.839.484-2.812.3-1.953.869-3.985,1.425-6.137a69.491,69.491,0,0,1,13.408-25.383c1.464-1.67,2.823-3.284,4.266-4.635.71-.686,1.361-1.382,2.049-1.985s1.361-1.165,2-1.713a43.524,43.524,0,0,1,3.579-2.756c.543-.384,1.035-.756,1.512-1.067l1.337-.8C221.362,159.772,222.283,159.312,222.359,159.433Z" transform="translate(-189.113 -159.414)" fill="#fff"/>
              </g>
            </g>
          </g>
        </g>
        <g id="Group_18763" data-name="Group 18763" transform="translate(0 342.41)">
          <g id="Group_18759" data-name="Group 18759">
            <g id="Group_18758" data-name="Group 18758">
              <path id="Path_43292" data-name="Path 43292" d="M173.668,357.248a9.431,9.431,0,0,1,2.872-17.434c3.419-.674,7.689.294,9.844-2.444,1.957-2.487.48-5.788,1.34-9.79.836-3.891,4.287-5.874,8.071-5.818a11.2,11.2,0,0,1,9.178,5.79,21.9,21.9,0,0,1,2.639,12.09c-1.014,8.623-5.618,13.043-11.339,16.7s-16.572,4.486-22.605.908" transform="translate(-168.94 -321.762)" fill="#e8505b"/>
            </g>
          </g>
          <g id="Group_18762" data-name="Group 18762" opacity="0.8">
            <g id="Group_18761" data-name="Group 18761">
              <g id="Group_18760" data-name="Group 18760">
                <path id="Path_43293" data-name="Path 43293" d="M173.668,357.248a9.431,9.431,0,0,1,2.872-17.434c3.419-.674,7.689.294,9.844-2.444,1.957-2.487.48-5.788,1.34-9.79.836-3.891,4.287-5.874,8.071-5.818a11.2,11.2,0,0,1,9.178,5.79,21.9,21.9,0,0,1,2.639,12.09c-1.014,8.623-5.618,13.043-11.339,16.7s-16.572,4.486-22.605.908" transform="translate(-168.94 -321.762)" fill="#fff"/>
              </g>
            </g>
          </g>
        </g>
        <g id="Group_18769" data-name="Group 18769" transform="translate(141.652 300.917)">
          <g id="Group_18765" data-name="Group 18765">
            <g id="Group_18764" data-name="Group 18764">
              <path id="Path_43294" data-name="Path 43294" d="M285.519,296.383a14.725,14.725,0,0,1,27.373,3.435c1.256,5.294,0,12.014,4.4,15.212,4,2.905,9.06.4,15.357,1.5,6.12,1.072,9.422,6.338,9.561,12.244s-3.481,11.525-8.484,14.668-12.816,5.308-18.706,4.844c-13.517-1.065-20.688-7.985-26.733-16.69s-7.993-25.588-2.772-35.217" transform="translate(-282.498 -288.499)" fill="#e8505b"/>
            </g>
          </g>
          <g id="Group_18768" data-name="Group 18768" opacity="0.8">
            <g id="Group_18767" data-name="Group 18767">
              <g id="Group_18766" data-name="Group 18766">
                <path id="Path_43295" data-name="Path 43295" d="M285.519,296.383a14.725,14.725,0,0,1,27.373,3.435c1.256,5.294,0,12.014,4.4,15.212,4,2.905,9.06.4,15.357,1.5,6.12,1.072,9.422,6.338,9.561,12.244s-3.481,11.525-8.484,14.668-12.816,5.308-18.706,4.844c-13.517-1.065-20.688-7.985-26.733-16.69s-7.993-25.588-2.772-35.217" transform="translate(-282.498 -288.499)" fill="#fff"/>
              </g>
            </g>
          </g>
        </g>
        <g id="Group_18775" data-name="Group 18775" transform="translate(38.933 290.34)">
          <g id="Group_18771" data-name="Group 18771">
            <g id="Group_18770" data-name="Group 18770">
              <path id="Path_43296" data-name="Path 43296" d="M205.085,280.79a9.228,9.228,0,0,0-4.928,8.189,8.735,8.735,0,1,0,4.928-8.189" transform="translate(-200.152 -280.02)" fill="#e8505b"/>
            </g>
          </g>
          <g id="Group_18774" data-name="Group 18774" opacity="0.8">
            <g id="Group_18773" data-name="Group 18773">
              <g id="Group_18772" data-name="Group 18772">
                <path id="Path_43297" data-name="Path 43297" d="M205.085,280.79a9.228,9.228,0,0,0-4.928,8.189,8.735,8.735,0,1,0,4.928-8.189" transform="translate(-200.152 -280.02)" fill="#fff"/>
              </g>
            </g>
          </g>
        </g>
        <g id="Group_18781" data-name="Group 18781" transform="translate(174.028 395.337)">
          <g id="Group_18777" data-name="Group 18777">
            <g id="Group_18776" data-name="Group 18776">
              <path id="Path_43298" data-name="Path 43298" d="M310.919,364.577a4.617,4.617,0,0,0-2.464,4.094,4.368,4.368,0,1,0,2.464-4.094" transform="translate(-308.453 -364.192)" fill="#e8505b"/>
            </g>
          </g>
          <g id="Group_18780" data-name="Group 18780" opacity="0.8">
            <g id="Group_18779" data-name="Group 18779">
              <g id="Group_18778" data-name="Group 18778">
                <path id="Path_43299" data-name="Path 43299" d="M310.919,364.577a4.617,4.617,0,0,0-2.464,4.094,4.368,4.368,0,1,0,2.464-4.094" transform="translate(-308.453 -364.192)" fill="#fff"/>
              </g>
            </g>
          </g>
        </g>
      </g>
    </g>
  </g>
</svg>
