<svg id="_003-date" data-name="003-date" xmlns="http://www.w3.org/2000/svg" width="40" height="40" viewBox="0 0 40 40">
  <g id="Group_20167" data-name="Group 20167" transform="translate(8.571)">
    <g id="Group_20166" data-name="Group 20166">
      <path id="Path_45852" data-name="Path 45852" d="M103.829,0A1.429,1.429,0,0,0,102.4,1.429V4.286h2.857V1.429A1.429,1.429,0,0,0,103.829,0Z" transform="translate(-102.4)" fill="#4f546b"/>
    </g>
  </g>
  <g id="Group_20169" data-name="Group 20169" transform="translate(28.571)">
    <g id="Group_20168" data-name="Group 20168">
      <path id="Path_45853" data-name="Path 45853" d="M342.762,0a1.429,1.429,0,0,0-1.429,1.429V4.286h2.857V1.429A1.428,1.428,0,0,0,342.762,0Z" transform="translate(-341.333)" fill="#4f546b"/>
    </g>
  </g>
  <g id="Group_20171" data-name="Group 20171" transform="translate(0 4.286)">
    <g id="Group_20170" data-name="Group 20170">
      <path id="Path_45854" data-name="Path 45854" d="M35.714,51.2H31.429v5.714a1.429,1.429,0,1,1-2.857,0V51.2H11.429v5.714a1.429,1.429,0,1,1-2.857,0V51.2H4.286A4.286,4.286,0,0,0,0,55.486V82.629a4.286,4.286,0,0,0,4.286,4.286H35.714A4.286,4.286,0,0,0,40,82.629V55.486A4.286,4.286,0,0,0,35.714,51.2Zm1.429,31.429a1.429,1.429,0,0,1-1.429,1.429H4.286a1.429,1.429,0,0,1-1.429-1.429V64.057H37.143Z" transform="translate(0 -51.2)" fill="#4f546b"/>
    </g>
  </g>
  <g id="Group_20173" data-name="Group 20173" transform="translate(10 20)">
    <g id="Group_20172" data-name="Group 20172">
      <path id="Path_45855" data-name="Path 45855" d="M139.045,239.357a1.429,1.429,0,0,0-2.021,0l-10.419,10.419-4.7-4.7a1.429,1.429,0,1,0-2.02,2.021l5.714,5.714a1.428,1.428,0,0,0,2.02,0l11.429-11.429A1.429,1.429,0,0,0,139.045,239.357Z" transform="translate(-119.463 -238.938)" fill="#4f546b"/>
    </g>
  </g>
</svg>
