<svg xmlns="http://www.w3.org/2000/svg" width="42.405" height="30.33" viewBox="0 0 42.405 30.33">
  <g id="Group_20165" data-name="Group 20165" transform="translate(-594.077 -1159.415)">
    <path id="Path_45837" data-name="Path 45837" d="M606.764,1189.745c4.091-5.921,12.321-7.451,18.864-7.235l-.031,3.695,10.885-6.119-10.834-6.208v3.668C616.068,1177.915,609.316,1182.051,606.764,1189.745Z" fill="#4f546b" fill-rule="evenodd"/>
    <path id="Path_45838" data-name="Path 45838" d="M606.764,1189.745c-.754-7.113,4.545-13.462,9.7-17.414l2.4,2.849,4.32-11.536L610.81,1165.7l2.41,2.809C606.123,1174.827,603.665,1182.244,606.764,1189.745Z" fill="#4f546b" fill-rule="evenodd"/>
    <path id="Path_45839" data-name="Path 45839" d="M606.764,1189.745c-5.247-4.975-5.361-13.175-4-19.446l3.708.673-4.265-11.557-8.126,9.364,3.693.638C596.476,1178.719,599.467,1185.947,606.764,1189.745Z" fill="#4f546b" fill-rule="evenodd"/>
  </g>
</svg>
