<svg xmlns="http://www.w3.org/2000/svg" width="97.745" height="101" viewBox="0 0 97.745 101">
  <g id="_004-puzzle" data-name="004-puzzle" transform="translate(-8.25)">
    <g id="Group_20188" data-name="Group 20188" transform="translate(62.359 0)">
      <g id="Group_20187" data-name="Group 20187">
        <g id="Group_20186" data-name="Group 20186">
          <path id="Path_45876" data-name="Path 45876" d="M305.039,52.342a7.908,7.908,0,0,1-6.05-2.824,8.132,8.132,0,0,1-1.91-5.882H284.517a1.973,1.973,0,0,1-1.973-1.973V28.36a1.973,1.973,0,0,1,2.329-1.94l.118.022a4.054,4.054,0,1,0,0-7.976l-.118.022a1.973,1.973,0,0,1-2.328-1.94V1.973A1.973,1.973,0,0,1,284.517,0h32.725a8.949,8.949,0,0,1,8.939,8.939V41.664a1.973,1.973,0,0,1-1.973,1.973H313a8,8,0,0,1-7.849,8.705ZM286.49,39.691H299.4a1.973,1.973,0,0,1,1.94,2.328l-.269,1.469A4.2,4.2,0,0,0,302,46.97a3.934,3.934,0,0,0,3.1,1.426,4.054,4.054,0,0,0,3.926-4.783l-.292-1.594a1.973,1.973,0,0,1,1.941-2.328h11.563V8.939a5,5,0,0,0-4.993-4.993H286.49V14.49a8,8,0,0,1,0,15.928Z" transform="translate(-282.544 0)" fill="#ff6164"/>
        </g>
      </g>
    </g>
    <g id="Group_20193" data-name="Group 20193" transform="translate(8.25 17.673)">
      <g id="Group_20189" data-name="Group 20189">
        <path id="Path_45877" data-name="Path 45877" d="M89.6,140.367a1.973,1.973,0,0,0,1.973-1.973v-7.142a1.973,1.973,0,0,0-1.973-1.973H76.069a1.973,1.973,0,0,0-1.94,2.328l.292,1.594a4.054,4.054,0,0,1-3.926,4.784,3.937,3.937,0,0,1-3.1-1.426,4.2,4.2,0,0,1-.931-3.482l.269-1.47a1.973,1.973,0,0,0-1.941-2.328H51.886v-9.273a8,8,0,0,0,0-15.928V91.561a1.973,1.973,0,0,0-1.973-1.973H17.189A8.949,8.949,0,0,0,8.25,98.527v65.45a8.949,8.949,0,0,0,8.939,8.939h65.45a8.949,8.949,0,0,0,8.939-8.939v-5.725a1.973,1.973,0,0,0-3.945,0v5.725a5,5,0,0,1-4.993,4.993H51.886V156.246a1.973,1.973,0,0,0-2.327-1.941l-.119.022a4.054,4.054,0,1,1,0-7.976l.118.021a1.973,1.973,0,0,0,2.327-1.941V133.224H62.475a8.13,8.13,0,0,0,1.91,5.882A7.974,7.974,0,0,0,78.4,133.224h9.231v5.17a1.972,1.972,0,0,0,1.972,1.973ZM12.2,98.527a5,5,0,0,1,4.993-4.993H47.941v12.6a1.973,1.973,0,0,0,2.327,1.94l.118-.021h0a4.054,4.054,0,1,1,0,7.976l-.119-.022a1.973,1.973,0,0,0-2.328,1.94v11.331H39.477a8.009,8.009,0,0,0-15.37,0H12.2Zm31.393,45.668A8,8,0,0,0,47.941,158.3V168.97H17.189a5,5,0,0,1-4.993-4.993V133.224H25.769a1.973,1.973,0,0,0,1.971-1.887,4.056,4.056,0,0,1,8.1,0,1.973,1.973,0,0,0,1.971,1.887H47.941v9.151a7.978,7.978,0,0,0-4.353,1.819Z" transform="translate(-8.25 -89.588)" fill="#ff6164"/>
      </g>
      <g id="Group_20192" data-name="Group 20192" transform="translate(79.385 56.665)">
        <g id="Group_20191" data-name="Group 20191">
          <g id="Group_20190" data-name="Group 20190">
            <path id="Path_45878" data-name="Path 45878" d="M412.647,380.78a1.971,1.971,0,1,1,1.935-1.586A1.988,1.988,0,0,1,412.647,380.78Z" transform="translate(-410.678 -376.841)" fill="#ff6164"/>
          </g>
        </g>
      </g>
    </g>
  </g>
</svg>
