<svg aria-hidden="true" style="position: absolute; width: 0; height: 0; overflow: hidden;" version="1.1" xmlns="http://www.w3.org/2000/svg" xmlns:xlink="http://www.w3.org/1999/xlink">
<defs>
<symbol id="icon-search" viewBox="0 0 32 32">
<path d="M14.092 0c-7.77 0-14.092 6.322-14.092 14.092s6.322 14.092 14.092 14.092c7.771 0 14.092-6.322 14.092-14.092s-6.322-14.092-14.092-14.092zM14.092 25.583c-6.336 0-11.491-5.155-11.491-11.491s5.155-11.491 11.491-11.491 11.491 5.155 11.491 11.491-5.155 11.491-11.491 11.491z"></path>
<path d="M31.619 29.779l-7.458-7.458c-0.508-0.508-1.331-0.508-1.839 0s-0.508 1.332 0 1.839l7.458 7.458c0.254 0.254 0.587 0.381 0.92 0.381s0.666-0.127 0.92-0.381c0.508-0.508 0.508-1.332 0-1.839z"></path>
</symbol>

<symbol id="icon-workflow" viewBox="0 0 32 32">
<path d="M27.2 4.267h-0.533v1.067h0.533c0.884 0 1.6 0.716 1.6 1.6v14.4h-25.6v-14.4c0-0.884 0.716-1.6 1.6-1.6h0.533v-1.067h-0.533c-1.472 0.002-2.665 1.195-2.667 2.667v16c0.002 1.472 1.195 2.665 2.667 2.667h7.794l-1.778 5.333h-1.749v1.067h13.867v-1.067h-1.749l-1.778-5.333h7.794c1.472-0.002 2.665-1.195 2.667-2.667v-16c-0.002-1.472-1.195-2.665-2.667-2.667zM20.060 30.933h-8.119l1.778-5.333h4.564l1.778 5.333zM28.8 22.933c0 0.884-0.716 1.6-1.6 1.6h-22.4c-0.884 0-1.6-0.716-1.6-1.6v-0.533h25.6v0.533z"></path>
<path d="M24 0h-16c-0.884 0-1.6 0.716-1.6 1.6v18.667h1.067v-18.667c0-0.295 0.239-0.533 0.533-0.533h16c0.295 0 0.533 0.239 0.533 0.533v18.667h1.067v-18.667c0-0.884-0.716-1.6-1.6-1.6z"></path>
<path d="M23.416 12.803c-0.253-1.244-1.347-2.137-2.616-2.136h-6.947c0.729-0.942 0.729-2.258 0-3.2h6.947c1.472-0.002 2.665-1.195 2.667-2.667 0-1.473-1.194-2.667-2.667-2.667s-2.667 1.194-2.667 2.667c0.002 0.579 0.194 1.141 0.547 1.6h-6.947c-1.473 0-2.667 1.194-2.667 2.667s1.194 2.667 2.667 2.667h6.947c-0.729 0.942-0.729 2.258 0 3.2h-6.414c-1.473 0-2.667 1.194-2.667 2.667s1.194 2.667 2.667 2.667 2.667-1.194 2.667-2.667c-0.002-0.579-0.194-1.141-0.547-1.6h6.947v-0.053c1.443-0.293 2.376-1.701 2.083-3.144zM20.8 3.2c0.884 0 1.6 0.716 1.6 1.6s-0.716 1.6-1.6 1.6-1.6-0.716-1.6-1.6 0.716-1.6 1.6-1.6zM11.733 10.667c-0.884 0-1.6-0.716-1.6-1.6s0.716-1.6 1.6-1.6 1.6 0.716 1.6 1.6-0.716 1.6-1.6 1.6zM12.267 19.2c-0.884 0-1.6-0.716-1.6-1.6s0.716-1.6 1.6-1.6 1.6 0.716 1.6 1.6-0.716 1.6-1.6 1.6zM20.8 14.933c-0.884 0-1.6-0.716-1.6-1.6s0.716-1.6 1.6-1.6 1.6 0.716 1.6 1.6-0.716 1.6-1.6 1.6z"></path>
<path d="M20.267 4.267h1.067v1.067h-1.067v-1.067z"></path>
<path d="M11.2 8.533h1.067v1.067h-1.067v-1.067z"></path>
<path d="M20.267 12.8h1.067v1.067h-1.067v-1.067z"></path>
<path d="M11.733 17.067h1.067v1.067h-1.067v-1.067z"></path>
<path d="M8.533 2.133h1.067v1.067h-1.067v-1.067z"></path>
<path d="M10.667 2.133h1.067v1.067h-1.067v-1.067z"></path>
<path d="M12.8 2.133h1.067v1.067h-1.067v-1.067z"></path>
</symbol>

<symbol id="icon-globe" viewBox="0 0 32 32">
<path d="M26.867 16c0-5.992-4.875-10.867-10.867-10.867s-10.867 4.875-10.867 10.867c0 2.821 1.081 5.395 2.85 7.329l-2.311 2.311c-0.337 0.337-0.094 0.91 0.377 0.91 0.136 0 0.273-0.052 0.377-0.156l2.314-2.314c1.936 1.741 4.485 2.787 7.259 2.787 5.992-0 10.866-4.875 10.866-10.867zM21.244 15.467h-4.711v-8.766c1.485 1.172 4.494 4.108 4.711 8.766zM15.467 6.215v9.252h-4.71c0.153-3.221 1.664-5.61 2.943-7.073 0.194-0.222 0.171-0.559-0.050-0.753s-0.559-0.171-0.753 0.050c-1.4 1.601-3.054 4.224-3.208 7.775h-3.474c0.268-4.98 4.272-8.984 9.252-9.252zM6.215 16.533h3.474c0.193 4.529 2.803 7.574 4.529 9.104-4.357-0.804-7.756-4.519-8.003-9.104zM10.756 16.533h4.711v8.761c-2.639-2.095-4.546-5.166-4.711-8.761zM16.533 25.785v-9.252h4.71c-0.158 3.333-1.765 5.783-3.125 7.276-0.198 0.218-0.182 0.555 0.035 0.753s0.555 0.182 0.753-0.035c1.487-1.633 3.246-4.322 3.404-7.994h1.689c0.295 0 0.533-0.239 0.533-0.533s-0.239-0.533-0.533-0.533h-1.689c-0.192-4.528-2.801-7.573-4.527-9.103 4.554 0.841 8.015 4.842 8.015 9.637 0 5.225-4.11 9.507-9.267 9.785zM27.996 27.308l-2.585-2.585c-0.208-0.208-0.546-0.208-0.754 0s-0.208 0.546 0 0.754l2.6 2.6c-1.064 1.702 0.166 3.923 2.177 3.923 1.415 0 2.567-1.151 2.567-2.567 0-2.060-2.313-3.273-4.004-2.125zM29.433 30.933c-0.827 0-1.5-0.673-1.5-1.5s0.673-1.5 1.5-1.5 1.5 0.673 1.5 1.5-0.673 1.5-1.5 1.5zM3.923 4.744l2.6 2.6c0.208 0.208 0.546 0.208 0.754 0s0.208-0.546 0-0.754l-2.585-2.585c1.147-1.691-0.066-4.004-2.125-4.004-1.415 0-2.567 1.151-2.567 2.567 0 2.014 2.225 3.24 3.923 2.177zM2.567 1.067c0.827 0 1.5 0.673 1.5 1.5s-0.673 1.5-1.5 1.5-1.5-0.673-1.5-1.5 0.673-1.5 1.5-1.5zM2.567 26.867c-1.415 0-2.567 1.151-2.567 2.567s1.151 2.567 2.567 2.567 2.567-1.151 2.567-2.567-1.151-2.567-2.567-2.567zM2.567 30.933c-0.827 0-1.5-0.673-1.5-1.5s0.673-1.5 1.5-1.5 1.5 0.673 1.5 1.5-0.673 1.5-1.5 1.5zM25.41 7.277l2.585-2.585c1.691 1.147 4.004-0.066 4.004-2.125 0-1.415-1.151-2.567-2.567-2.567-2.014 0-3.24 2.225-2.177 3.923l-2.6 2.6c-0.208 0.208-0.208 0.546 0 0.754s0.546 0.208 0.754 0zM29.433 1.067c0.827 0 1.5 0.673 1.5 1.5s-0.673 1.5-1.5 1.5-1.5-0.673-1.5-1.5 0.673-1.5 1.5-1.5z"></path>
</symbol>

<symbol id="icon-market" viewBox="0 0 32 32">
<path d="M14.021 7.467c-0.101 0.1-0.158 0.236-0.158 0.379s0.057 0.279 0.158 0.379c0.41 0.331 0.918 0.518 1.445 0.533v0.309c0 0.295 0.239 0.533 0.533 0.533s0.533-0.239 0.533-0.533v-0.309c0.895-0.056 1.593-0.794 1.6-1.691 0-1.472-1.296-1.632-2.069-1.728-0.96-0.123-1.131-0.224-1.131-0.672 0-0.763 1.765-0.928 2.203-0.208 0.147 0.258 0.476 0.347 0.733 0.2s0.347-0.476 0.2-0.733c-0.354-0.519-0.913-0.863-1.536-0.944v-0.315c0-0.295-0.239-0.533-0.533-0.533s-0.533 0.239-0.533 0.533v0.325c-0.873 0.088-1.552 0.799-1.6 1.675 0 1.472 1.296 1.632 2.069 1.728 0.96 0.123 1.131 0.224 1.131 0.672 0 0.581-0.667 0.667-1.067 0.667-0.424 0.032-0.849-0.061-1.221-0.267-0.1-0.101-0.236-0.158-0.379-0.158s-0.279 0.057-0.379 0.158z"></path>
<path d="M7.669 14.933c-0.837 4.176-0.709 3.531-0.725 3.664s-0.011-0.464-0.011 2.736c0.001 0.519 0.254 1.004 0.678 1.303s0.966 0.374 1.455 0.201v3.829c-0.589 0-1.067 0.478-1.067 1.067v3.2h-1.6c-0.295 0-0.533 0.239-0.533 0.533s0.239 0.533 0.533 0.533h19.2c0.295 0 0.533-0.239 0.533-0.533s-0.239-0.533-0.533-0.533h-1.6v-3.2c0-0.589-0.478-1.067-1.067-1.067v-3.829c0.489 0.173 1.031 0.098 1.455-0.201s0.677-0.785 0.678-1.303c0-3.472 0.149-1.984-0.736-6.4-0.253-1.242-1.346-2.134-2.613-2.133h-11.435c-1.267-0-2.36 0.892-2.613 2.133zM8.533 21.867c-0.295 0-0.533-0.239-0.533-0.533v-2.133h1.067v2.133c0 0.295-0.239 0.533-0.533 0.533zM11.2 19.2v2.133c0 0.295-0.239 0.533-0.533 0.533s-0.533-0.239-0.533-0.533v-2.133zM13.333 19.2v2.133c0 0.295-0.239 0.533-0.533 0.533s-0.533-0.239-0.533-0.533v-2.133zM15.467 19.2v2.133c0 0.295-0.239 0.533-0.533 0.533s-0.533-0.239-0.533-0.533v-2.133zM17.6 19.2v2.133c0 0.295-0.239 0.533-0.533 0.533s-0.533-0.239-0.533-0.533v-2.133zM19.733 19.2v2.133c0 0.295-0.239 0.533-0.533 0.533s-0.533-0.239-0.533-0.533v-2.133zM21.867 19.2v2.133c0 0.295-0.239 0.533-0.533 0.533s-0.533-0.239-0.533-0.533v-2.133zM12.267 26.667v-3.829c0.551 0.204 1.17 0.080 1.6-0.32 0.607 0.543 1.526 0.543 2.133 0 0.607 0.543 1.526 0.543 2.133 0 0.431 0.399 1.049 0.522 1.6 0.32v3.829zM10.133 22.837c0.344 0.128 0.723 0.128 1.067 0v3.829h-1.067zM9.067 30.933v-3.2h13.867v3.2zM20.8 26.667v-3.829c0.344 0.128 0.723 0.128 1.067 0v3.829zM24 21.333c0 0.295-0.239 0.533-0.533 0.533s-0.533-0.239-0.533-0.533v-2.133h1.067zM10.283 13.867h11.435c0.762 0 1.418 0.538 1.568 1.285l0.597 2.981h-15.765l0.597-2.981c0.15-0.747 0.806-1.285 1.568-1.285z"></path>
<path d="M29.488 25.067c0 0.295 0.239 0.533 0.533 0.533h0.379c0.346 0 0.683-0.112 0.96-0.32 0.152-0.114 0.232-0.301 0.209-0.49s-0.145-0.352-0.32-0.427c-0.175-0.075-0.377-0.051-0.529 0.064-0.192 0.144-0.384 0.107-0.699 0.107-0.295 0-0.533 0.239-0.533 0.533z"></path>
<path d="M25.6 5.333h-1.067c-0.295 0-0.533 0.239-0.533 0.533s0.239 0.533 0.533 0.533h1.067c0.295 0 0.533-0.239 0.533-0.533s-0.239-0.533-0.533-0.533z"></path>
<path d="M27.733 6.4h1.067c0.295 0 0.533-0.239 0.533-0.533s-0.239-0.533-0.533-0.533h-1.067c-0.295 0-0.533 0.239-0.533 0.533s0.239 0.533 0.533 0.533z"></path>
<path d="M31.467 11.659c-0.295 0-0.533 0.239-0.533 0.533v1.067c0 0.295 0.239 0.533 0.533 0.533s0.533-0.239 0.533-0.533v-1.067c0-0.295-0.239-0.533-0.533-0.533z"></path>
<path d="M30.656 6.464c0.16 0.087 0.265 0.25 0.277 0.432 0.013 0.191 0.127 0.359 0.299 0.443s0.375 0.069 0.533-0.037c0.158-0.107 0.248-0.29 0.234-0.481-0.038-0.543-0.35-1.029-0.827-1.291-0.258-0.147-0.586-0.058-0.733 0.2s-0.058 0.586 0.2 0.733z"></path>
<path d="M31.467 8.459c-0.295 0-0.533 0.239-0.533 0.533v1.067c0 0.295 0.239 0.533 0.533 0.533s0.533-0.239 0.533-0.533v-1.067c0-0.295-0.239-0.533-0.533-0.533z"></path>
<path d="M31.467 14.859c-0.295 0-0.533 0.239-0.533 0.533v1.067c0 0.295 0.239 0.533 0.533 0.533s0.533-0.239 0.533-0.533v-1.067c0-0.295-0.239-0.533-0.533-0.533z"></path>
<path d="M31.467 18.059c-0.295 0-0.533 0.239-0.533 0.533v1.067c0 0.295 0.239 0.533 0.533 0.533s0.533-0.239 0.533-0.533v-1.067c0-0.295-0.239-0.533-0.533-0.533z"></path>
<path d="M31.467 21.259c-0.295 0-0.533 0.239-0.533 0.533v1.067c0 0.295 0.239 0.533 0.533 0.533s0.533-0.239 0.533-0.533v-1.067c0-0.295-0.239-0.533-0.533-0.533z"></path>
<path d="M24.747 24.64c-0.134 0.101-0.213 0.259-0.213 0.427s0.079 0.326 0.213 0.427c2.277 1.707 2.208 1.707 2.453 1.707 0.23 0 0.433-0.147 0.506-0.365s-0.002-0.458-0.186-0.595l-0.853-0.64h1.221c0.295 0 0.533-0.239 0.533-0.533s-0.239-0.533-0.533-0.533h-1.221l0.853-0.64c0.236-0.177 0.283-0.511 0.107-0.747s-0.511-0.283-0.747-0.107z"></path>
<path d="M0 10.059c0 0.295 0.239 0.533 0.533 0.533s0.533-0.239 0.533-0.533v-1.067c0-0.295-0.239-0.533-0.533-0.533s-0.533 0.239-0.533 0.533z"></path>
<path d="M0.832 5.531c-0.479 0.26-0.793 0.747-0.832 1.291-0.018 0.291 0.2 0.543 0.491 0.565 0.142 0.012 0.282-0.033 0.39-0.125s0.175-0.224 0.186-0.365c0.012-0.182 0.117-0.345 0.277-0.432 0.258-0.147 0.347-0.476 0.2-0.733s-0.476-0.347-0.733-0.2z"></path>
<path d="M0 13.259c0 0.295 0.239 0.533 0.533 0.533s0.533-0.239 0.533-0.533v-1.067c0-0.295-0.239-0.533-0.533-0.533s-0.533 0.239-0.533 0.533z"></path>
<path d="M0 16.459c0 0.295 0.239 0.533 0.533 0.533s0.533-0.239 0.533-0.533v-1.067c0-0.295-0.239-0.533-0.533-0.533s-0.533 0.239-0.533 0.533z"></path>
<path d="M1.979 24.533c-0.341 0-0.533 0.032-0.699-0.107-0.236-0.177-0.57-0.129-0.747 0.107s-0.129 0.57 0.107 0.747c0.391 0.27 0.868 0.384 1.339 0.32 0.295 0 0.533-0.239 0.533-0.533s-0.239-0.533-0.533-0.533z"></path>
<path d="M0 19.659c0 0.295 0.239 0.533 0.533 0.533s0.533-0.239 0.533-0.533v-1.067c0-0.295-0.239-0.533-0.533-0.533s-0.533 0.239-0.533 0.533z"></path>
<path d="M10.16 6.4c0.208 3.080 2.767 5.471 5.853 5.471s5.645-2.392 5.853-5.471h0.533c0.295 0 0.533-0.239 0.533-0.533s-0.239-0.533-0.533-0.533h-0.533c-0.288-3.010-2.816-5.308-5.84-5.308s-5.552 2.298-5.84 5.308h-0.587c-0.295 0-0.533 0.239-0.533 0.533s0.239 0.533 0.533 0.533zM16 1.067c2.651 0 4.8 2.149 4.8 4.8s-2.149 4.8-4.8 4.8-4.8-2.149-4.8-4.8c0-2.651 2.149-4.8 4.8-4.8z"></path>
<path d="M7.467 5.333h-1.067c-0.295 0-0.533 0.239-0.533 0.533s0.239 0.533 0.533 0.533h1.067c0.295 0 0.533-0.239 0.533-0.533s-0.239-0.533-0.533-0.533z"></path>
<path d="M4.267 5.333h-1.067c-0.295 0-0.533 0.239-0.533 0.533s0.239 0.533 0.533 0.533h1.067c0.295 0 0.533-0.239 0.533-0.533s-0.239-0.533-0.533-0.533z"></path>
<path d="M0 22.859c0 0.295 0.239 0.533 0.533 0.533s0.533-0.239 0.533-0.533v-1.067c0-0.295-0.239-0.533-0.533-0.533s-0.533 0.239-0.533 0.533z"></path>
<path d="M4.373 23.147c-0.177 0.236-0.129 0.57 0.107 0.747l0.853 0.64h-1.221c-0.295 0-0.533 0.239-0.533 0.533s0.239 0.533 0.533 0.533h1.221l-0.853 0.64c-0.236 0.177-0.283 0.511-0.107 0.747s0.511 0.283 0.747 0.107l2.133-1.6c0.134-0.101 0.213-0.259 0.213-0.427s-0.079-0.326-0.213-0.427l-2.133-1.6c-0.113-0.085-0.255-0.121-0.395-0.101s-0.266 0.095-0.351 0.208z"></path>
</symbol>

<symbol id="icon-right" viewBox="0 0 20 20">
<path d="M16.172 9l-6.071-6.071 1.414-1.414 8.485 8.485-8.485 8.485-1.414-1.414 6.071-6.071h-16.172v-2z"></path>
</symbol>

<symbol id="icon-left" viewBox="0 0 20 20">
<path d="M3.828 9l6.071-6.071-1.414-1.414-8.485 8.485 8.485 8.485 1.414-1.414-6.071-6.071h16.172v-2h-16.172z"></path>
</symbol>

<symbol id="icon-quote" viewBox="0 0 32 32">
<path d="M12.856 7.495c0.8-0.336 1.136-1.291 0.774-2.065l-1.265-2.659c-0.361-0.748-1.239-1.084-2.014-0.748-2.194 0.929-4.079 2.143-5.576 3.614-1.833 1.729-3.072 3.717-3.743 5.911-0.671 2.22-1.033 5.24-1.033 9.087v7.925c0 0.852 0.697 1.549 1.549 1.549h10.145c0.852 0 1.549-0.697 1.549-1.549v-10.145c0-0.852-0.697-1.549-1.549-1.549h-4.853c0.052-2.608 0.671-4.698 1.807-6.273 0.929-1.264 2.323-2.297 4.208-3.098z"></path>
<path d="M31.081 7.495c0.8-0.336 1.136-1.291 0.774-2.065l-1.265-2.633c-0.361-0.749-1.239-1.084-2.014-0.749-2.168 0.929-4.027 2.143-5.55 3.588-1.833 1.755-3.098 3.743-3.769 5.937-0.671 2.168-1.006 5.189-1.006 9.061v7.925c0 0.852 0.697 1.549 1.549 1.549h10.145c0.852 0 1.549-0.697 1.549-1.549v-10.145c0-0.852-0.697-1.549-1.549-1.549h-4.879c0.052-2.608 0.671-4.698 1.807-6.273 0.929-1.265 2.323-2.297 4.208-3.098z"></path>
</symbol>

<symbol id="icon-rocket" viewBox="0 0 32 32">
<path d="M8.41 13.003c-0.027-0.398 0.084-1.625-0.344-1.227-1.021 0.949-2 2.19-2 2.19-0.263 0.25-0.478 0.751-0.478 1.114v9.236c0 0.363 0.215 0.455 0.478 0.205l3.883-4.057c0.252-0.255 0.045-0.507-0.034-0.668-0.784-1.585-1.32-4.050-1.504-6.792z"></path>
<path d="M25.934 13.965c0 0-0.979-1.24-2-2.19-0.427-0.397-0.317 0.829-0.344 1.227-0.184 2.743-0.72 5.207-1.504 6.792-0.080 0.161-0.287 0.413-0.034 0.668l3.883 4.057c0.263 0.25 0.478 0.158 0.478-0.205v-9.236c0-0.363-0.215-0.864-0.478-1.114z"></path>
<path d="M16.005 20.971c3.895 0 4.841-0.916 4.841-0.916 1.129-1.895 1.821-5.515 1.821-9.367 0-5.844-5.133-10.687-6.676-10.687-1.537 0-6.677 4.843-6.677 10.687 0 3.739 0.693 7.472 1.822 9.367 0 0 0.889 0.916 4.869 0.916zM15.92 5.095c1.879 0 3.402 1.523 3.402 3.402s-1.523 3.402-3.402 3.402c-1.879 0-3.402-1.523-3.402-3.402s1.523-3.402 3.402-3.402z"></path>
<path d="M20.772 21.338c-0.164-0.638-0.258 0.583-4.814 0.59-4.556-0.007-4.649-1.228-4.814-0.59-0.032 0.125-0.187 1.487-0.235 1.979-0.061 0.632-0.191 1.41-0.191 2.229 0 1.93 1.084 3.529 1.613 3.529 0.565 0 1.1-1.416 1.1-1.416 0.067-0.11 0.162-0.102 0.211 0.017 0 0 1.236 4.324 2.277 4.324 0.013 0 0.027-0.004 0.040-0.005 0.013 0.001 0.026 0.005 0.039 0.005 1.041 0 2.277-4.324 2.277-4.324 0.049-0.119 0.144-0.127 0.211-0.017 0 0 0.535 1.416 1.1 1.416 0.529 0 1.613-1.599 1.613-3.529 0-0.819-0.13-1.597-0.191-2.229-0.048-0.492-0.202-1.855-0.235-1.979z"></path>
</symbol>

<symbol id="icon-send" viewBox="0 0 32 32">
<path d="M11.667 23.483v6.184c0 0.432 0.277 0.815 0.688 0.951 0.103 0.033 0.208 0.049 0.312 0.049 0.312 0 0.613-0.147 0.805-0.408l3.617-4.923z"></path>
<path d="M31.58 0.185c-0.307-0.217-0.709-0.247-1.043-0.072l-30 15.667c-0.355 0.185-0.564 0.564-0.535 0.963 0.031 0.4 0.296 0.741 0.673 0.871l8.34 2.851 17.761-15.187-13.744 16.559 13.977 4.777c0.104 0.035 0.213 0.053 0.323 0.053 0.181 0 0.361-0.049 0.52-0.145 0.253-0.155 0.425-0.415 0.469-0.707l3.667-24.667c0.055-0.373-0.103-0.744-0.409-0.963z"></path>
</symbol>

<symbol id="icon-fb" viewBox="0 0 32 32">
<path d="M23.999 0.007l-4.15-0.007c-4.662 0-7.675 3.091-7.675 7.875v3.631h-4.172c-0.361 0-0.652 0.292-0.652 0.653v5.261c0 0.361 0.292 0.652 0.652 0.652h4.172v13.275c0 0.361 0.292 0.653 0.652 0.653h5.444c0.361 0 0.652-0.292 0.652-0.652v-13.275h4.878c0.361 0 0.652-0.292 0.652-0.652l0.002-5.261c0-0.173-0.069-0.339-0.191-0.461s-0.289-0.191-0.462-0.191h-4.88v-3.078c0-1.479 0.353-2.23 2.28-2.23l2.795-0.001c0.36 0 0.652-0.292 0.652-0.652v-4.885c0-0.36-0.292-0.652-0.651-0.652z"></path>
</symbol>

<symbol id="icon-linkedin" viewBox="0 0 32 32">
<path d="M4.622 1.625c-2.2 0-3.638 1.445-3.638 3.343 0 1.857 1.395 3.342 3.554 3.342h0.042c2.243 0 3.639-1.486 3.639-3.342-0.042-1.899-1.396-3.343-3.596-3.343z"></path>
<path d="M1.365 10.952h6.431v19.348h-6.431z"></path>
<path d="M23.581 10.498c-3.469 0-5.796 3.26-5.796 3.26v-2.806h-6.431v19.348h6.431v-10.805c0-0.578 0.042-1.156 0.212-1.57 0.465-1.155 1.523-2.352 3.3-2.352 2.327 0 3.258 1.774 3.258 4.375v10.351h6.43v-11.094c0-5.943-3.173-8.708-7.404-8.708z"></path>
</symbol>

<symbol id="icon-arrow-right" viewBox="0 0 20 20">
<path d="M12.95 10.707l0.707-0.707-5.657-5.657-1.414 1.414 4.242 4.243-4.242 4.243 1.414 1.414 4.95-4.95z"></path>
</symbol>

<symbol id="icon-address" viewBox="0 0 32 32">
<path d="M16 0c-6.518 0-11.821 5.303-11.821 11.821 0 2.146 0.962 4.454 1.003 4.551 0.311 0.738 0.924 1.884 1.366 2.555l8.105 12.281c0.332 0.503 0.823 0.792 1.347 0.792s1.015-0.289 1.347-0.791l8.106-12.281c0.443-0.672 1.056-1.818 1.366-2.555 0.040-0.097 1.002-2.405 1.002-4.551 0-6.518-5.303-11.821-11.821-11.821zM25.537 15.832c-0.277 0.661-0.848 1.727-1.245 2.329l-8.106 12.281c-0.16 0.243-0.211 0.243-0.371 0l-8.106-12.281c-0.397-0.602-0.968-1.669-1.245-2.33-0.012-0.028-0.894-2.153-0.894-4.011 0-5.751 4.679-10.43 10.43-10.43s10.43 4.679 10.43 10.43c0 1.861-0.884 3.991-0.894 4.011z"></path>
<path d="M16 5.564c-3.451 0-6.258 2.808-6.258 6.258s2.807 6.258 6.258 6.258c3.451 0 6.258-2.808 6.258-6.258s-2.807-6.258-6.258-6.258zM16 16.689c-2.683 0-4.867-2.183-4.867-4.867s2.184-4.867 4.867-4.867 4.867 2.183 4.867 4.867-2.184 4.867-4.867 4.867z"></path>
</symbol>

<symbol id="icon-mail" viewBox="0 0 32 32">
<path d="M30.359 5.333h-28.718c-0.903 0-1.641 0.738-1.641 1.641v18.051c0 0.902 0.738 1.641 1.641 1.641h28.718c0.902 0 1.641-0.738 1.641-1.641v-18.051c-0-0.903-0.738-1.641-1.641-1.641zM29.743 6.564l-12.799 9.6c-0.23 0.175-0.583 0.285-0.944 0.283-0.361 0.002-0.714-0.108-0.944-0.283l-12.799-9.6h27.486zM22.906 16.798l6.974 8.615c0.007 0.009 0.016 0.015 0.023 0.023h-27.807c0.007-0.008 0.016-0.014 0.023-0.023l6.974-8.615c0.214-0.264 0.173-0.651-0.091-0.866s-0.652-0.173-0.865 0.091l-6.906 8.531v-17.221l13.087 9.815c0.492 0.366 1.090 0.528 1.682 0.529 0.591-0.001 1.19-0.163 1.682-0.529l13.087-9.815v17.221l-6.906-8.531c-0.214-0.264-0.601-0.305-0.865-0.091s-0.305 0.602-0.091 0.866z"></path>
</symbol>

<symbol id="icon-phone" viewBox="0 0 32 32">
<path d="M14.53 24.395c-0.244 0.244-0.244 0.639 0 0.884s0.64 0.244 0.884 0c0.244-0.244 0.244-0.64 0-0.884s-0.639-0.244-0.884 0z"></path>
<path d="M30.557 23.31l-4.745-4.035c-0.022-0.019-0.045-0.036-0.069-0.051-1.245-0.792-2.843-0.617-3.887 0.427l-2.587 2.587c-0.179 0.179-0.447 0.232-0.681 0.136-2.921-1.209-5.321-3.028-7.133-5.407-1.382-1.814-1.88-3.256-1.945-3.459-0.008-0.043-0.020-0.087-0.038-0.129-0.097-0.234-0.044-0.501 0.136-0.68l2.587-2.588c1.044-1.044 1.219-2.642 0.427-3.887-0.006-0.010-0.013-0.020-0.020-0.030l-3.427-4.762c-1.078-1.673-3.426-1.925-4.836-0.516l-0.518 0.518c-0 0-0.001 0.001-0.001 0.001l-1.85 1.85c-2.206 2.206-2.566 5.52-1.043 9.586 1.305 3.482 3.917 7.294 7.354 10.731 3.519 3.519 7.433 6.179 11.022 7.49 3.552 1.298 7.33 1.458 10.004-1.217l1.744-1.744c1.403-1.403 1.158-3.736-0.493-4.821zM25.038 20.257l4.741 4.032c0.022 0.019 0.045 0.036 0.069 0.051 1.013 0.645 1.166 2.061 0.319 2.908l-0.129 0.13-8.086-6.054 0.789-0.789c0.616-0.617 1.556-0.728 2.298-0.277zM8.13 2.118c0.006 0.010 0.013 0.020 0.020 0.030l3.425 4.76c0.465 0.745 0.358 1.696-0.265 2.318l-0.764 0.765-5.471-8.045 0.147-0.147c0.851-0.851 2.266-0.69 2.908 0.319zM19.731 29.918c-3.421-1.25-7.174-3.807-10.567-7.2-3.314-3.314-5.824-6.967-7.068-10.286-0.933-2.491-1.56-5.947 0.757-8.263l1.322-1.323 5.471 8.045-0.923 0.923c-0.525 0.524-0.69 1.299-0.428 1.99 0.197 0.81 1.105 2.49 2.021 3.728 1.348 1.822 3.794 4.342 7.793 5.996 0.703 0.291 1.504 0.131 2.042-0.407l0.906-0.906 8.086 6.054-0.722 0.722c-2.483 2.483-6.097 1.875-8.691 0.927z"></path>
<path d="M13.357 22.903c-0.66-0.579-1.802-1.574-2.403-2.193-1.475-1.515-3.022-3.352-3.942-4.679-0.197-0.284-0.586-0.354-0.87-0.158s-0.354 0.586-0.158 0.87c1.16 1.674 2.865 3.597 4.073 4.839 0.635 0.653 1.786 1.658 2.475 2.261 0.259 0.227 0.654 0.202 0.882-0.058s0.202-0.654-0.058-0.882z"></path>
</symbol>
</defs>
</svg>
