<svg aria-hidden="true" style="position: absolute; width: 0; height: 0; overflow: hidden;" version="1.1" xmlns="http://www.w3.org/2000/svg" xmlns:xlink="http://www.w3.org/1999/xlink">
<defs>
<symbol id="icon-search" viewBox="0 0 32 32">
<path d="M14.092 0c-7.77 0-14.092 6.322-14.092 14.092s6.322 14.092 14.092 14.092c7.771 0 14.092-6.322 14.092-14.092s-6.322-14.092-14.092-14.092zM14.092 25.583c-6.336 0-11.491-5.155-11.491-11.491s5.155-11.491 11.491-11.491 11.491 5.155 11.491 11.491-5.155 11.491-11.491 11.491z"></path>
<path d="M31.619 29.779l-7.458-7.458c-0.508-0.508-1.331-0.508-1.839 0s-0.508 1.332 0 1.839l7.458 7.458c0.254 0.254 0.587 0.381 0.92 0.381s0.666-0.127 0.92-0.381c0.508-0.508 0.508-1.332 0-1.839z"></path>
</symbol>

<symbol id="icon-workflow" viewBox="0 0 32 32">
<path d="M27.2 4.267h-0.533v1.067h0.533c0.884 0 1.6 0.716 1.6 1.6v14.4h-25.6v-14.4c0-0.884 0.716-1.6 1.6-1.6h0.533v-1.067h-0.533c-1.472 0.002-2.665 1.195-2.667 2.667v16c0.002 1.472 1.195 2.665 2.667 2.667h7.794l-1.778 5.333h-1.749v1.067h13.867v-1.067h-1.749l-1.778-5.333h7.794c1.472-0.002 2.665-1.195 2.667-2.667v-16c-0.002-1.472-1.195-2.665-2.667-2.667zM20.060 30.933h-8.119l1.778-5.333h4.564l1.778 5.333zM28.8 22.933c0 0.884-0.716 1.6-1.6 1.6h-22.4c-0.884 0-1.6-0.716-1.6-1.6v-0.533h25.6v0.533z"></path>
<path d="M24 0h-16c-0.884 0-1.6 0.716-1.6 1.6v18.667h1.067v-18.667c0-0.295 0.239-0.533 0.533-0.533h16c0.295 0 0.533 0.239 0.533 0.533v18.667h1.067v-18.667c0-0.884-0.716-1.6-1.6-1.6z"></path>
<path d="M23.416 12.803c-0.253-1.244-1.347-2.137-2.616-2.136h-6.947c0.729-0.942 0.729-2.258 0-3.2h6.947c1.472-0.002 2.665-1.195 2.667-2.667 0-1.473-1.194-2.667-2.667-2.667s-2.667 1.194-2.667 2.667c0.002 0.579 0.194 1.141 0.547 1.6h-6.947c-1.473 0-2.667 1.194-2.667 2.667s1.194 2.667 2.667 2.667h6.947c-0.729 0.942-0.729 2.258 0 3.2h-6.414c-1.473 0-2.667 1.194-2.667 2.667s1.194 2.667 2.667 2.667 2.667-1.194 2.667-2.667c-0.002-0.579-0.194-1.141-0.547-1.6h6.947v-0.053c1.443-0.293 2.376-1.701 2.083-3.144zM20.8 3.2c0.884 0 1.6 0.716 1.6 1.6s-0.716 1.6-1.6 1.6-1.6-0.716-1.6-1.6 0.716-1.6 1.6-1.6zM11.733 10.667c-0.884 0-1.6-0.716-1.6-1.6s0.716-1.6 1.6-1.6 1.6 0.716 1.6 1.6-0.716 1.6-1.6 1.6zM12.267 19.2c-0.884 0-1.6-0.716-1.6-1.6s0.716-1.6 1.6-1.6 1.6 0.716 1.6 1.6-0.716 1.6-1.6 1.6zM20.8 14.933c-0.884 0-1.6-0.716-1.6-1.6s0.716-1.6 1.6-1.6 1.6 0.716 1.6 1.6-0.716 1.6-1.6 1.6z"></path>
<path d="M20.267 4.267h1.067v1.067h-1.067v-1.067z"></path>
<path d="M11.2 8.533h1.067v1.067h-1.067v-1.067z"></path>
<path d="M20.267 12.8h1.067v1.067h-1.067v-1.067z"></path>
<path d="M11.733 17.067h1.067v1.067h-1.067v-1.067z"></path>
<path d="M8.533 2.133h1.067v1.067h-1.067v-1.067z"></path>
<path d="M10.667 2.133h1.067v1.067h-1.067v-1.067z"></path>
<path d="M12.8 2.133h1.067v1.067h-1.067v-1.067z"></path>
</symbol>

<symbol id="icon-globe" viewBox="0 0 32 32">
<path d="M26.867 16c0-5.992-4.875-10.867-10.867-10.867s-10.867 4.875-10.867 10.867c0 2.821 1.081 5.395 2.85 7.329l-2.311 2.311c-0.337 0.337-0.094 0.91 0.377 0.91 0.136 0 0.273-0.052 0.377-0.156l2.314-2.314c1.936 1.741 4.485 2.787 7.259 2.787 5.992-0 10.866-4.875 10.866-10.867zM21.244 15.467h-4.711v-8.766c1.485 1.172 4.494 4.108 4.711 8.766zM15.467 6.215v9.252h-4.71c0.153-3.221 1.664-5.61 2.943-7.073 0.194-0.222 0.171-0.559-0.050-0.753s-0.559-0.171-0.753 0.050c-1.4 1.601-3.054 4.224-3.208 7.775h-3.474c0.268-4.98 4.272-8.984 9.252-9.252zM6.215 16.533h3.474c0.193 4.529 2.803 7.574 4.529 9.104-4.357-0.804-7.756-4.519-8.003-9.104zM10.756 16.533h4.711v8.761c-2.639-2.095-4.546-5.166-4.711-8.761zM16.533 25.785v-9.252h4.71c-0.158 3.333-1.765 5.783-3.125 7.276-0.198 0.218-0.182 0.555 0.035 0.753s0.555 0.182 0.753-0.035c1.487-1.633 3.246-4.322 3.404-7.994h1.689c0.295 0 0.533-0.239 0.533-0.533s-0.239-0.533-0.533-0.533h-1.689c-0.192-4.528-2.801-7.573-4.527-9.103 4.554 0.841 8.015 4.842 8.015 9.637 0 5.225-4.11 9.507-9.267 9.785zM27.996 27.308l-2.585-2.585c-0.208-0.208-0.546-0.208-0.754 0s-0.208 0.546 0 0.754l2.6 2.6c-1.064 1.702 0.166 3.923 2.177 3.923 1.415 0 2.567-1.151 2.567-2.567 0-2.060-2.313-3.273-4.004-2.125zM29.433 30.933c-0.827 0-1.5-0.673-1.5-1.5s0.673-1.5 1.5-1.5 1.5 0.673 1.5 1.5-0.673 1.5-1.5 1.5zM3.923 4.744l2.6 2.6c0.208 0.208 0.546 0.208 0.754 0s0.208-0.546 0-0.754l-2.585-2.585c1.147-1.691-0.066-4.004-2.125-4.004-1.415 0-2.567 1.151-2.567 2.567 0 2.014 2.225 3.24 3.923 2.177zM2.567 1.067c0.827 0 1.5 0.673 1.5 1.5s-0.673 1.5-1.5 1.5-1.5-0.673-1.5-1.5 0.673-1.5 1.5-1.5zM2.567 26.867c-1.415 0-2.567 1.151-2.567 2.567s1.151 2.567 2.567 2.567 2.567-1.151 2.567-2.567-1.151-2.567-2.567-2.567zM2.567 30.933c-0.827 0-1.5-0.673-1.5-1.5s0.673-1.5 1.5-1.5 1.5 0.673 1.5 1.5-0.673 1.5-1.5 1.5zM25.41 7.277l2.585-2.585c1.691 1.147 4.004-0.066 4.004-2.125 0-1.415-1.151-2.567-2.567-2.567-2.014 0-3.24 2.225-2.177 3.923l-2.6 2.6c-0.208 0.208-0.208 0.546 0 0.754s0.546 0.208 0.754 0zM29.433 1.067c0.827 0 1.5 0.673 1.5 1.5s-0.673 1.5-1.5 1.5-1.5-0.673-1.5-1.5 0.673-1.5 1.5-1.5z"></path>
</symbol>

<symbol id="icon-market" viewBox="0 0 32 32">
<path d="M14.021 7.467c-0.101 0.1-0.158 0.236-0.158 0.379s0.057 0.279 0.158 0.379c0.41 0.331 0.918 0.518 1.445 0.533v0.309c0 0.295 0.239 0.533 0.533 0.533s0.533-0.239 0.533-0.533v-0.309c0.895-0.056 1.593-0.794 1.6-1.691 0-1.472-1.296-1.632-2.069-1.728-0.96-0.123-1.131-0.224-1.131-0.672 0-0.763 1.765-0.928 2.203-0.208 0.147 0.258 0.476 0.347 0.733 0.2s0.347-0.476 0.2-0.733c-0.354-0.519-0.913-0.863-1.536-0.944v-0.315c0-0.295-0.239-0.533-0.533-0.533s-0.533 0.239-0.533 0.533v0.325c-0.873 0.088-1.552 0.799-1.6 1.675 0 1.472 1.296 1.632 2.069 1.728 0.96 0.123 1.131 0.224 1.131 0.672 0 0.581-0.667 0.667-1.067 0.667-0.424 0.032-0.849-0.061-1.221-0.267-0.1-0.101-0.236-0.158-0.379-0.158s-0.279 0.057-0.379 0.158z"></path>
<path d="M7.669 14.933c-0.837 4.176-0.709 3.531-0.725 3.664s-0.011-0.464-0.011 2.736c0.001 0.519 0.254 1.004 0.678 1.303s0.966 0.374 1.455 0.201v3.829c-0.589 0-1.067 0.478-1.067 1.067v3.2h-1.6c-0.295 0-0.533 0.239-0.533 0.533s0.239 0.533 0.533 0.533h19.2c0.295 0 0.533-0.239 0.533-0.533s-0.239-0.533-0.533-0.533h-1.6v-3.2c0-0.589-0.478-1.067-1.067-1.067v-3.829c0.489 0.173 1.031 0.098 1.455-0.201s0.677-0.785 0.678-1.303c0-3.472 0.149-1.984-0.736-6.4-0.253-1.242-1.346-2.134-2.613-2.133h-11.435c-1.267-0-2.36 0.892-2.613 2.133zM8.533 21.867c-0.295 0-0.533-0.239-0.533-0.533v-2.133h1.067v2.133c0 0.295-0.239 0.533-0.533 0.533zM11.2 19.2v2.133c0 0.295-0.239 0.533-0.533 0.533s-0.533-0.239-0.533-0.533v-2.133zM13.333 19.2v2.133c0 0.295-0.239 0.533-0.533 0.533s-0.533-0.239-0.533-0.533v-2.133zM15.467 19.2v2.133c0 0.295-0.239 0.533-0.533 0.533s-0.533-0.239-0.533-0.533v-2.133zM17.6 19.2v2.133c0 0.295-0.239 0.533-0.533 0.533s-0.533-0.239-0.533-0.533v-2.133zM19.733 19.2v2.133c0 0.295-0.239 0.533-0.533 0.533s-0.533-0.239-0.533-0.533v-2.133zM21.867 19.2v2.133c0 0.295-0.239 0.533-0.533 0.533s-0.533-0.239-0.533-0.533v-2.133zM12.267 26.667v-3.829c0.551 0.204 1.17 0.080 1.6-0.32 0.607 0.543 1.526 0.543 2.133 0 0.607 0.543 1.526 0.543 2.133 0 0.431 0.399 1.049 0.522 1.6 0.32v3.829zM10.133 22.837c0.344 0.128 0.723 0.128 1.067 0v3.829h-1.067zM9.067 30.933v-3.2h13.867v3.2zM20.8 26.667v-3.829c0.344 0.128 0.723 0.128 1.067 0v3.829zM24 21.333c0 0.295-0.239 0.533-0.533 0.533s-0.533-0.239-0.533-0.533v-2.133h1.067zM10.283 13.867h11.435c0.762 0 1.418 0.538 1.568 1.285l0.597 2.981h-15.765l0.597-2.981c0.15-0.747 0.806-1.285 1.568-1.285z"></path>
<path d="M29.488 25.067c0 0.295 0.239 0.533 0.533 0.533h0.379c0.346 0 0.683-0.112 0.96-0.32 0.152-0.114 0.232-0.301 0.209-0.49s-0.145-0.352-0.32-0.427c-0.175-0.075-0.377-0.051-0.529 0.064-0.192 0.144-0.384 0.107-0.699 0.107-0.295 0-0.533 0.239-0.533 0.533z"></path>
<path d="M25.6 5.333h-1.067c-0.295 0-0.533 0.239-0.533 0.533s0.239 0.533 0.533 0.533h1.067c0.295 0 0.533-0.239 0.533-0.533s-0.239-0.533-0.533-0.533z"></path>
<path d="M27.733 6.4h1.067c0.295 0 0.533-0.239 0.533-0.533s-0.239-0.533-0.533-0.533h-1.067c-0.295 0-0.533 0.239-0.533 0.533s0.239 0.533 0.533 0.533z"></path>
<path d="M31.467 11.659c-0.295 0-0.533 0.239-0.533 0.533v1.067c0 0.295 0.239 0.533 0.533 0.533s0.533-0.239 0.533-0.533v-1.067c0-0.295-0.239-0.533-0.533-0.533z"></path>
<path d="M30.656 6.464c0.16 0.087 0.265 0.25 0.277 0.432 0.013 0.191 0.127 0.359 0.299 0.443s0.375 0.069 0.533-0.037c0.158-0.107 0.248-0.29 0.234-0.481-0.038-0.543-0.35-1.029-0.827-1.291-0.258-0.147-0.586-0.058-0.733 0.2s-0.058 0.586 0.2 0.733z"></path>
<path d="M31.467 8.459c-0.295 0-0.533 0.239-0.533 0.533v1.067c0 0.295 0.239 0.533 0.533 0.533s0.533-0.239 0.533-0.533v-1.067c0-0.295-0.239-0.533-0.533-0.533z"></path>
<path d="M31.467 14.859c-0.295 0-0.533 0.239-0.533 0.533v1.067c0 0.295 0.239 0.533 0.533 0.533s0.533-0.239 0.533-0.533v-1.067c0-0.295-0.239-0.533-0.533-0.533z"></path>
<path d="M31.467 18.059c-0.295 0-0.533 0.239-0.533 0.533v1.067c0 0.295 0.239 0.533 0.533 0.533s0.533-0.239 0.533-0.533v-1.067c0-0.295-0.239-0.533-0.533-0.533z"></path>
<path d="M31.467 21.259c-0.295 0-0.533 0.239-0.533 0.533v1.067c0 0.295 0.239 0.533 0.533 0.533s0.533-0.239 0.533-0.533v-1.067c0-0.295-0.239-0.533-0.533-0.533z"></path>
<path d="M24.747 24.64c-0.134 0.101-0.213 0.259-0.213 0.427s0.079 0.326 0.213 0.427c2.277 1.707 2.208 1.707 2.453 1.707 0.23 0 0.433-0.147 0.506-0.365s-0.002-0.458-0.186-0.595l-0.853-0.64h1.221c0.295 0 0.533-0.239 0.533-0.533s-0.239-0.533-0.533-0.533h-1.221l0.853-0.64c0.236-0.177 0.283-0.511 0.107-0.747s-0.511-0.283-0.747-0.107z"></path>
<path d="M0 10.059c0 0.295 0.239 0.533 0.533 0.533s0.533-0.239 0.533-0.533v-1.067c0-0.295-0.239-0.533-0.533-0.533s-0.533 0.239-0.533 0.533z"></path>
<path d="M0.832 5.531c-0.479 0.26-0.793 0.747-0.832 1.291-0.018 0.291 0.2 0.543 0.491 0.565 0.142 0.012 0.282-0.033 0.39-0.125s0.175-0.224 0.186-0.365c0.012-0.182 0.117-0.345 0.277-0.432 0.258-0.147 0.347-0.476 0.2-0.733s-0.476-0.347-0.733-0.2z"></path>
<path d="M0 13.259c0 0.295 0.239 0.533 0.533 0.533s0.533-0.239 0.533-0.533v-1.067c0-0.295-0.239-0.533-0.533-0.533s-0.533 0.239-0.533 0.533z"></path>
<path d="M0 16.459c0 0.295 0.239 0.533 0.533 0.533s0.533-0.239 0.533-0.533v-1.067c0-0.295-0.239-0.533-0.533-0.533s-0.533 0.239-0.533 0.533z"></path>
<path d="M1.979 24.533c-0.341 0-0.533 0.032-0.699-0.107-0.236-0.177-0.57-0.129-0.747 0.107s-0.129 0.57 0.107 0.747c0.391 0.27 0.868 0.384 1.339 0.32 0.295 0 0.533-0.239 0.533-0.533s-0.239-0.533-0.533-0.533z"></path>
<path d="M0 19.659c0 0.295 0.239 0.533 0.533 0.533s0.533-0.239 0.533-0.533v-1.067c0-0.295-0.239-0.533-0.533-0.533s-0.533 0.239-0.533 0.533z"></path>
<path d="M10.16 6.4c0.208 3.080 2.767 5.471 5.853 5.471s5.645-2.392 5.853-5.471h0.533c0.295 0 0.533-0.239 0.533-0.533s-0.239-0.533-0.533-0.533h-0.533c-0.288-3.010-2.816-5.308-5.84-5.308s-5.552 2.298-5.84 5.308h-0.587c-0.295 0-0.533 0.239-0.533 0.533s0.239 0.533 0.533 0.533zM16 1.067c2.651 0 4.8 2.149 4.8 4.8s-2.149 4.8-4.8 4.8-4.8-2.149-4.8-4.8c0-2.651 2.149-4.8 4.8-4.8z"></path>
<path d="M7.467 5.333h-1.067c-0.295 0-0.533 0.239-0.533 0.533s0.239 0.533 0.533 0.533h1.067c0.295 0 0.533-0.239 0.533-0.533s-0.239-0.533-0.533-0.533z"></path>
<path d="M4.267 5.333h-1.067c-0.295 0-0.533 0.239-0.533 0.533s0.239 0.533 0.533 0.533h1.067c0.295 0 0.533-0.239 0.533-0.533s-0.239-0.533-0.533-0.533z"></path>
<path d="M0 22.859c0 0.295 0.239 0.533 0.533 0.533s0.533-0.239 0.533-0.533v-1.067c0-0.295-0.239-0.533-0.533-0.533s-0.533 0.239-0.533 0.533z"></path>
<path d="M4.373 23.147c-0.177 0.236-0.129 0.57 0.107 0.747l0.853 0.64h-1.221c-0.295 0-0.533 0.239-0.533 0.533s0.239 0.533 0.533 0.533h1.221l-0.853 0.64c-0.236 0.177-0.283 0.511-0.107 0.747s0.511 0.283 0.747 0.107l2.133-1.6c0.134-0.101 0.213-0.259 0.213-0.427s-0.079-0.326-0.213-0.427l-2.133-1.6c-0.113-0.085-0.255-0.121-0.395-0.101s-0.266 0.095-0.351 0.208z"></path>
</symbol>

<symbol id="icon-right" viewBox="0 0 20 20">
<path d="M16.172 9l-6.071-6.071 1.414-1.414 8.485 8.485-8.485 8.485-1.414-1.414 6.071-6.071h-16.172v-2z"></path>
</symbol>

<symbol id="icon-left" viewBox="0 0 20 20">
<path d="M3.828 9l6.071-6.071-1.414-1.414-8.485 8.485 8.485 8.485 1.414-1.414-6.071-6.071h16.172v-2h-16.172z"></path>
</symbol>

<symbol id="icon-quote" viewBox="0 0 32 32">
<path d="M12.856 7.495c0.8-0.336 1.136-1.291 0.774-2.065l-1.265-2.659c-0.361-0.748-1.239-1.084-2.014-0.748-2.194 0.929-4.079 2.143-5.576 3.614-1.833 1.729-3.072 3.717-3.743 5.911-0.671 2.22-1.033 5.24-1.033 9.087v7.925c0 0.852 0.697 1.549 1.549 1.549h10.145c0.852 0 1.549-0.697 1.549-1.549v-10.145c0-0.852-0.697-1.549-1.549-1.549h-4.853c0.052-2.608 0.671-4.698 1.807-6.273 0.929-1.264 2.323-2.297 4.208-3.098z"></path>
<path d="M31.081 7.495c0.8-0.336 1.136-1.291 0.774-2.065l-1.265-2.633c-0.361-0.749-1.239-1.084-2.014-0.749-2.168 0.929-4.027 2.143-5.55 3.588-1.833 1.755-3.098 3.743-3.769 5.937-0.671 2.168-1.006 5.189-1.006 9.061v7.925c0 0.852 0.697 1.549 1.549 1.549h10.145c0.852 0 1.549-0.697 1.549-1.549v-10.145c0-0.852-0.697-1.549-1.549-1.549h-4.879c0.052-2.608 0.671-4.698 1.807-6.273 0.929-1.265 2.323-2.297 4.208-3.098z"></path>
</symbol>

<symbol id="icon-rocket" viewBox="0 0 32 32">
<path d="M8.41 13.003c-0.027-0.398 0.084-1.625-0.344-1.227-1.021 0.949-2 2.19-2 2.19-0.263 0.25-0.478 0.751-0.478 1.114v9.236c0 0.363 0.215 0.455 0.478 0.205l3.883-4.057c0.252-0.255 0.045-0.507-0.034-0.668-0.784-1.585-1.32-4.050-1.504-6.792z"></path>
<path d="M25.934 13.965c0 0-0.979-1.24-2-2.19-0.427-0.397-0.317 0.829-0.344 1.227-0.184 2.743-0.72 5.207-1.504 6.792-0.080 0.161-0.287 0.413-0.034 0.668l3.883 4.057c0.263 0.25 0.478 0.158 0.478-0.205v-9.236c0-0.363-0.215-0.864-0.478-1.114z"></path>
<path d="M16.005 20.971c3.895 0 4.841-0.916 4.841-0.916 1.129-1.895 1.821-5.515 1.821-9.367 0-5.844-5.133-10.687-6.676-10.687-1.537 0-6.677 4.843-6.677 10.687 0 3.739 0.693 7.472 1.822 9.367 0 0 0.889 0.916 4.869 0.916zM15.92 5.095c1.879 0 3.402 1.523 3.402 3.402s-1.523 3.402-3.402 3.402c-1.879 0-3.402-1.523-3.402-3.402s1.523-3.402 3.402-3.402z"></path>
<path d="M20.772 21.338c-0.164-0.638-0.258 0.583-4.814 0.59-4.556-0.007-4.649-1.228-4.814-0.59-0.032 0.125-0.187 1.487-0.235 1.979-0.061 0.632-0.191 1.41-0.191 2.229 0 1.93 1.084 3.529 1.613 3.529 0.565 0 1.1-1.416 1.1-1.416 0.067-0.11 0.162-0.102 0.211 0.017 0 0 1.236 4.324 2.277 4.324 0.013 0 0.027-0.004 0.040-0.005 0.013 0.001 0.026 0.005 0.039 0.005 1.041 0 2.277-4.324 2.277-4.324 0.049-0.119 0.144-0.127 0.211-0.017 0 0 0.535 1.416 1.1 1.416 0.529 0 1.613-1.599 1.613-3.529 0-0.819-0.13-1.597-0.191-2.229-0.048-0.492-0.202-1.855-0.235-1.979z"></path>
</symbol>

<symbol id="icon-send" viewBox="0 0 32 32">
<path d="M11.667 23.483v6.184c0 0.432 0.277 0.815 0.688 0.951 0.103 0.033 0.208 0.049 0.312 0.049 0.312 0 0.613-0.147 0.805-0.408l3.617-4.923z"></path>
<path d="M31.58 0.185c-0.307-0.217-0.709-0.247-1.043-0.072l-30 15.667c-0.355 0.185-0.564 0.564-0.535 0.963 0.031 0.4 0.296 0.741 0.673 0.871l8.34 2.851 17.761-15.187-13.744 16.559 13.977 4.777c0.104 0.035 0.213 0.053 0.323 0.053 0.181 0 0.361-0.049 0.52-0.145 0.253-0.155 0.425-0.415 0.469-0.707l3.667-24.667c0.055-0.373-0.103-0.744-0.409-0.963z"></path>
</symbol>

<symbol id="icon-fb" viewBox="0 0 32 32">
<path d="M23.999 0.007l-4.15-0.007c-4.662 0-7.675 3.091-7.675 7.875v3.631h-4.172c-0.361 0-0.652 0.292-0.652 0.653v5.261c0 0.361 0.292 0.652 0.652 0.652h4.172v13.275c0 0.361 0.292 0.653 0.652 0.653h5.444c0.361 0 0.652-0.292 0.652-0.652v-13.275h4.878c0.361 0 0.652-0.292 0.652-0.652l0.002-5.261c0-0.173-0.069-0.339-0.191-0.461s-0.289-0.191-0.462-0.191h-4.88v-3.078c0-1.479 0.353-2.23 2.28-2.23l2.795-0.001c0.36 0 0.652-0.292 0.652-0.652v-4.885c0-0.36-0.292-0.652-0.651-0.652z"></path>
</symbol>

<symbol id="icon-linkedin" viewBox="0 0 32 32">
<path d="M4.622 1.625c-2.2 0-3.638 1.445-3.638 3.343 0 1.857 1.395 3.342 3.554 3.342h0.042c2.243 0 3.639-1.486 3.639-3.342-0.042-1.899-1.396-3.343-3.596-3.343z"></path>
<path d="M1.365 10.952h6.431v19.348h-6.431z"></path>
<path d="M23.581 10.498c-3.469 0-5.796 3.26-5.796 3.26v-2.806h-6.431v19.348h6.431v-10.805c0-0.578 0.042-1.156 0.212-1.57 0.465-1.155 1.523-2.352 3.3-2.352 2.327 0 3.258 1.774 3.258 4.375v10.351h6.43v-11.094c0-5.943-3.173-8.708-7.404-8.708z"></path>
</symbol>

<symbol id="icon-arrow-right" viewBox="0 0 20 20">
<path d="M12.95 10.707l0.707-0.707-5.657-5.657-1.414 1.414 4.242 4.243-4.242 4.243 1.414 1.414 4.95-4.95z"></path>
</symbol>

<symbol id="icon-address" viewBox="0 0 32 32">
<path d="M16 0c-6.518 0-11.821 5.303-11.821 11.821 0 2.146 0.962 4.454 1.003 4.551 0.311 0.738 0.924 1.884 1.366 2.555l8.105 12.281c0.332 0.503 0.823 0.792 1.347 0.792s1.015-0.289 1.347-0.791l8.106-12.281c0.443-0.672 1.056-1.818 1.366-2.555 0.040-0.097 1.002-2.405 1.002-4.551 0-6.518-5.303-11.821-11.821-11.821zM25.537 15.832c-0.277 0.661-0.848 1.727-1.245 2.329l-8.106 12.281c-0.16 0.243-0.211 0.243-0.371 0l-8.106-12.281c-0.397-0.602-0.968-1.669-1.245-2.33-0.012-0.028-0.894-2.153-0.894-4.011 0-5.751 4.679-10.43 10.43-10.43s10.43 4.679 10.43 10.43c0 1.861-0.884 3.991-0.894 4.011z"></path>
<path d="M16 5.564c-3.451 0-6.258 2.808-6.258 6.258s2.807 6.258 6.258 6.258c3.451 0 6.258-2.808 6.258-6.258s-2.807-6.258-6.258-6.258zM16 16.689c-2.683 0-4.867-2.183-4.867-4.867s2.184-4.867 4.867-4.867 4.867 2.183 4.867 4.867-2.184 4.867-4.867 4.867z"></path>
</symbol>

<symbol id="icon-mail" viewBox="0 0 32 32">
<path d="M30.359 5.333h-28.718c-0.903 0-1.641 0.738-1.641 1.641v18.051c0 0.902 0.738 1.641 1.641 1.641h28.718c0.902 0 1.641-0.738 1.641-1.641v-18.051c-0-0.903-0.738-1.641-1.641-1.641zM29.743 6.564l-12.799 9.6c-0.23 0.175-0.583 0.285-0.944 0.283-0.361 0.002-0.714-0.108-0.944-0.283l-12.799-9.6h27.486zM22.906 16.798l6.974 8.615c0.007 0.009 0.016 0.015 0.023 0.023h-27.807c0.007-0.008 0.016-0.014 0.023-0.023l6.974-8.615c0.214-0.264 0.173-0.651-0.091-0.866s-0.652-0.173-0.865 0.091l-6.906 8.531v-17.221l13.087 9.815c0.492 0.366 1.090 0.528 1.682 0.529 0.591-0.001 1.19-0.163 1.682-0.529l13.087-9.815v17.221l-6.906-8.531c-0.214-0.264-0.601-0.305-0.865-0.091s-0.305 0.602-0.091 0.866z"></path>
</symbol>

<symbol id="icon-phone" viewBox="0 0 32 32">
<path d="M14.53 24.395c-0.244 0.244-0.244 0.639 0 0.884s0.64 0.244 0.884 0c0.244-0.244 0.244-0.64 0-0.884s-0.639-0.244-0.884 0z"></path>
<path d="M30.557 23.31l-4.745-4.035c-0.022-0.019-0.045-0.036-0.069-0.051-1.245-0.792-2.843-0.617-3.887 0.427l-2.587 2.587c-0.179 0.179-0.447 0.232-0.681 0.136-2.921-1.209-5.321-3.028-7.133-5.407-1.382-1.814-1.88-3.256-1.945-3.459-0.008-0.043-0.020-0.087-0.038-0.129-0.097-0.234-0.044-0.501 0.136-0.68l2.587-2.588c1.044-1.044 1.219-2.642 0.427-3.887-0.006-0.010-0.013-0.020-0.020-0.030l-3.427-4.762c-1.078-1.673-3.426-1.925-4.836-0.516l-0.518 0.518c-0 0-0.001 0.001-0.001 0.001l-1.85 1.85c-2.206 2.206-2.566 5.52-1.043 9.586 1.305 3.482 3.917 7.294 7.354 10.731 3.519 3.519 7.433 6.179 11.022 7.49 3.552 1.298 7.33 1.458 10.004-1.217l1.744-1.744c1.403-1.403 1.158-3.736-0.493-4.821zM25.038 20.257l4.741 4.032c0.022 0.019 0.045 0.036 0.069 0.051 1.013 0.645 1.166 2.061 0.319 2.908l-0.129 0.13-8.086-6.054 0.789-0.789c0.616-0.617 1.556-0.728 2.298-0.277zM8.13 2.118c0.006 0.010 0.013 0.020 0.020 0.030l3.425 4.76c0.465 0.745 0.358 1.696-0.265 2.318l-0.764 0.765-5.471-8.045 0.147-0.147c0.851-0.851 2.266-0.69 2.908 0.319zM19.731 29.918c-3.421-1.25-7.174-3.807-10.567-7.2-3.314-3.314-5.824-6.967-7.068-10.286-0.933-2.491-1.56-5.947 0.757-8.263l1.322-1.323 5.471 8.045-0.923 0.923c-0.525 0.524-0.69 1.299-0.428 1.99 0.197 0.81 1.105 2.49 2.021 3.728 1.348 1.822 3.794 4.342 7.793 5.996 0.703 0.291 1.504 0.131 2.042-0.407l0.906-0.906 8.086 6.054-0.722 0.722c-2.483 2.483-6.097 1.875-8.691 0.927z"></path>
<path d="M13.357 22.903c-0.66-0.579-1.802-1.574-2.403-2.193-1.475-1.515-3.022-3.352-3.942-4.679-0.197-0.284-0.586-0.354-0.87-0.158s-0.354 0.586-0.158 0.87c1.16 1.674 2.865 3.597 4.073 4.839 0.635 0.653 1.786 1.658 2.475 2.261 0.259 0.227 0.654 0.202 0.882-0.058s0.202-0.654-0.058-0.882z"></path>
</symbol>

<symbol id="icon-user" viewBox="0 0 32 32">
<path d="M15.772 15.415c2.118 0 3.951-0.76 5.45-2.258s2.258-3.332 2.258-5.449c0-2.117-0.76-3.951-2.258-5.449s-3.332-2.258-5.449-2.258c-2.118 0-3.951 0.76-5.449 2.258s-2.258 3.332-2.258 5.449c0 2.118 0.76 3.951 2.258 5.45s3.332 2.258 5.449 2.258z"></path>
<path d="M29.258 24.606c-0.043-0.624-0.131-1.304-0.259-2.022-0.13-0.724-0.297-1.408-0.497-2.033-0.207-0.646-0.488-1.284-0.836-1.896-0.361-0.635-0.785-1.188-1.26-1.642-0.497-0.476-1.106-0.858-1.81-1.137-0.702-0.278-1.479-0.418-2.311-0.418-0.327 0-0.643 0.134-1.253 0.531-0.375 0.245-0.815 0.528-1.305 0.841-0.419 0.267-0.987 0.517-1.688 0.744-0.684 0.221-1.379 0.334-2.065 0.334s-1.38-0.112-2.065-0.334c-0.701-0.226-1.269-0.477-1.687-0.744-0.486-0.31-0.925-0.593-1.306-0.842-0.609-0.397-0.926-0.531-1.252-0.531-0.832 0-1.609 0.141-2.311 0.419-0.704 0.279-1.313 0.661-1.811 1.137-0.475 0.455-0.899 1.008-1.26 1.642-0.347 0.612-0.629 1.25-0.836 1.896-0.2 0.625-0.367 1.309-0.497 2.033-0.129 0.717-0.216 1.398-0.259 2.023-0.042 0.612-0.064 1.248-0.064 1.89 0 1.67 0.531 3.023 1.578 4.020 1.034 0.984 2.403 1.483 4.067 1.483h15.408c1.664 0 3.032-0.499 4.066-1.483 1.047-0.997 1.578-2.349 1.578-4.020-0-0.645-0.022-1.281-0.065-1.89z"></path>
</symbol>

<symbol id="icon-map" viewBox="0 0 50 32">
<path fill="#fff" style="fill: var(--color1, #fff)" d="M0.030 10.448v0.482c0.26 0.304 0.316 0.954 0.201 1.357l-0.109 0.165c0.059 0.143 0.135 0.249 0.192 0.41 0.060 0.173 0.085 0.308 0.166 0.468 0.223 0.446-0.328 0.194 0.244 0.844 0.135-0.034 0.107-0.012 0.182-0.116 0.077 0.136 0.093 0.167 0.082 0.348l-0.137 0.033c-0.055 0.753-0.075 0.665 0.336 1.062 0.234 0.224 0.012 0.306-0.050 0.481-0.081 0.226 0.513 1.39 0.631 1.586 0.115 0.192 0.249 0.208 0.208 0.51-0.030 0.213-0.093 0.394-0.118 0.625 0.38 0.202 0.473 0.417 1.016 0.436 0.182 0.214 0.279 0.558 0.543 0.685 0.191 0.094 0.324 0.006 0.401 0.193 0.099 0.239 0.016 0.278 0.293 0.337 0.662 0.143 0.687 1.183 0.756 1.692l2.34 0.362c0.213 0.399 0.269 0.27 0.687 0.481 0.132 0.066 0.434 0.334 0.693 0.468s0.364 0.143 0.783 0.374c0.252 0.139 0.492 0.292 0.719 0.44l0.673 0.483c0.177 0.12 0.758 0.123 1.009 0.148 0.709 0.072 1.413 0.172 2.117 0.232l0.072-0.558 1.813 0.144c0.13 0.231 0.109 0.285 0.308 0.502 0.192 0.212 0.795 0.623 0.911 0.779 0.045 0.061 0.008-0.006 0.034 0.069l0.102 0.223c0.071 0.104 0.049 0.186 0.090 0.341 0.175 0.653 1.070 1.537 1.744 1.679 0.141-0.193 0.563-0.596 0.766-0.742 0.149-0.122 0.342-0.197 0.553-0.197 0.008 0 0.017 0 0.025 0l-0.001-0c0.216 0.004 0.461 0.081 0.546 0.226 0.273 0.464 0.153 0.276 0.531 0.595 0.134 0.113 0.063 0.090 0.137 0.259 0.176 0.4 0.666 0.988 0.985 1.298 0.18 0.174 0.241 0.16 0.296 0.467 0.051 0.288 0.295 0.885 0.419 1.104 0.297 0.528 1.197 0.302 1.627 0.655 0.175 0.146 0.347 0.11 0.568 0.026-0.057-0.103-0.137-0.088-0.214-0.147 0.162-0.522-0.29-0.705-0.182-1.038 0.040-0.125 0.064-0.269 0.065-0.418v-0l-0.213-0.057 0.007-0.134 0.237 0.038c-0.007-0.178-0.001-0.268 0.077-0.405l-0.157-0.104c0.121-0.099 0.118-0.041 0.229-0.1 0.005-0.38 0.145-0.269 0.25-0.378 0.001-0.001 0.046-0.072 0.053-0.082 0.094-0.132 0.142-0.157 0.151-0.335 0.168 0.037 0.052 0.020 0.177 0.099 0.096-0.116 0.108-0.106 0.267-0.158l-0.072-0.206c0.769-0.116 1.405-0.294 1.596-1.086l0.054-0.242c0.025-0.060 0.004-0.023 0.039-0.062 0.193 0.040 0.192 0.22 0.12 0.4l1.246-0.428c0.384-0.193 0.218-0.049 0.586 0.027 0.243 0.050 0.535 0.039 0.793 0.038 0.111-0.026-0.025-0.079 0.321-0.367l0.564 0.287c0.061-0.225-0.095-0.335-0.16-0.53 0.396 0.078 0.322 0.53 0.305 0.844 0.157 0.124 0.182 0.147 0.427 0.212 0.21-0.221 0.446-0.211 0.85-0.296-0.013-0.114-0.037-0.3-0.11-0.364-0.151-0.135-0.226 0.073-0.181-0.261 0.186 0.015 0.408 0.226 0.56 0.345 0.144 0.112 0.401 0.321 0.535 0.392 0.104-0.076 0.185-0.177 0.235-0.295l0.002-0.005c-0.173-0.226-0.499-0.19-0.578-0.464 0.071-0.208 0.14-0.145 0.318-0.227 0.049-0.138 0.024-0.143-0.041-0.239l-0.532 0.059-0.024-0.185-0.176-0.013-0.061 0.125-0.423 0.003c-0.072-0.076-0.132-0.164-0.178-0.26l-0.003-0.006c0.107-0.033 0.193-0.065 0.277-0.101l-0.018 0.007c0.187-0.075 0.144-0.088 0.284-0.004 0.696 0.419 0.736-0.183 1.097-0.229 0.547-0.070 0.603 0.165 0.907-0.257 0.004-0.006 0.010-0.014 0.014-0.019s0.010-0.016 0.013-0.020 0.008-0.013 0.013-0.020c0.225 0.213 0.22 0.313 0.633 0.206 0.214-0.056 0.123-0.116 0.192-0.264l1.323 0.018c0.301 0.024 0.391 0.136 0.593 0.333 0.377 0.367 0.648-0.039 0.964-0.165l-0.004-0.224 0.625-0.034 0.401 0.557c0.216 0.208 0.417 0.166 0.676 0.315 0.578 0.332 0.054 0.96 0.415 1.539 0.11-0.059 0.009-0.037 0.139-0.122 0.193 0.155 0.154 0.276 0.024 0.486l0.167 0.266c0.251 0.584 0.443-0.021 0.775 0.514 0.228 0.368 0.443 0.772 0.732 1.088 0.212 0.232 0.318 0.203 0.589 0.35-0.058 0.193-0.008 0.029-0.080 0.094-0.046 0.041-0.020-0.061-0.090 0.108 0.13 0.030 0.447-0.049 0.565-0.090 0.465-0.603 0.399-1.476 0.135-2.244-0.255-0.738-0.621-1.258-0.973-1.841 0.021-0.013-0.015-0.045 0.131-0.014 0.084 0.017-0.024 0.079 0.093 0.011-0.477-0.645-1.074-0.975-1.196-2.103-0.191 0.019-0.19 0.2-0.189 0.419-0.343-0.277 0.089-0.524 0.105-0.565-0.005-0.204-0.065-0.393-0.105-0.593-0.068-0.333 0.301-1.079 0.314-1.825 0.15-0.072 0.181-0.050 0.327-0.156 0.576-0.418 1.178-1.489 1.437-2.138 0.121-0.302 0.445-0.187 0.657-0.368 0.216-0.184 0.094-0.61 0.261-0.765 0.26-0.23 0.548-0.442 0.854-0.625l0.026-0.015c0.151-0.090 0.122-0.177 0.061-0.334-0.178 0.060-0.308 0.327-0.552 0.226 0.051-0.111 0.096-0.094 0.245-0.109l0.082-0.415-0.255 0.027c0.056-0.134 0.14-0.202 0.224-0.351 0.524 0.258 0.814-0.405 0.631-0.68-0.065-0.098-0.030-0.069-0.142-0.108l-0.088 0.247c-0.144-0.011-0.262-0.060-0.409-0.043-0.201 0.025-0.148 0.105-0.378 0.116l-0.025-0.359c0.175 0.020 0.219 0.032 0.375-0.040 0.094-0.044 0.274-0.084 0.351-0.137-0.198-0.414 0.008-0.373-0.147-0.603-0.184-0.271-0.196-0.206-0.537-0.178-0.111 0.009-0.208 0.018-0.291-0.047 0.122-0.141 0.095-0.106 0.301-0.058-0.059-0.191-0.184-0.151-0.249-0.273 0.048-0.108-0.017-0.012 0.076-0.096 0.023-0.020 0.059-0.040 0.093-0.070-0.059-0.122-0.295-0.252-0.395-0.363 0.141-0.052 0.17 0.029 0.334 0.032 0.005-0.477-0.158-0.266-0.314-0.497 0.092-0.148 0.062-0.066 0.201-0.141-0.081-0.095-0.2-0.172-0.271-0.306-0.067-0.127-0.118-0.285-0.178-0.418-0.16-0.355-0.046-0.265 0.089-0.598 0.066-0.163 0.009-0.139 0.138-0.174 0.070 0.043 0.045 0.010 0.051 0.092 0.011 0.141-0.077 0.369-0.072 0.484 0.007 0.229 0.249 0.128 0.21 0.535 0.46-0.001 0.218 0.513 0.699 0.533-0.013 0.247-0.101 0.39-0.103 0.697 0.127-0.052 0.179-0.18 0.23-0.319 0.166-0.449 0.144-1.007 0.11-1.479-0.080-0.020-0.15-0.049-0.214-0.087l0.004 0.002c-0.069-0.045-0.045-0.040-0.093-0.078l-0.103-0.062c-0.142-0.087-0.139-0.259-0.146-0.462 0.205 0.097 0.277 0.098 0.52 0.146 0.044 0.098 0.027 0.184 0.028 0.317 0.348-0.202 0.592-1.72 0.501-1.94-0.217-0.046-0.324 0.032-0.333-0.255 0.001-0.179 0.059-0.344 0.157-0.478l-0.002 0.002c0.18-0.269 0.372-0.435 0.632-0.625 0.213-0.16 0.455-0.321 0.706-0.466l0.035-0.019c0.676-0.383 0.297-0.192 0.566-0.686 0.065 0.059 0.143 0.106 0.229 0.135l0.005 0.001 0.208-0.228c0.367-0.368 0.608-0.278 0.707-0.682-0.16-0.060-0.282-0.192-0.456-0.207 0.026 0.197 0.139 0.133 0.188 0.445-0.141 0.087-0.254 0.112-0.468 0.137-0.15-0.296-0.754-0.544-0.395-0.973-0.23-0.186-0.378-0.277-0.224-0.693 0.196-0.53 0.89-1.245 0.973-1.678 0.049-0.252-0.143-0.183 0.017-0.37 0.277 0.112-0.041 0.173 0.298 0.173 0.006-0.006 0.013-0.027 0.015-0.023l0.091-0.256 0.22-0.023c0.023-0.302 0.308-0.414 0.461-0.612 0.059-0.077 0.092-0.163 0.139-0.236v-0.134c-0.231-0.095-0.32-0.253-0.501-0.415-0.211-0.188-0.189-0.286-0.58-0.344-0.049-0.411-0.299-1.001-0.49-1.265-0.058-0.087-0.143-0.152-0.242-0.184l-0.003-0.001c-0.427-0.143-0.444 0.197-0.766 0.413l-0.337-0.133c-0.266 0.882-0.296 1.95-0.306 2.958-0.332 0.1-0.434 0.075-0.422 0.466-0.471-0.006-0.782 0.323-1.142 0.447-0.207 0.071-0.39 0.144-0.578 0.217-0.471 0.184-0.91 0.096-1.408 0.907-0.177 0.289-0.009 0.446-0.158 0.569-0.212 0.176-0.206 0.11-0.329 0.419 0.14 0.122 0.113 0.094 0.345 0.091l0.121 0.672c-0.098 0.082-0.393 0.179-0.551 0.295-0.532 0.389-0.188 0.191-0.519 0.275-0.22 0.056-0.431 0.135-0.664 0.194-0.187 0.048-0.473 0.103-0.629 0.196 0.076 0.206 0.253 0.363 0.35 0.621-0.306 0.249-0.783 0.752-1.061 1.053-0.118 0.128-0.217 0.236-0.339 0.357-0.164 0.161-0.521 0.517-0.75 0.64-0.148 0.079-0.326 0.122-0.485 0.209-0.168 0.094-0.289 0.19-0.431 0.277-0.239-0.073-0.425-0.169-0.699-0.24 0.032-0.292 0.090-0.399 0.164-0.64 0.063-0.208 0.063-0.428 0.125-0.621 0.051-0.073 0.236-0.080 0.321-0.121 0.053-0.201-0.153-0.627-0.247-0.801-0.070-0.128-0.125-0.224-0.189-0.341-0.029-0.050-0.058-0.108-0.083-0.168l-0.003-0.009-0.082-0.183c-0.59 0.095-0.739 0.947-0.872 0.507-0.069-0.228 0.62-0.82 0.292-1.318-0.169-0.256-0.185-0.096-0.111-0.479-0.262-0.060-0.631-0.18-0.896-0.267-0.082-0.027-0.558-0.305-0.667 0.212 0.079 0.058 0.103 0.040 0.162 0.113-0.070 0.073-0.153 0.133-0.245 0.177l-0.005 0.002v0.491c-0.338 0-0.107-0.092-0.237-0.299-0.229 0.105-0.069 0.266-0.395 0.333-0.034 0.371-0.134 0.868-0.14 1.223-0.003 0.195 0.114 0.306 0.187 0.479 0.062 0.142 0.116 0.311 0.155 0.485l0.004 0.019c0.194 0.888 0.023 1.618-0.672 1.865-0.264-0.12-0.458-0.403-0.462-0.828-0.005-0.377 0.024-0.263-0.112-0.551-0.070-0.149-0.115-0.322-0.125-0.504l-0-0.003c-0.049-0.799 0.312-1.484 0.378-2.239-0.259 0.117-0.386 0.373-0.505 0.614-0.064 0.129-0.040 0.168-0.165 0.188-0.141-0.252 0.496-1.206 0.524-1.659 0.197 0.105 0.157 0.063 0.39-0.041-0.007 0.054-0.030 0.103-0.033 0.138-0.005 0.086-0.021 0.044 0.027 0.098l0.438-0.39c0.239-0.185 0.234-0.241 0.409-0.421l0.636 0.181c0.102-0.242 0.165-0.204 0.347-0.176 0.306 0.045 0.038-0.279-0.191-0.446-0.101 0.062-0.22 0.107-0.348 0.125l-0.005 0.001c-0.207 0.022-0.106-0.022-0.267-0.115-0.019-0.125 0.006-0.203-0.041-0.299-0.096-0.027-0.127 0.086-0.299 0.133-0.142 0.038-0.267 0.045-0.376 0.121-0.143 0.096-0.376 0.378-0.533 0.427-0.282 0.087-0.533-0.147-0.706-0.253-0.304-0.188-0.356-0.208-0.729-0.095-0.053-0.498 0.227-0.5 0.374-0.796-0.358 0.1-0.595 0.332-0.843 0.563-0.25 0.232-0.438 0.453-0.774 0.613-0.389 0.185-0.554 0.069-0.554 0.336l-0.208 0.025c-0.004 0.009-0.008 0.021-0.010 0.030s-0.007 0.019-0.010 0.029c-0.060 0.253 0.024-0.191-0.012 0.059-0.002 0.023-0.003 0.049-0.003 0.076 0 0.016 0 0.032 0.001 0.048l-0-0.002-0.167 0.002c-0.002-0.241-0.024-0.316 0.166-0.404l-0.014-0.31c-0.223-0.040-0.516 0.247-0.856 0.192-0.082-0.014-0.043 0.004-0.090-0.037 0.038-0.141-0.020 0.019 0.112-0.099 0.031-0.033 0.060-0.069 0.086-0.108l0.002-0.003c0.049-0.071 0.113-0.166 0.165-0.234 0.122-0.172 0.242-0.322 0.371-0.464l-0.004 0.004c0.138-0.138 0.264-0.289 0.438-0.388 0.303-0.172 0.247-0.024 0.492-0.325-0.158-0.116-0.529-0.108-0.751-0.101-0.296 0.008-0.445 0.089-0.694 0.135-0.171-0.192-0.344-0.246-0.62-0.322-0.056 0.068-0.066 0.123-0.141 0.149-0.049-0.068-0.039-0.118-0.076-0.215-0.009-0.025-0.029-0.069-0.041-0.093l-0.036-0.067c-0.002-0.013-0.008-0.015-0.013-0.023-0.644 0.135-0.988-0.021-1.655 0.017-0.048-0.158-0.097-0.288-0.155-0.414l0.009 0.021c-0.049-0.108-0.050-0.079-0.106-0.158-0.068-0.095-0.015-0.069-0.107-0.147-0.047 0.079-0.106 0.191-0.15 0.277-0.067 0.131-0.066 0.14-0.217 0.18-0.163 0.040-0.35 0.063-0.543 0.063-0.065 0-0.13-0.003-0.194-0.008l0.008 0.001c-0.614-0.035-0.884 0.020-1.461 0.071-1.553 0.137-3.071-0.072-4.612-0.141-0.53-0.023-1.008 0.009-1.535 0.009-0.933-0.001-1.97-0.17-2.849-0.353-1.34-0.279-2.785-0.4-4.131-0.701-0.205-0.046-0.434-0.13-0.632-0.161-0.231-0.037-0.472-0.049-0.7-0.096-0.203-0.041-0.397-0.137-0.639-0.188-0.43-0.088-0.913-0.123-1.333-0.253-0.209-0.065-0.357-0.151-0.575-0.221-0.294-0.093-2.282-0.768-2.374-0.743-0.079 0.141 0.020 0.106 0.098 0.276 0.037 0.096 0.063 0.207 0.071 0.323l0 0.004c0.029 0.266 0.025 0.534 0.045 0.808-0.346 0.069-0.284 0.283-0.274 0.581-0.157 0.108-0.37 0.17-0.563 0.222-0.040-0.124-0.071-0.106-0.067-0.269l0.332 0.016c0.039-0.086 0.117-0.164 0.121-0.238 0.001-0.006 0.001-0.012 0.001-0.019 0-0.045-0.023-0.084-0.057-0.107l-0-0c-0.041-0.038-0.012-0.009-0.063-0.042l-0.045-0.027c0.042-0.156 0.095-0.208 0.206-0.3l0.038-0.033c-0.313-0.136-1.219-0.713-1.426-0.796-0.063 0.045-0.118 0.089-0.17 0.137l0.001-0.001c0.018 0.287 0.065 0.624 0.089 0.943 0.048 0.638 0.156 0.538-0.058 0.781l0.13 0.287c-0.129 0.124-0.080 0.032-0.209 0.108-0.001 0.135 0.146 0.342 0.235 0.422l-0.317 0.006c-0.046 0.329-0.102 0.611-0.172 0.887l0.012-0.055c-0.039 0.16-0.103 0.194-0.189 0.309-0.232 0.31-0.214 0.34-0.275 0.714-0.022 0.136-0.377 0.547-0.562 0.933-0.981 2.058-0.359 1.749-0.645 2.764-0.056 0.196-0.002 0.254-0.016 0.443-0.112 0.105-0.172 0.123-0.255 0.212-0.090 0.096-0.096 0.127-0.212 0.202z"></path>
</symbol>
<symbol id="icon-Community" viewBox="0 0 37 32">
<path fill="#fff" style="fill: var(--color1, #fff)" d="M24.569 6.232c0 3.442-2.79 6.232-6.232 6.232s-6.232-2.79-6.232-6.232c0-3.442 2.79-6.232 6.232-6.232s6.232 2.79 6.232 6.232z"></path>
<path fill="#fff" style="fill: var(--color1, #fff)" d="M34.884 8.524c0 2.176-1.764 3.94-3.94 3.94s-3.94-1.764-3.94-3.94c0-2.176 1.764-3.94 3.94-3.94s3.94 1.764 3.94 3.94z"></path>
<path fill="#fff" style="fill: var(--color1, #fff)" d="M9.67 8.524c0 2.176-1.764 3.94-3.94 3.94s-3.94-1.764-3.94-3.94c0-2.176 1.764-3.94 3.94-3.94s3.94 1.764 3.94 3.94z"></path>
<path fill="#fff" style="fill: var(--color1, #fff)" d="M9.612 16.001c-1.551-1.271-2.955-1.102-4.748-1.102-0.003 0-0.006 0-0.009 0-2.674 0-4.843 2.162-4.855 4.834v7.824c0.003 1.16 0.944 2.099 2.105 2.099 0.001 0 0.001 0 0.002 0h-0c5.016 0 4.412 0.091 4.412-0.216 0-5.543-0.656-9.609 3.094-13.437z"></path>
<path fill="#fff" style="fill: var(--color1, #fff)" d="M20.043 14.928c-3.132-0.261-5.854 0.003-8.202 1.941-3.93 3.148-3.173 7.385-3.173 12.57 0.002 1.384 1.124 2.506 2.508 2.508h0c15.12 0 15.722 0.488 16.618-1.498 0.294-0.672 0.213-0.458 0.213-6.882 0-5.102-4.416-8.64-7.965-8.64z"></path>
<path fill="#fff" style="fill: var(--color1, #fff)" d="M31.811 14.899c-1.803 0-3.2-0.166-4.748 1.103 3.722 3.8 3.094 7.588 3.094 13.437 0 0.309-0.502 0.216 4.337 0.216 0.001 0 0.001 0 0.002 0 1.202 0 2.176-0.972 2.18-2.173v-7.749c-0.012-2.672-2.181-4.834-4.855-4.834-0.003 0-0.007 0-0.010 0h0z"></path>
</symbol>

<symbol id="icon-Transparency" viewBox="0 0 32 32">
<path fill="#fff" style="fill: var(--color1, #fff)" d="M30.99 26.114l-3.667-3.667c1.36-2.19 2.166-4.848 2.166-7.693 0-8.145-6.603-14.747-14.747-14.747-4.069 0-7.754 1.648-10.422 4.313l0-0c-2.662 2.668-4.309 6.35-4.309 10.418 0 8.145 6.603 14.748 14.748 14.748 2.843 0 5.499-0.805 7.751-2.199l-0.063 0.036 3.667 3.667c0.622 0.611 1.475 0.987 2.415 0.987 1.904 0 3.448-1.544 3.448-3.448 0-0.941-0.377-1.794-0.988-2.416l0 0zM14.745 24.469c-5.368-0.006-9.717-4.356-9.724-9.723v-0.001c0 0 0 0 0 0 0 0.219 0.075 0.42 0.202 0.58l-0.002-0.002c0.172 0.22 4.276 5.38 9.524 5.38s9.352-5.16 9.525-5.38c0.125-0.158 0.2-0.359 0.2-0.578v-0c-0.007 5.368-4.357 9.718-9.725 9.724h-0.001zM10.661 14.745c0-2.255 1.828-4.083 4.083-4.083s4.083 1.828 4.083 4.083c0 2.255-1.828 4.083-4.083 4.083h-0c-2.254-0.003-4.081-1.829-4.084-4.083v-0zM24.269 14.167c-0.172-0.22-4.276-5.38-9.525-5.38s-9.352 5.16-9.524 5.38c-0.125 0.157-0.2 0.359-0.2 0.578 0 0 0 0 0 0v0c0-5.37 4.354-9.724 9.724-9.724s9.724 4.354 9.724 9.724v0c0-0 0-0.001 0-0.001 0-0.219-0.075-0.42-0.2-0.579l0.002 0.002z"></path>
<path fill="#fff" style="fill: var(--color1, #fff)" d="M15.683 14.745c-0-0.518-0.42-0.938-0.938-0.938s-0.938 0.42-0.938 0.938c0 0.518 0.42 0.938 0.938 0.938 0.259 0 0.494-0.105 0.664-0.275v0c0.169-0.17 0.273-0.404 0.274-0.662v-0z"></path>
</symbol>

<symbol id="icon-Experience" viewBox="0 0 31 32">
<path fill="#fff" style="fill: var(--color1, #fff)" d="M11.719 27.103c-0.1-0.087-0.232-0.139-0.376-0.139-0.175 0-0.331 0.078-0.437 0.2l-0.001 0.001-0.752 0.875c-0.087 0.1-0.139 0.232-0.139 0.376 0 0.318 0.258 0.576 0.576 0.576 0.174 0 0.331-0.078 0.437-0.2l0.001-0.001 0.752-0.874c0.087-0.1 0.139-0.232 0.139-0.376 0-0.175-0.077-0.331-0.2-0.437l-0.001-0.001z"></path>
<path fill="#fff" style="fill: var(--color1, #fff)" d="M10.233 20.014h3.364c0.213 0 0.419 0.033 0.612 0.094l-0.014-0.004 0.18-0.18c0.363-0.365 0.866-0.591 1.422-0.591 0.002 0 0.004 0 0.006 0h4.019l8.022-7.52c0.854-1.301 1.362-2.896 1.362-4.61 0-0.727-0.091-1.432-0.263-2.105l0.013 0.059c-0.765-2.986-3.432-5.158-6.606-5.158-2.22 0-4.192 1.062-5.435 2.706l-0.012 0.017-1.84 2.451c-0.106 0.141-0.273 0.231-0.461 0.231s-0.355-0.090-0.46-0.229l-0.001-0.001-1.84-2.451c-1.256-1.661-3.227-2.724-5.447-2.724-3.174 0-5.841 2.172-6.596 5.11l-0.010 0.047c-0.157 0.612-0.248 1.314-0.248 2.038 0 2.325 0.933 4.432 2.446 5.967l-0.001-0.001zM21.162 14.524l2.306-2.076c0.102-0.094 0.239-0.151 0.389-0.151 0.318 0 0.576 0.258 0.576 0.576 0 0.171-0.075 0.325-0.194 0.431l-0.001 0.001-2.306 2.076c-0.102 0.092-0.237 0.148-0.386 0.148-0.318 0-0.577-0.258-0.577-0.577 0-0.17 0.073-0.323 0.19-0.428l0-0zM18.855 16.599l0.64-0.576c0.102-0.092 0.237-0.148 0.386-0.148 0.318 0 0.577 0.258 0.577 0.577 0 0.17-0.073 0.323-0.19 0.428l-0 0-0.64 0.576c-0.102 0.092-0.237 0.148-0.386 0.148-0.318 0-0.577-0.258-0.577-0.577 0-0.17 0.073-0.323 0.19-0.428l0-0z"></path>
<path fill="#fff" style="fill: var(--color1, #fff)" d="M9.97 25.6c-0.1-0.086-0.232-0.139-0.376-0.139-0.175 0-0.331 0.077-0.437 0.2l-0.001 0.001-0.752 0.874c-0.082 0.099-0.131 0.227-0.131 0.366 0 0.319 0.258 0.577 0.577 0.577 0.17 0 0.323-0.074 0.429-0.191l0-0.001 0.752-0.874c0.086-0.1 0.139-0.232 0.139-0.376 0-0.175-0.077-0.331-0.2-0.437l-0.001-0.001z"></path>
<path fill="#fff" style="fill: var(--color1, #fff)" d="M13.468 28.606c-0.1-0.086-0.232-0.139-0.376-0.139-0.175 0-0.331 0.077-0.437 0.2l-0.001 0.001-0.752 0.875c-0.087 0.1-0.139 0.232-0.139 0.376 0 0.318 0.258 0.577 0.577 0.577 0.175 0 0.331-0.078 0.437-0.2l0.001-0.001 0.752-0.874c0.087-0.1 0.139-0.232 0.139-0.376 0-0.175-0.078-0.331-0.2-0.437l-0.001-0.001z"></path>
<path fill="#fff" style="fill: var(--color1, #fff)" d="M15.217 30.109c-0.1-0.086-0.232-0.139-0.376-0.139-0.175 0-0.331 0.077-0.437 0.2l-0.001 0.001-0.752 0.874c-0.087 0.1-0.139 0.232-0.139 0.376 0 0.318 0.258 0.576 0.576 0.576 0.174 0 0.331-0.078 0.437-0.2l0.001-0.001 0.752-0.874c0.087-0.1 0.139-0.232 0.139-0.376 0-0.175-0.078-0.331-0.2-0.437l-0.001-0.001z"></path>
<path fill="#fff" style="fill: var(--color1, #fff)" d="M29.364 12.616l-0.334-0.334-8.586 8.050c-0.103 0.097-0.242 0.156-0.394 0.156-0 0-0 0-0 0h-4.248c-0.001 0-0.002 0-0.002 0-0.238 0-0.453 0.097-0.609 0.253l-1.849 1.849c-0.052 0.052-0.084 0.124-0.084 0.204s0.032 0.152 0.084 0.204v0l0.097 0.097c0.156 0.156 0.371 0.253 0.609 0.253 0.001 0 0.002 0 0.003 0h-0c0 0 0.001 0 0.001 0 0.239 0 0.455-0.097 0.611-0.255l0-0 1.287-1.293c0.104-0.105 0.249-0.17 0.408-0.17h0c0.16 0 0.304 0.066 0.409 0.171l0 0c0.419 0.42 0.998 0.68 1.638 0.68 0.197 0 0.388-0.025 0.571-0.071l-0.016 0.003 0.717-0.179c0.042-0.011 0.090-0.017 0.14-0.017 0.319 0 0.577 0.258 0.577 0.577 0 0.269-0.184 0.495-0.433 0.559l-0.004 0.001-0.717 0.179c-0.25 0.064-0.537 0.101-0.833 0.101-0.756 0-1.455-0.241-2.025-0.651l0.010 0.007-0.098 0.098 2.141 2.002 0.974-0.974c0.104-0.104 0.249-0.169 0.408-0.169 0.319 0 0.577 0.258 0.577 0.577 0 0.159-0.065 0.303-0.169 0.408v0l-0.947 0.947 1.52 1.42 8.47-7.862c0.918-0.869 1.49-2.097 1.49-3.458 0-1.314-0.532-2.503-1.393-3.364v0z"></path>
<path fill="#fff" style="fill: var(--color1, #fff)" d="M15.48 23.906c-0.364 0.367-0.868 0.594-1.425 0.594-0.001 0-0.002 0-0.003 0h-0.002c-0.002 0-0.004 0-0.006 0-0.555 0-1.058-0.226-1.421-0.591l-0.097-0.097c-0.261-0.261-0.422-0.622-0.422-1.020s0.161-0.759 0.422-1.020l0.607-0.607h-3.116c-0 0-0 0-0 0-0.146 0-0.28-0.054-0.381-0.144l0.001 0.001-7.543-6.636-0.2 0.221c-0.729 0.832-1.174 1.928-1.174 3.129 0 1.444 0.644 2.738 1.66 3.611l0.006 0.005 5.162 4.414 0.735-0.855c0.319-0.37 0.788-0.603 1.312-0.603 0.876 0 1.599 0.651 1.713 1.496l0.001 0.009c0.011-0 0.023-0 0.036-0 0.875 0 1.599 0.651 1.713 1.495l0.001 0.009c0.011-0 0.023-0 0.035-0 0.876 0 1.599 0.651 1.712 1.496l0.001 0.009c0.011-0 0.023-0 0.036-0 0.955 0 1.729 0.774 1.729 1.729 0 0.432-0.158 0.826-0.42 1.129l0.002-0.002-0.28 0.325c0.278-0.052 0.519-0.186 0.702-0.376l0-0 3.398-3.516-4.491-4.203z"></path>
</symbol>
</defs>
</svg>
