<svg id="_003-research" data-name="003-research" xmlns="http://www.w3.org/2000/svg" width="79.996" height="80" viewBox="0 0 79.996 80">
  <path id="Path_45081" data-name="Path 45081" d="M77.475,65.285l-9.167-9.167A36.868,36.868,0,0,0,10.8,10.8,36.87,36.87,0,0,0,56.118,68.308l9.167,9.167A8.62,8.62,0,0,0,77.475,65.285ZM36.862,61.172a24.338,24.338,0,0,1-24.31-24.309,2.337,2.337,0,0,0,.5,1.445c.43.549,10.69,13.45,23.811,13.45s23.381-12.9,23.812-13.45a2.345,2.345,0,0,0,.5-1.445A24.338,24.338,0,0,1,36.862,61.172ZM26.653,36.862A10.208,10.208,0,1,1,36.862,47.07,10.22,10.22,0,0,1,26.653,36.862Zm34.02-1.445c-.43-.549-10.69-13.45-23.812-13.45s-23.381,12.9-23.811,13.45a2.337,2.337,0,0,0-.5,1.445,24.31,24.31,0,0,1,48.62,0A2.345,2.345,0,0,0,60.673,35.416Zm0,0" fill="#fff"/>
  <path id="Path_45082" data-name="Path 45082" d="M225.6,223.266a2.344,2.344,0,1,0-.685,1.656A2.36,2.36,0,0,0,225.6,223.266Zm0,0" transform="translate(-186.393 -186.403)" fill="#fff"/>
</svg>
