<svg xmlns="http://www.w3.org/2000/svg" width="41.379" height="40" viewBox="0 0 41.379 40">
  <g id="_007-process" data-name="007-process" transform="translate(-2 -3)">
    <path id="Path_45865" data-name="Path 45865" d="M7.138,11.276a4.136,4.136,0,0,0,4.076-3.448h8.052l-.892.892.975.975,2.557-2.557L19.35,4.581l-.975.975.892.892H11.214a4.136,4.136,0,1,0-4.076,4.828Z" transform="translate(-0.31)" fill="#4f546b"/>
    <path id="Path_45866" data-name="Path 45866" d="M43.32,6.448H38.775a4.138,4.138,0,1,0,0,1.379H43.32a7.241,7.241,0,0,1,0,14.483H32.226l.892-.892-.975-.975L29.586,23l2.557,2.557.975-.975-.892-.892H43.32a8.621,8.621,0,0,0,0-17.241Z" transform="translate(-8.561 0)" fill="#4f546b"/>
    <circle id="Ellipse_2432" data-name="Ellipse 2432" cx="4.138" cy="4.138" r="4.138" transform="translate(34.414 34.724)" fill="#4f546b"/>
    <path id="Path_45867" data-name="Path 45867" d="M25.138,49a4.138,4.138,0,1,0,4.076,4.828h8.052l-.892.892.975.975,2.557-2.557L37.35,50.581l-.975.975.892.892H29.214A4.136,4.136,0,0,0,25.138,49Z" transform="translate(-5.897 -14.276)" fill="#4f546b"/>
    <path id="Path_45868" data-name="Path 45868" d="M10.621,46.69h1.439l-.892.892.975.975L14.7,46l-2.557-2.557-.975.975.892.892H10.621a7.241,7.241,0,1,1,0-14.483h1.786a4.138,4.138,0,1,0,0-1.379H10.621a8.621,8.621,0,0,0,0,17.241Z" transform="translate(0 -7.138)" fill="#4f546b"/>
  </g>
</svg>
